{"glyphs":{"0":{"ha":817,"x_min":66,"x_max":737,"o":"m 203 471 l 203 395 q 257 148 203 245 q 398 51 311 51 q 533 137 484 51 q 590 395 590 238 l 590 449 q 541 699 590 594 q 400 803 491 803 q 256 709 310 803 q 203 471 203 614 m 393 866 l 420 866 q 650 744 557 866 q 715 601 694 686 q 737 437 737 516 l 737 422 q 711 247 737 328 q 537 20 656 79 q 406 -13 472 -13 l 380 -13 q 253 21 313 -13 q 87 252 129 92 q 66 417 66 336 l 66 431 q 92 606 66 524 q 264 833 142 767 q 393 866 323 866 z "},"1":{"ha":579,"x_min":98,"x_max":490,"o":"m 395 781 q 389 711 395 777 q 382 609 382 645 l 380 539 l 380 511 l 379 497 l 379 412 q 390 143 379 180 q 446 75 401 107 q 490 30 490 43 q 412 -1 490 -1 l 313 -1 l 299 0 q 119 31 119 0 q 176 79 119 45 q 226 147 212 102 q 240 411 240 193 q 233 666 240 629 q 211 714 227 703 q 168 726 196 726 q 98 749 98 726 l 98 756 q 138 788 98 770 q 353 859 293 859 q 395 781 395 859 z "},"2":{"ha":749,"x_min":94,"x_max":668,"o":"m 567 -1 l 479 -1 l 457 0 q 347 3 378 3 l 326 3 q 281 4 304 4 l 216 4 q 134 7 147 4 q 94 44 94 18 l 94 59 q 151 158 94 91 q 279 284 172 181 q 425 441 387 388 q 493 633 493 538 q 451 741 493 696 q 349 786 410 786 q 203 684 245 786 q 173 626 186 640 q 131 612 159 612 q 96 681 96 612 q 178 804 96 749 q 381 858 260 858 q 567 796 502 858 q 631 637 631 734 q 559 447 631 540 q 374 268 506 379 q 241 125 241 157 q 372 102 241 102 q 533 114 502 102 q 602 157 565 125 q 643 190 638 190 q 668 147 668 190 q 647 35 668 70 q 567 -1 626 -1 z "},"3":{"ha":733,"x_min":77,"x_max":647,"o":"m 319 -65 l 298 -65 q 137 -27 198 -65 q 77 61 77 11 q 125 111 77 111 q 225 50 154 111 q 338 11 270 11 q 454 62 406 11 q 503 198 503 114 q 441 337 503 282 q 335 387 406 368 q 264 422 264 404 q 327 471 264 439 q 461 667 461 537 q 428 748 461 715 q 351 782 395 782 q 276 766 307 782 q 211 709 245 750 q 146 667 178 667 q 104 724 104 667 q 176 821 104 781 q 361 861 249 861 q 594 672 594 861 q 557 559 594 614 q 499 495 541 535 q 458 453 458 456 q 514 418 458 452 q 647 212 647 338 q 544 7 647 87 q 443 -45 503 -25 q 319 -65 382 -65 z "},"4":{"ha":764,"x_min":51,"x_max":667,"o":"m 422 686 q 374 614 419 686 l 279 482 q 255 452 273 473 q 229 418 238 432 q 214 398 219 405 l 177 349 q 143 305 158 323 q 127 283 127 287 l 127 279 q 134 277 127 277 l 151 277 l 156 278 l 213 281 l 219 282 l 304 280 q 399 285 389 280 q 410 332 410 290 l 412 376 l 413 382 l 414 407 l 415 413 l 416 426 l 416 439 l 416 458 l 416 471 l 417 484 q 417 503 417 494 l 418 542 q 420 566 420 560 l 422 585 q 422 595 422 590 l 425 634 q 425 645 425 640 l 425 656 l 425 682 l 424 686 l 422 686 m 454 -52 l 427 -52 q 375 -38 397 -52 q 353 -9 353 -23 q 376 39 353 4 q 398 109 398 75 q 362 183 398 165 q 189 201 327 201 q 51 245 51 201 l 51 256 q 393 757 51 304 q 511 849 463 849 q 547 812 540 849 q 551 605 551 795 q 570 356 551 415 q 624 298 581 321 q 667 254 667 275 q 648 226 667 239 q 611 193 620 207 q 581 95 581 146 q 594 57 581 78 q 607 18 607 37 q 562 -32 607 -11 q 454 -52 516 -52 z "},"5":{"ha":733,"x_min":77,"x_max":637,"o":"m 178 435 q 125 516 125 435 q 141 686 125 596 q 173 804 157 777 q 213 840 188 831 q 313 848 238 848 l 358 847 q 429 846 381 846 q 530 857 477 846 l 567 865 l 585 865 q 620 823 620 865 q 584 748 620 763 q 496 740 565 740 q 405 741 427 740 l 317 743 q 235 715 254 743 q 209 585 209 673 q 230 528 209 541 q 305 522 241 522 q 545 445 452 522 q 637 249 637 368 l 637 227 q 616 122 637 174 q 444 -33 569 12 q 315 -58 376 -58 l 294 -58 q 136 -23 196 -58 q 77 63 77 12 q 136 113 77 113 q 216 58 154 113 q 331 20 260 20 q 450 80 402 20 q 498 238 498 140 q 436 388 498 335 q 277 440 373 440 l 178 435 z "},"6":{"ha":776,"x_min":68,"x_max":690,"o":"m 382 48 l 401 48 q 512 109 467 48 q 556 261 556 170 l 556 283 q 511 442 556 380 q 395 504 465 504 l 368 504 q 243 448 295 504 q 209 339 209 411 l 209 304 q 258 119 209 191 q 382 48 307 48 m 245 601 q 318 547 245 547 l 361 551 q 432 555 391 555 q 526 533 472 555 q 670 389 630 492 q 690 275 690 338 q 669 159 690 212 q 513 7 625 54 q 395 -16 458 -16 l 377 -16 q 151 88 237 -16 q 89 211 110 136 q 68 361 68 286 l 68 399 q 102 597 68 501 q 348 866 173 793 q 504 901 433 901 q 631 850 631 901 q 610 814 631 824 q 545 805 589 805 l 474 809 q 344 765 393 809 q 270 674 295 720 q 245 601 245 628 z "},"7":{"ha":707,"x_min":62,"x_max":646,"o":"m 562 852 q 630 842 614 852 q 646 806 646 831 q 463 344 646 765 q 379 105 402 203 q 346 -14 355 7 q 267 -67 323 -67 l 252 -67 q 206 -29 206 -67 q 366 361 206 28 q 525 707 525 694 q 497 742 525 735 q 338 749 470 749 q 185 738 207 749 q 134 687 163 727 q 84 648 105 648 q 62 685 62 648 l 62 701 q 85 839 62 803 q 133 858 97 858 l 285 852 l 355 850 l 511 852 l 528 852 l 562 852 z "},"8":{"ha":769,"x_min":62,"x_max":675,"o":"m 530 716 q 485 834 530 789 q 377 880 439 880 l 356 880 q 267 839 303 880 q 230 745 230 798 l 230 718 q 283 604 230 663 q 350 555 306 578 q 410 531 395 531 l 420 531 q 491 583 453 531 q 528 683 528 634 l 530 694 l 530 716 m 183 264 l 183 232 q 242 101 183 151 q 372 51 301 51 l 385 51 q 504 98 453 51 q 554 215 554 144 l 554 227 q 386 429 554 350 q 329 449 344 449 l 323 449 q 222 376 278 449 q 183 264 183 326 m 359 -16 q 151 45 235 -16 q 86 122 111 75 q 62 217 62 170 l 62 232 q 159 415 62 332 q 225 474 225 471 q 187 513 225 476 q 123 591 149 549 q 98 690 98 635 q 177 862 98 798 q 369 926 256 926 l 385 926 q 568 869 497 926 q 640 717 640 811 q 560 550 640 623 q 506 491 506 499 q 531 470 506 486 q 581 433 555 453 q 629 382 607 413 q 675 248 675 318 l 675 233 q 591 56 675 127 q 375 -16 506 -16 l 359 -16 z "},"9":{"ha":776,"x_min":63,"x_max":684,"o":"m 371 810 l 357 810 l 351 809 q 240 749 284 809 q 196 612 196 688 l 196 562 q 245 411 196 468 q 363 353 294 353 l 382 353 q 498 398 454 353 q 543 524 543 442 l 543 545 l 542 551 q 494 738 542 666 q 371 810 446 810 m 481 181 q 494 205 481 181 q 507 253 507 229 q 486 295 507 277 q 445 313 465 313 q 394 309 425 313 q 317 304 363 304 q 315 304 316 304 q 222 327 271 304 q 85 466 123 372 q 63 582 63 519 q 139 784 63 707 q 237 850 180 826 q 351 874 294 874 l 368 874 q 595 777 508 874 q 660 655 636 732 q 684 506 684 579 l 684 468 q 562 103 684 248 q 423 -1 509 39 q 256 -41 337 -41 l 241 -41 q 123 16 123 -41 q 191 55 123 55 l 274 47 q 406 91 357 47 q 481 181 455 134 z "},"\u0000":{"ha":781,"x_min":36,"x_max":741,"o":"m 552 44 q 626 51 626 44 q 458 310 626 65 q 421 366 452 318 q 387 414 390 414 l 354 363 l 351 357 l 325 318 q 317 307 322 313 q 150 47 150 63 q 162 47 150 47 l 169 46 l 175 45 l 222 44 l 552 44 m 102 492 l 102 242 q 105 109 102 109 q 180 218 109 109 l 221 279 q 245 315 236 302 q 268 350 254 328 q 315 418 283 372 q 347 467 347 463 l 347 474 q 257 610 347 479 q 163 749 168 741 l 104 835 q 102 492 102 835 m 673 431 l 673 511 q 670 836 673 836 q 633 785 667 836 q 514 611 600 734 q 429 477 429 488 q 480 391 429 465 q 599 214 532 317 q 670 112 666 112 q 673 431 673 112 m 459 903 l 438 903 l 431 902 l 390 902 q 149 896 149 902 q 184 839 149 890 q 238 759 219 788 q 271 709 256 730 q 336 611 286 688 q 390 533 387 533 q 433 594 393 533 q 478 664 472 654 q 494 687 484 673 l 577 813 q 631 897 631 890 q 459 903 631 903 m 36 27 l 36 163 l 37 180 l 37 486 q 38 958 37 955 q 94 970 43 970 l 667 970 q 737 959 734 970 q 740 686 740 948 l 740 399 l 741 331 l 741 9 q 719 -17 741 -15 q 532 -20 698 -20 l 227 -20 q 43 -16 50 -20 q 36 27 36 -12 z "}," ":{"ha":352,"x_min":0,"x_max":0,"o":""},"!":{"ha":400,"x_min":110,"x_max":286,"o":"m 281 884 l 281 839 l 281 831 l 280 816 q 279 801 279 808 l 277 770 q 232 299 277 549 q 204 265 226 265 l 197 265 q 160 349 160 265 l 144 543 q 141 592 141 584 l 139 616 q 137 649 137 641 l 136 665 q 133 713 133 698 l 132 730 l 131 753 l 128 800 l 126 874 q 145 947 126 930 q 207 965 164 965 l 215 965 q 265 947 248 965 q 281 884 281 929 m 192 -14 q 138 6 165 -14 q 110 60 110 26 l 110 74 q 132 123 110 97 q 182 149 153 149 l 196 151 l 204 151 q 225 149 214 149 q 261 128 235 149 q 286 77 286 107 l 286 63 q 262 12 286 36 q 214 -12 238 -12 l 200 -14 l 192 -14 z "},"\"":{"ha":514,"x_min":75,"x_max":429,"o":"m 75 936 q 138 981 75 981 l 157 981 q 205 933 205 981 l 207 925 l 207 899 l 206 895 q 206 886 206 890 l 204 860 q 199 821 199 831 q 165 650 199 745 q 130 625 156 625 l 121 625 q 98 716 98 625 q 98 734 98 725 l 98 743 q 98 756 98 749 l 95 788 q 93 810 93 802 l 75 919 l 75 936 m 319 776 q 315 814 315 810 q 307 852 315 819 q 298 924 298 886 l 298 929 q 359 981 298 981 l 376 981 q 429 928 429 981 l 429 889 l 429 884 l 427 867 l 425 846 l 420 810 q 386 648 420 743 q 350 625 377 625 l 341 625 q 320 718 320 625 l 320 745 l 319 767 l 319 776 z "},"#":{"ha":832,"x_min":62,"x_max":754,"o":"m 328 495 q 321 463 328 489 q 312 421 314 436 q 303 389 309 406 q 297 358 297 372 l 297 355 q 337 345 297 345 l 374 345 l 386 347 q 469 352 452 347 q 486 385 486 357 l 521 546 l 521 549 q 511 557 521 557 l 492 559 l 485 559 l 469 560 l 437 560 l 433 559 q 341 549 355 559 q 328 495 328 539 m 62 304 q 87 342 62 330 q 144 349 96 346 q 208 367 193 352 q 244 515 244 404 q 191 551 244 547 q 104 577 104 557 q 127 618 104 608 q 188 630 136 623 q 261 659 241 637 q 297 758 281 681 q 325 858 313 834 q 364 881 336 881 q 393 852 393 881 q 377 748 393 824 q 362 657 362 671 q 375 636 362 643 q 457 629 387 629 q 539 652 526 629 q 559 736 544 661 q 583 833 575 812 q 629 877 600 877 q 657 844 657 877 l 642 714 q 657 656 642 670 q 713 630 671 642 q 754 595 754 617 q 707 557 754 564 q 608 534 616 544 q 573 403 573 490 q 591 359 573 368 q 641 352 599 355 q 694 346 683 349 q 715 308 715 339 q 647 275 715 283 q 559 244 578 268 q 520 139 540 221 q 498 52 500 58 q 455 22 484 22 q 426 52 426 22 q 441 157 426 81 q 456 246 456 232 q 448 267 456 260 q 367 275 439 275 q 284 259 296 275 q 256 158 273 243 q 228 47 240 73 q 193 22 216 22 q 159 50 159 22 l 181 205 q 168 248 181 233 q 109 272 155 264 q 62 304 62 281 z "},"$":{"ha":747,"x_min":102,"x_max":661,"o":"m 343 850 l 337 850 q 261 803 303 850 q 219 730 219 756 l 219 713 q 222 693 222 697 q 255 590 222 642 q 326 537 288 537 l 331 537 q 338 571 338 537 l 345 610 q 347 628 347 624 l 349 640 l 349 674 l 342 709 q 342 718 342 713 l 340 726 l 340 752 l 341 765 l 342 782 q 345 802 345 798 l 348 822 q 348 830 348 826 l 349 833 q 343 850 349 850 m 549 238 q 510 343 549 304 q 408 402 451 402 l 405 402 q 397 310 397 402 l 397 261 l 398 257 l 400 218 l 400 165 l 397 122 l 397 107 q 399 86 399 97 q 406 76 399 76 l 412 76 q 509 112 468 76 q 551 220 551 149 l 551 224 q 549 238 549 234 m 133 48 q 102 154 102 74 q 137 234 102 234 q 180 179 153 234 q 224 108 207 124 q 310 72 263 72 q 338 106 332 72 q 344 254 344 141 q 332 387 344 368 q 250 447 320 406 q 153 525 180 489 q 111 656 111 582 q 147 775 111 730 q 231 845 182 821 q 272 863 237 848 q 321 891 307 878 q 350 938 335 903 q 380 973 364 973 q 414 935 403 973 q 456 879 426 896 q 532 854 486 863 q 598 828 579 845 q 616 762 616 812 q 577 673 616 673 q 525 732 564 673 q 455 790 487 790 q 415 765 424 790 q 406 598 406 739 q 430 505 406 530 q 464 483 439 496 l 484 473 q 621 369 582 420 q 661 232 661 317 q 517 24 661 91 q 472 6 504 18 q 424 -18 440 -5 q 400 -74 408 -30 q 378 -118 393 -118 l 363 -118 q 336 -75 343 -118 q 309 -14 330 -32 q 220 17 288 3 q 133 48 153 31 z "},"%":{"ha":1075,"x_min":71,"x_max":998,"o":"m 355 673 l 355 707 q 353 732 353 723 q 325 830 353 789 q 258 870 297 870 l 254 869 q 186 825 214 869 q 158 694 158 781 l 158 684 l 159 678 l 159 662 l 161 642 q 188 552 161 595 q 254 509 216 509 l 262 509 q 330 556 304 509 q 355 673 355 604 m 890 229 l 890 258 q 888 284 888 274 q 859 381 888 340 q 792 422 829 422 l 784 422 q 712 370 740 422 q 684 237 684 319 l 684 231 l 684 225 q 711 103 684 152 q 775 55 737 55 l 792 55 q 860 103 829 55 q 890 229 890 151 m 482 699 l 482 676 q 421 513 482 579 q 273 448 359 448 l 258 448 q 125 506 179 448 q 71 663 71 564 l 71 686 q 130 846 71 778 q 273 914 189 914 l 303 914 q 434 850 386 914 q 482 699 482 786 m 736 867 q 807 924 774 924 q 840 907 840 924 q 303 43 840 863 q 238 -5 271 -5 q 204 12 204 -5 q 231 68 204 23 q 736 867 551 593 m 604 220 l 604 235 q 659 394 604 330 q 800 458 714 458 l 807 458 q 943 398 887 458 q 998 239 998 338 l 998 231 l 998 224 q 944 68 998 134 q 807 1 891 1 l 786 1 q 707 22 744 1 q 649 72 670 43 q 604 220 604 134 z "},"&":{"ha":1036,"x_min":64,"x_max":903,"o":"m 315 762 l 315 748 q 362 618 315 705 q 415 566 391 566 q 471 612 435 566 q 507 693 507 659 q 509 705 509 701 l 510 727 l 510 746 q 484 841 510 800 q 416 882 458 882 l 409 882 q 336 833 370 882 q 315 762 315 804 m 191 277 l 191 252 q 249 123 191 176 q 376 69 307 69 l 412 69 q 511 99 455 69 q 566 155 566 129 l 566 159 q 445 313 566 172 q 309 455 323 455 q 231 392 271 455 q 191 277 191 330 m 710 471 q 814 520 710 520 q 874 496 874 520 q 846 446 874 481 q 792 346 818 410 q 766 225 766 281 q 808 119 766 169 q 866 75 829 94 q 903 45 903 55 q 895 31 903 36 q 798 7 856 7 q 688 31 740 7 q 597 54 635 54 q 502 23 587 54 q 337 -9 417 -9 q 142 62 220 -9 q 64 241 64 134 q 170 441 64 349 q 243 525 243 505 q 215 609 243 545 q 187 727 187 673 q 248 863 187 804 q 400 922 308 922 q 545 873 492 922 q 598 755 598 823 q 553 622 598 688 q 507 497 507 557 q 564 378 507 437 q 650 342 597 342 q 678 361 663 342 q 710 471 710 400 z "},"'":{"ha":296,"x_min":87,"x_max":219,"o":"m 87 941 q 153 988 87 988 l 167 988 q 219 933 219 988 l 219 903 l 218 899 l 218 882 l 215 855 q 176 662 215 770 q 136 632 165 632 l 131 632 q 108 730 108 632 l 108 757 l 104 806 q 104 820 104 811 q 96 860 104 829 q 88 907 88 891 l 87 915 l 87 941 z "},"(":{"ha":452,"x_min":83,"x_max":412,"o":"m 208 406 q 319 -70 208 119 q 369 -141 336 -98 q 401 -203 401 -184 q 372 -222 401 -222 q 278 -152 342 -222 q 83 393 83 64 l 83 408 q 156 760 83 591 q 252 918 196 852 q 376 1028 345 1028 l 388 1028 q 412 1006 412 1028 q 378 950 412 991 q 330 887 345 909 q 257 735 286 821 q 208 406 208 587 z "},")":{"ha":451,"x_min":41,"x_max":372,"o":"m 52 1004 q 84 1029 52 1029 q 200 930 117 1029 q 349 622 310 800 q 372 435 372 517 l 372 375 q 345 184 372 283 q 168 -151 289 -21 q 71 -224 100 -224 q 41 -205 41 -224 q 101 -110 41 -204 q 188 55 162 -16 q 243 367 243 210 l 245 397 l 244 444 q 90 941 244 742 q 52 1004 52 989 z "},"*":{"ha":627,"x_min":105,"x_max":551,"o":"m 279 919 q 327 970 279 970 q 374 907 374 970 q 365 825 374 885 l 359 786 q 365 773 359 773 q 427 807 371 773 q 507 842 482 842 q 551 795 551 842 q 497 739 551 762 q 419 701 419 705 q 450 665 419 689 q 505 591 505 623 q 471 555 505 555 q 435 565 461 555 q 392 586 409 575 q 375 597 376 597 q 356 564 365 597 q 340 525 347 531 q 292 507 321 507 q 257 563 257 507 q 242 600 257 600 q 199 591 228 600 q 155 581 171 581 q 133 616 133 581 q 162 682 133 650 q 182 700 165 685 q 199 718 199 714 q 179 732 199 722 q 132 769 159 743 q 105 813 105 795 q 144 852 105 852 q 223 821 179 852 q 277 789 267 789 q 284 821 284 789 l 279 919 z "},"+":{"ha":728,"x_min":64,"x_max":665,"o":"m 353 700 l 377 700 q 405 677 401 700 q 406 563 406 671 q 411 448 406 454 q 523 442 416 442 q 643 440 630 442 q 665 414 665 437 q 652 367 665 373 q 527 360 638 360 q 411 354 416 360 q 406 239 406 348 q 404 121 406 130 q 378 98 401 98 l 366 98 q 325 120 329 98 q 323 241 323 130 q 312 357 323 352 q 187 359 309 359 q 64 385 64 359 l 64 396 q 86 438 64 432 q 204 441 96 441 q 318 447 311 441 q 324 561 324 452 q 326 677 324 670 q 353 700 330 700 z "},",":{"ha":347,"x_min":79,"x_max":268,"o":"m 268 54 l 268 37 q 221 -104 268 -41 q 105 -199 150 -199 l 101 -199 q 79 -177 79 -199 q 120 -126 79 -171 q 161 -43 161 -81 q 122 11 161 -28 q 83 83 83 50 q 107 139 83 116 q 164 161 132 161 l 180 161 q 244 132 220 161 q 268 54 268 102 z "},"-":{"ha":553,"x_min":77,"x_max":479,"o":"m 103 326 q 77 357 77 326 l 77 367 l 78 372 q 99 414 78 409 q 291 419 120 419 l 431 422 l 449 422 q 479 392 479 422 l 479 382 l 479 377 q 456 335 479 340 q 266 330 434 330 l 261 329 l 241 329 l 232 328 l 208 328 l 198 328 l 174 328 l 164 327 l 140 327 l 126 326 l 103 326 z "},".":{"ha":340,"x_min":80,"x_max":259,"o":"m 172 -16 l 166 -16 q 103 12 126 -16 q 80 73 80 39 l 81 76 q 102 130 81 100 q 162 160 123 160 l 180 160 q 232 138 205 160 q 259 81 259 115 l 259 66 q 231 8 259 31 q 172 -16 203 -16 z "},"/":{"ha":566,"x_min":24,"x_max":547,"o":"m 497 996 l 509 996 q 547 981 547 996 q 141 -38 547 910 q 101 -117 113 -103 q 57 -130 90 -130 q 24 -117 24 -130 q 53 -28 24 -100 q 428 900 386 804 q 497 996 470 996 z "},":":{"ha":361,"x_min":90,"x_max":273,"o":"m 190 460 l 172 460 q 163 461 167 461 q 118 485 142 461 q 95 531 95 508 l 94 537 l 94 554 q 116 606 94 579 q 165 633 138 633 l 179 635 l 191 635 q 212 633 199 633 q 249 609 225 633 q 273 552 273 585 l 273 546 q 249 488 273 515 q 190 460 226 460 m 91 87 l 92 101 q 119 149 92 125 q 178 172 146 172 l 184 172 q 210 170 195 170 q 246 147 224 170 q 269 102 269 125 l 271 87 l 271 81 q 269 60 269 73 q 243 22 269 47 q 182 -3 218 -3 l 177 -3 l 174 -3 l 168 -3 q 159 -1 163 -1 q 116 21 138 -1 q 93 64 93 44 l 90 85 l 91 87 z "},";":{"ha":370,"x_min":97,"x_max":276,"o":"m 209 618 q 254 593 233 618 q 275 532 275 567 l 275 530 q 251 470 275 498 q 186 441 227 441 l 180 441 l 178 441 l 172 441 q 161 444 164 444 q 122 468 142 444 q 102 523 102 492 l 102 532 q 124 588 102 557 q 184 620 147 620 l 201 620 q 209 618 207 618 m 276 68 l 276 38 q 231 -90 276 -29 q 121 -179 163 -179 l 113 -179 q 97 -158 97 -179 q 114 -134 97 -150 q 175 -23 175 -79 q 138 27 175 -6 q 100 106 100 61 q 123 152 100 130 q 176 174 145 174 l 191 174 q 252 145 228 174 q 276 68 276 116 z "},"<":{"ha":729,"x_min":62,"x_max":641,"o":"m 62 393 l 62 405 q 206 507 62 422 q 620 739 600 739 q 639 699 639 739 q 602 647 639 674 q 379 516 565 621 q 193 399 193 412 q 354 302 193 391 q 591 163 515 212 q 641 104 641 130 q 621 60 641 60 q 194 296 596 60 q 62 393 62 374 z "},"=":{"ha":758,"x_min":80,"x_max":669,"o":"m 669 532 l 669 506 q 652 475 669 478 q 367 472 635 472 l 254 472 l 228 471 l 122 471 q 82 500 82 471 l 82 513 l 83 520 q 99 551 83 548 q 383 554 116 554 l 577 555 l 623 555 q 669 532 669 555 m 623 324 q 669 294 669 324 l 669 288 l 668 281 q 650 244 668 248 q 363 241 631 241 l 251 241 l 238 241 l 171 241 l 151 240 l 144 240 q 80 271 80 240 l 80 284 q 106 321 80 321 l 564 324 l 623 324 z "},">":{"ha":728,"x_min":88,"x_max":665,"o":"m 112 739 q 302 635 121 739 q 526 507 483 531 q 665 401 665 429 q 633 355 665 374 q 105 60 146 60 q 88 93 88 60 l 88 104 q 294 252 88 127 q 417 323 296 253 q 538 395 538 393 q 351 514 538 406 q 128 647 163 622 q 93 705 93 671 q 112 739 93 739 z "},"?":{"ha":632,"x_min":66,"x_max":563,"o":"m 325 396 q 317 386 325 396 q 309 317 309 375 q 277 259 309 259 l 267 259 q 238 287 254 259 q 222 371 222 314 q 254 482 222 429 q 321 564 266 503 q 395 663 377 624 q 414 749 414 702 q 380 826 414 796 q 286 855 346 855 q 192 814 225 855 q 109 751 141 751 q 66 817 66 751 q 128 922 66 884 q 282 960 190 960 l 296 960 q 489 896 414 960 q 563 734 563 832 l 563 721 q 528 598 563 652 q 416 481 492 545 q 325 396 340 418 m 259 -20 q 244 -18 254 -18 q 210 2 234 -18 q 185 48 185 22 l 183 62 l 183 73 q 184 81 184 79 q 208 126 184 102 q 256 150 232 150 l 262 151 l 279 151 q 336 125 314 151 q 358 69 358 98 l 358 66 l 357 64 q 335 8 357 35 q 284 -18 313 -18 l 271 -20 l 268 -20 l 264 -20 l 259 -20 z "},"@":{"ha":1179,"x_min":74,"x_max":1073,"o":"m 629 572 l 618 572 q 554 549 593 572 q 483 486 515 527 q 427 318 427 412 l 427 307 q 445 198 427 238 q 499 158 463 158 l 509 158 q 577 187 532 158 q 647 254 623 216 q 705 467 705 344 l 705 484 l 705 489 q 685 548 705 524 q 629 572 665 572 m 860 -28 q 882 -50 882 -28 l 862 -71 q 749 -123 827 -98 q 597 -148 671 -148 l 556 -148 q 359 -109 456 -148 q 101 168 165 -29 q 74 345 74 250 q 110 543 75 439 q 299 781 159 684 q 639 879 439 879 q 823 841 737 879 q 1044 614 985 769 q 1073 457 1073 540 q 980 205 1073 306 q 889 136 939 161 q 791 111 838 111 q 693 138 744 111 q 631 164 642 164 q 570 140 620 164 q 478 117 521 117 q 402 142 435 117 q 345 264 345 186 q 417 513 345 408 q 492 587 448 559 q 583 614 536 614 l 614 614 l 643 612 l 671 609 l 697 610 l 720 613 q 761 595 745 613 q 776 517 776 577 l 775 482 l 773 446 q 769 311 769 357 q 786 233 769 264 q 850 201 802 201 l 879 212 q 951 292 918 233 q 985 445 985 351 q 882 703 985 604 q 600 802 780 802 q 458 774 525 802 q 296 666 355 732 q 178 346 178 532 q 294 41 178 160 q 611 -78 410 -78 q 776 -53 704 -78 q 860 -28 848 -28 z "},"A":{"ha":974,"x_min":14,"x_max":940,"o":"m 583 401 l 583 409 q 467 742 583 454 q 448 783 451 783 q 377 601 445 783 q 309 404 309 419 q 374 391 309 391 l 490 391 q 583 401 583 391 m 14 36 q 55 75 14 50 q 118 151 96 101 q 164 271 119 153 q 264 518 210 389 q 336 697 319 647 q 374 814 353 747 q 404 897 395 882 q 477 943 431 943 q 509 931 492 943 q 627 697 560 894 q 739 390 654 620 q 841 126 825 160 q 884 77 857 92 q 940 30 940 45 q 836 3 940 3 l 755 3 q 637 28 637 3 q 659 68 637 44 q 682 118 682 92 q 655 211 682 143 q 615 296 628 278 q 515 328 591 328 l 476 330 q 416 330 456 330 q 286 312 307 330 q 235 219 264 294 q 206 117 206 144 q 234 64 206 90 q 262 33 262 37 q 196 9 262 9 q 14 36 14 9 z "},"B":{"ha":891,"x_min":64,"x_max":804,"o":"m 395 880 l 383 880 q 313 856 320 880 q 308 762 308 840 l 308 679 l 307 661 l 307 595 q 316 530 307 539 q 359 520 325 520 l 408 520 q 558 559 511 520 q 619 694 619 611 l 619 713 q 549 846 619 798 q 395 880 501 880 m 435 458 l 374 458 q 313 443 320 458 q 307 332 307 427 l 307 168 q 315 81 307 92 q 401 58 330 58 l 444 58 q 648 160 600 58 q 667 247 667 201 l 667 254 l 667 262 q 604 408 667 357 q 435 458 541 458 m 188 -2 q 72 22 72 -2 q 109 56 72 42 q 158 99 146 70 q 169 278 169 129 l 170 296 q 170 331 170 313 l 171 349 l 171 385 l 170 437 q 170 492 170 465 q 155 836 170 791 q 105 879 146 864 q 64 913 64 895 q 207 939 64 939 l 312 941 l 418 941 q 661 883 575 941 q 747 713 747 825 q 713 598 747 645 q 640 527 680 551 q 601 498 601 503 q 636 477 601 493 q 675 458 671 460 q 752 393 722 432 q 804 252 804 328 l 804 234 q 781 137 804 183 q 626 16 737 52 q 470 -7 552 -7 l 416 -7 l 310 -4 l 257 -2 l 188 -2 z "},"C":{"ha":923,"x_min":72,"x_max":854,"o":"m 72 484 q 106 665 72 574 q 203 822 141 755 q 348 920 264 888 q 515 952 432 952 q 662 937 599 952 q 762 920 725 922 q 810 910 800 917 q 842 782 842 889 q 803 705 842 705 q 750 761 788 705 q 681 836 713 817 q 527 879 609 879 q 294 756 378 879 q 226 496 226 655 q 301 189 226 294 q 549 68 387 68 q 695 105 633 68 q 766 168 726 123 q 830 213 807 213 q 854 182 854 213 q 830 107 854 152 q 780 45 807 62 q 675 9 753 28 q 543 -10 597 -10 l 495 -10 q 326 26 409 -9 q 101 275 159 97 q 72 460 72 363 l 72 484 z "},"D":{"ha":1026,"x_min":75,"x_max":941,"o":"m 439 883 l 405 883 q 319 852 328 883 q 315 656 315 838 l 315 463 l 314 439 l 314 382 l 313 358 l 313 300 l 313 254 l 313 185 q 327 86 313 109 q 419 64 340 64 l 453 64 q 757 285 678 65 q 783 435 783 358 l 783 486 q 760 643 783 563 q 579 857 717 798 q 439 883 519 883 m 490 946 q 665 916 579 946 q 812 826 751 887 q 941 476 941 697 q 798 120 941 256 q 451 -3 667 -3 l 435 -3 l 418 -3 l 350 -1 q 316 -1 333 -1 l 267 1 l 218 1 q 81 21 81 1 q 123 59 81 41 q 176 110 166 76 q 185 445 185 143 q 176 799 185 747 q 154 861 166 850 q 108 881 141 871 q 75 905 75 891 l 75 916 q 203 937 75 937 l 437 946 l 490 946 z "},"E":{"ha":863,"x_min":83,"x_max":793,"o":"m 87 918 q 144 943 87 937 q 434 945 170 945 l 636 946 q 729 915 700 946 q 758 808 758 884 q 743 774 758 774 q 706 802 736 774 q 648 838 676 830 q 445 863 557 863 q 358 802 386 863 q 330 637 330 741 q 366 554 330 578 q 471 530 401 530 q 535 560 496 530 q 589 589 574 589 q 620 566 605 589 q 635 477 635 543 q 614 389 635 410 l 597 380 q 524 424 585 380 q 428 447 492 447 q 337 407 363 447 q 319 270 319 380 q 356 111 319 160 q 485 81 378 81 q 645 102 591 81 q 735 156 699 123 q 780 190 771 190 q 793 168 793 190 q 743 14 793 47 q 520 -1 720 -1 l 400 -1 q 125 3 168 -1 q 83 27 83 8 q 115 67 83 45 q 157 116 148 90 q 173 433 173 164 l 176 699 q 168 838 176 812 q 123 878 159 863 q 87 918 87 893 z "},"F":{"ha":810,"x_min":81,"x_max":764,"o":"m 764 802 q 738 757 764 757 q 722 774 735 757 l 703 798 q 483 871 641 871 q 353 823 380 871 q 326 677 326 774 q 350 551 326 580 q 456 522 374 522 q 539 550 498 522 q 593 578 579 578 q 631 473 631 578 q 618 403 631 431 q 581 375 605 375 q 533 396 572 375 q 458 416 493 416 q 344 373 376 416 q 329 265 329 353 q 343 123 329 177 q 368 57 357 70 q 388 35 378 44 q 397 22 397 25 q 301 -4 397 -4 l 253 -4 q 125 7 163 -4 q 88 43 88 18 q 122 73 88 50 q 164 119 157 96 q 172 333 172 142 l 178 627 q 162 839 178 795 q 117 883 154 861 q 81 921 81 906 q 239 943 81 943 l 387 945 l 436 946 q 486 947 461 947 l 659 949 q 739 921 715 949 q 764 802 764 893 z "},"G":{"ha":998,"x_min":74,"x_max":916,"o":"m 543 950 q 732 927 564 950 l 756 924 l 779 922 q 822 915 812 919 q 865 792 865 897 q 821 711 865 711 q 770 766 808 711 q 703 838 733 820 q 522 880 633 880 q 399 846 457 880 q 224 463 224 747 q 251 297 224 378 q 326 163 277 215 q 429 91 375 112 q 570 69 484 69 q 696 112 657 69 q 735 272 735 155 q 709 347 735 317 q 676 372 701 355 q 651 397 651 388 q 783 424 651 424 q 916 391 916 424 q 898 357 916 383 q 876 308 880 331 q 869 229 871 286 q 864 129 867 172 q 840 66 861 85 q 713 16 819 47 q 521 -16 608 -16 q 349 18 434 -15 q 109 261 176 85 q 74 454 74 355 l 74 482 q 74 486 74 484 q 111 671 74 579 q 351 916 184 852 q 543 950 440 950 z "},"H":{"ha":1090,"x_min":76,"x_max":1017,"o":"m 1013 27 q 861 -2 1013 -2 q 709 26 709 -2 q 724 58 709 43 q 771 114 765 96 q 777 273 777 132 q 746 433 777 414 q 548 452 715 452 q 346 428 380 452 q 326 266 326 414 q 333 99 326 118 q 366 54 340 80 q 391 17 391 27 q 263 -4 391 -4 l 231 -3 l 198 -3 q 76 31 76 -3 q 117 68 76 47 q 168 121 158 89 q 178 458 178 153 q 169 809 178 762 q 130 873 160 857 q 78 913 78 904 q 277 941 78 941 q 392 916 392 941 q 376 886 392 899 q 330 832 336 853 q 323 688 323 811 q 352 547 323 565 q 552 528 381 528 q 745 545 722 528 q 768 651 768 561 l 768 683 l 770 715 q 770 780 770 736 q 749 853 770 825 l 718 884 q 699 914 699 903 q 923 939 699 939 q 1017 912 1017 939 q 990 878 1017 894 q 931 827 938 848 q 924 571 924 806 l 920 202 q 941 86 920 115 q 981 56 949 74 q 1013 27 1013 39 z "},"I":{"ha":513,"x_min":76,"x_max":437,"o":"m 385 942 q 429 920 429 942 q 393 886 429 903 q 346 840 357 868 q 335 615 335 811 l 335 585 l 336 554 l 336 524 l 335 509 q 334 477 334 493 l 333 447 l 332 416 l 332 354 l 333 307 l 334 245 l 336 215 q 336 185 336 199 q 357 81 336 108 q 402 55 368 67 q 437 26 437 43 q 394 -3 437 -3 l 364 -3 l 349 -2 q 318 -1 334 -1 l 288 0 q 257 1 273 1 l 197 -1 q 79 23 79 -1 q 119 60 79 41 q 168 102 159 78 q 186 349 186 151 l 186 380 l 185 425 q 185 456 185 441 l 186 471 q 186 503 186 487 l 188 533 q 189 579 189 549 l 188 610 l 187 625 l 186 671 q 168 841 186 794 q 128 878 157 868 q 76 913 76 897 q 180 941 76 941 l 210 940 l 224 939 l 268 939 l 355 942 l 385 942 z "},"J":{"ha":550,"x_min":-7,"x_max":467,"o":"m 81 -41 l 140 -50 q 254 444 254 -50 l 252 530 l 250 632 q 231 831 250 788 q 184 875 222 852 q 146 914 146 898 q 408 945 146 945 l 424 945 q 467 917 467 945 q 437 886 467 907 q 401 845 407 865 q 395 652 395 826 l 391 374 q 380 126 391 206 q 222 -125 355 -48 q 104 -160 161 -160 q -7 -107 -7 -160 q 17 -60 -7 -79 q 81 -41 40 -41 z "},"K":{"ha":978,"x_min":83,"x_max":932,"o":"m 327 277 q 334 134 327 171 q 367 73 342 97 q 393 29 393 48 q 197 0 393 0 q 83 25 83 0 q 119 66 83 41 q 166 140 155 90 q 177 471 177 189 q 168 801 177 753 q 132 870 159 849 q 83 911 83 908 q 180 947 83 947 l 304 947 q 389 915 389 947 q 369 882 389 909 q 340 807 348 854 q 332 582 332 759 q 364 521 332 521 q 405 546 372 521 q 592 745 484 606 q 652 876 652 822 l 648 909 q 671 937 648 930 q 785 943 693 943 q 878 921 878 943 q 780 838 878 912 q 632 689 731 802 q 532 527 532 576 q 773 189 532 492 q 854 99 824 125 q 932 29 932 34 q 811 -1 932 -1 l 781 -1 q 691 29 721 -1 q 665 78 681 39 q 602 189 649 116 q 386 431 445 431 q 327 277 327 431 z "},"L":{"ha":823,"x_min":78,"x_max":789,"o":"m 117 887 q 97 893 117 887 q 78 923 78 899 q 134 946 78 946 l 174 946 l 195 945 l 255 945 q 404 939 378 945 q 429 913 429 933 q 388 879 429 899 q 340 823 347 859 q 324 441 324 750 q 336 112 324 133 q 473 81 354 81 q 632 100 592 81 q 710 179 671 119 q 764 239 748 239 q 789 197 789 239 q 750 18 789 51 q 524 -1 727 -1 l 464 -1 l 444 -1 l 404 -1 q 78 26 78 -1 q 114 65 78 44 q 161 128 149 86 q 174 395 174 170 l 176 681 q 166 852 176 829 q 117 887 156 874 z "},"M":{"ha":1290,"x_min":80,"x_max":1210,"o":"m 985 917 q 999 925 985 917 q 1095 934 1013 934 q 1177 899 1177 934 l 1162 881 q 1125 834 1132 846 q 1105 726 1105 797 q 1128 146 1105 262 q 1158 87 1135 109 q 1210 37 1210 41 l 1196 28 q 1063 12 1159 12 q 947 35 966 12 l 941 50 l 947 68 q 969 144 956 97 q 983 264 983 192 q 960 722 983 663 l 952 729 q 829 470 943 729 l 729 239 q 696 163 706 183 l 679 125 q 612 55 643 55 q 549 134 587 55 q 423 440 538 157 q 286 724 307 724 l 278 714 q 256 283 256 663 q 276 131 256 219 q 296 41 296 43 l 286 29 q 197 10 262 10 q 105 18 131 10 q 80 47 80 26 q 120 83 80 52 q 168 168 159 114 l 172 206 q 177 287 174 232 l 182 369 q 195 680 195 578 q 178 819 195 781 q 139 866 170 834 q 109 905 109 897 q 217 932 109 932 q 320 905 284 932 q 372 840 337 892 q 497 575 406 787 q 601 332 588 362 l 617 296 l 635 273 q 781 548 650 273 q 934 861 911 823 q 985 917 957 899 z "},"N":{"ha":1080,"x_min":78,"x_max":1015,"o":"m 334 38 q 267 5 334 5 l 175 5 q 78 27 78 5 q 119 68 78 43 q 170 132 160 92 q 188 468 188 203 q 177 785 188 733 q 136 863 167 836 q 87 907 87 906 q 136 937 87 937 q 256 923 216 937 q 330 875 296 908 q 584 545 363 842 q 814 248 805 248 q 836 504 836 248 l 837 569 l 836 635 q 826 819 836 785 q 784 874 817 852 q 751 920 751 897 q 851 940 751 940 l 884 940 q 1015 917 1015 940 q 976 865 1015 895 q 928 777 937 836 q 915 494 915 689 l 915 249 q 916 184 915 216 l 918 119 q 908 33 918 52 q 870 14 899 14 q 754 104 827 14 q 510 445 722 144 q 273 747 298 747 q 260 549 260 747 l 261 382 q 280 129 261 199 q 301 85 286 107 l 314 68 q 334 38 334 43 z "},"O":{"ha":1040,"x_min":67,"x_max":957,"o":"m 494 45 l 517 45 q 720 159 645 45 q 793 452 793 275 l 793 465 q 714 778 793 661 q 503 895 635 895 q 293 782 372 895 q 240 658 261 736 q 218 488 218 581 l 218 476 q 289 178 218 294 q 380 82 325 119 q 494 45 436 45 m 957 468 q 922 274 957 369 q 680 14 852 83 q 518 -19 598 -19 l 487 -19 q 186 112 309 -19 q 101 259 135 166 q 67 441 67 351 l 67 474 q 102 669 67 575 q 330 920 169 850 q 519 958 416 958 l 534 958 q 706 922 624 958 q 932 650 870 852 q 957 484 957 571 l 957 468 z "},"P":{"ha":859,"x_min":78,"x_max":795,"o":"m 319 781 l 319 524 q 333 454 319 467 q 395 442 348 442 l 429 442 q 586 498 525 442 q 646 657 646 555 l 646 665 l 646 672 q 589 828 646 771 q 438 885 532 885 l 425 886 l 392 886 q 331 871 342 886 q 319 781 319 855 m 346 377 q 319 246 319 351 q 330 114 319 141 q 382 67 341 86 q 423 30 423 49 q 334 5 423 5 l 317 6 l 182 5 l 165 5 q 78 31 78 5 q 118 74 78 57 q 165 121 158 92 q 173 461 173 151 q 165 817 173 772 q 129 873 157 861 q 83 907 83 894 q 102 935 83 928 q 239 944 132 944 l 311 947 q 383 949 382 949 l 420 951 l 475 951 q 620 930 557 951 q 774 798 739 890 q 795 678 795 745 q 674 458 795 533 q 419 393 589 406 q 346 377 357 388 z "},"Q":{"ha":1055,"x_min":54,"x_max":1048,"o":"m 198 503 l 198 465 q 278 182 198 296 q 379 88 321 119 q 488 56 437 56 l 510 56 q 635 91 576 57 q 808 460 808 193 l 808 473 q 724 779 808 655 q 633 863 691 829 q 509 897 575 897 l 496 897 q 285 793 365 897 q 220 658 242 739 q 198 503 198 576 m 827 71 q 780 -23 780 -14 q 812 -57 780 -33 q 946 -116 844 -82 q 1048 -158 1048 -151 q 1017 -194 1048 -180 q 916 -208 985 -208 q 692 -140 848 -208 q 238 87 318 22 q 106 258 158 151 q 54 484 54 364 l 54 505 q 85 684 54 597 q 321 932 151 865 q 477 962 397 962 l 498 962 q 681 922 600 962 q 903 669 846 839 q 926 479 926 600 q 827 71 926 251 z "},"R":{"ha":939,"x_min":77,"x_max":894,"o":"m 308 783 l 308 549 q 316 491 308 503 q 365 479 325 479 l 402 479 l 409 480 l 428 481 q 441 481 435 481 q 570 533 514 481 q 627 667 627 585 l 627 696 q 571 831 627 780 q 408 882 515 882 l 389 882 l 382 882 l 370 882 q 352 880 357 880 q 316 863 323 880 q 308 783 308 846 m 77 916 q 168 939 77 939 l 191 939 q 233 940 214 940 q 283 941 252 940 l 330 943 q 425 945 401 945 q 741 800 671 945 q 763 688 763 755 q 659 496 763 578 q 596 433 596 447 q 622 368 596 412 q 773 128 740 169 q 850 70 806 87 q 894 33 894 53 q 872 9 894 22 q 787 -3 851 -3 q 688 33 723 -3 q 589 200 676 46 q 481 374 502 354 q 366 409 444 409 q 326 378 338 409 q 314 241 314 347 q 325 110 314 136 q 368 59 335 84 q 401 25 401 33 q 340 2 401 2 l 203 6 q 77 41 77 6 q 116 74 77 56 q 166 125 156 92 q 177 279 177 158 l 177 424 l 176 448 q 176 494 176 471 l 174 541 q 174 587 174 564 l 170 723 q 156 846 170 814 q 113 880 148 865 q 77 916 77 896 z "},"S":{"ha":780,"x_min":87,"x_max":710,"o":"m 671 783 q 642 718 671 718 q 582 776 614 718 q 503 862 549 834 q 383 890 456 890 q 264 851 310 890 q 219 745 219 813 q 281 625 219 677 q 452 536 320 593 q 647 413 584 479 q 710 240 710 348 q 621 64 710 132 q 396 -5 532 -5 l 371 -5 q 265 8 321 -5 q 175 27 209 21 q 126 39 142 33 q 87 146 87 58 l 87 170 q 128 260 87 260 q 177 199 146 260 q 236 115 208 137 q 398 59 306 59 q 536 101 490 59 q 583 194 583 144 q 568 276 583 245 q 517 337 554 307 q 349 426 479 366 q 169 533 219 485 q 95 714 95 604 q 180 889 95 824 q 389 954 266 954 q 507 941 439 954 q 606 928 574 928 q 654 907 638 928 q 671 783 671 886 z "},"T":{"ha":884,"x_min":35,"x_max":854,"o":"m 258 31 q 303 70 258 47 q 359 147 349 94 q 369 497 369 200 q 358 827 369 793 q 275 861 347 861 q 172 844 204 861 q 119 792 140 826 q 66 723 74 723 q 35 762 35 723 l 35 783 q 66 938 35 922 q 420 944 79 944 l 699 943 q 745 944 722 943 l 789 945 q 836 928 824 945 q 854 789 854 901 q 836 731 854 731 q 782 780 810 731 q 721 846 753 828 q 615 864 688 864 q 529 831 542 864 q 515 484 515 798 q 523 132 515 170 q 555 73 530 93 q 590 53 562 66 q 618 28 618 39 q 572 -1 618 -1 l 527 -1 l 394 1 q 258 31 258 1 z "},"U":{"ha":1034,"x_min":61,"x_max":983,"o":"m 805 584 q 792 807 805 759 q 752 883 779 854 q 726 925 726 912 q 836 943 726 943 q 964 932 946 943 q 983 901 983 922 q 943 865 983 890 q 893 808 903 840 q 884 538 884 776 q 876 246 884 300 q 834 133 869 192 q 727 34 800 75 q 552 -7 653 -7 l 523 -7 q 218 120 311 -7 q 169 229 179 172 q 159 536 159 286 q 144 831 159 787 q 98 873 136 854 q 61 913 61 892 q 184 944 61 944 l 262 944 q 374 916 374 944 q 344 882 374 910 q 307 815 313 854 q 300 595 300 781 q 300 556 300 576 q 300 523 300 539 q 308 277 300 331 q 566 66 336 66 q 774 207 712 66 q 805 571 805 275 q 805 584 805 577 z "},"V":{"ha":966,"x_min":22,"x_max":950,"o":"m 581 121 q 554 59 581 121 q 493 -3 528 -3 q 441 16 458 -3 q 400 90 425 35 q 263 456 376 144 q 128 810 149 768 q 83 866 106 851 q 22 908 22 906 l 22 922 q 174 942 22 942 q 325 918 325 942 q 306 878 325 901 q 287 828 287 854 q 320 710 287 803 q 401 475 354 616 q 525 186 498 186 q 574 287 529 186 q 716 682 620 388 q 749 815 749 781 q 728 875 749 850 l 705 896 q 692 916 692 908 q 836 945 692 945 l 859 945 q 950 913 950 945 q 897 863 950 897 q 842 797 865 842 q 727 498 819 751 q 581 121 635 244 z "},"W":{"ha":1386,"x_min":68,"x_max":1326,"o":"m 142 936 q 272 910 243 936 q 300 798 300 884 q 410 378 300 712 q 471 287 439 287 q 513 322 492 287 q 567 470 534 357 q 600 709 600 583 q 588 774 600 738 l 577 802 l 568 828 q 610 895 568 869 q 696 920 652 920 q 774 901 741 920 q 829 837 829 869 l 827 810 l 819 785 l 815 760 q 872 545 815 730 q 944 324 929 359 q 989 289 959 289 q 1040 368 1015 289 q 1149 771 1149 702 q 1145 829 1149 795 l 1138 877 q 1236 940 1138 940 q 1305 925 1284 940 q 1326 892 1326 911 q 1303 832 1326 873 l 1284 804 q 1246 743 1255 760 l 1232 707 q 1146 442 1215 661 q 1048 157 1078 222 q 992 69 1019 91 q 946 47 966 47 q 860 144 900 47 q 786 369 844 184 q 712 593 728 553 l 700 618 q 613 400 686 618 q 513 127 540 182 q 424 45 474 45 l 402 52 q 349 114 370 70 q 259 389 328 159 q 166 681 190 618 q 105 807 143 744 q 68 885 68 870 q 87 918 68 900 q 142 936 106 936 z "},"X":{"ha":968,"x_min":52,"x_max":920,"o":"m 63 909 q 231 939 63 939 l 317 941 q 382 912 382 941 q 363 884 382 904 q 345 856 345 865 q 451 667 345 823 q 515 599 498 599 q 583 677 525 599 q 685 861 685 813 q 663 890 685 870 q 640 917 640 911 q 740 945 640 945 l 768 945 q 901 917 901 945 q 849 875 901 899 q 761 805 798 851 q 569 509 569 568 q 796 138 569 449 q 853 83 824 100 q 920 32 920 42 q 722 2 920 2 l 667 2 q 609 29 609 2 l 616 42 l 625 56 q 636 91 636 74 q 514 304 636 107 q 450 373 472 373 q 382 292 439 373 q 268 83 268 132 q 291 54 268 72 q 313 31 313 35 q 216 2 313 2 l 187 2 q 52 25 52 2 q 121 80 52 42 q 204 158 158 100 q 406 477 406 412 q 381 527 406 488 q 176 823 254 730 q 107 873 151 854 q 63 909 63 893 z "},"Y":{"ha":909,"x_min":43,"x_max":878,"o":"m 295 18 q 331 64 295 42 q 378 118 366 87 q 389 262 389 149 q 330 486 389 375 q 160 785 197 734 q 83 858 123 837 q 43 902 43 880 q 91 931 43 924 q 256 939 138 939 q 334 909 334 939 q 315 882 334 903 q 297 853 297 861 q 424 579 297 799 q 481 501 469 501 q 626 734 509 501 q 660 846 660 802 q 646 882 660 861 q 633 915 633 903 q 774 946 633 946 l 796 946 q 878 922 878 946 q 831 869 878 899 q 759 803 784 840 q 561 437 644 631 q 530 151 530 364 q 544 88 530 106 q 592 54 559 70 q 626 22 626 39 q 551 -5 626 -5 l 424 -2 q 295 18 295 -2 z "},"Z":{"ha":863,"x_min":74,"x_max":805,"o":"m 74 39 q 326 454 74 92 q 578 843 578 815 q 471 871 578 871 q 219 842 277 871 q 163 775 193 828 q 111 722 134 722 q 81 764 81 722 q 111 928 81 899 q 333 946 128 946 l 414 946 l 469 945 q 523 945 496 945 l 576 943 q 657 943 604 943 q 777 911 777 943 q 527 493 777 880 q 277 83 277 107 q 437 68 277 68 q 659 92 597 68 q 722 151 696 106 q 781 227 764 227 q 805 189 805 227 q 772 24 805 69 q 640 -5 751 -5 l 481 -5 l 192 1 q 93 11 113 1 q 74 39 74 20 z "},"[":{"ha":456,"x_min":116,"x_max":410,"o":"m 410 993 q 338 958 410 969 q 254 912 267 947 q 237 401 237 864 q 245 -96 237 -62 q 270 -137 254 -130 q 334 -151 286 -145 q 394 -161 382 -156 q 405 -189 405 -167 q 330 -215 405 -215 l 227 -215 q 131 -188 146 -215 q 116 -50 116 -160 l 116 35 l 117 51 q 117 85 117 68 l 118 135 q 118 186 118 161 l 119 203 q 119 237 119 220 l 120 340 q 120 391 120 366 l 121 408 q 121 442 121 425 q 132 987 121 960 q 171 1018 143 1015 q 307 1022 198 1022 l 358 1023 q 410 993 410 1023 z "},"\\":{"ha":566,"x_min":30,"x_max":536,"o":"m 68 993 q 136 919 103 993 q 289 531 194 786 q 460 85 383 277 q 536 -113 536 -106 q 497 -134 536 -134 q 416 -25 463 -134 q 320 222 412 -16 q 218 484 227 460 l 171 605 q 83 834 136 702 q 30 972 30 966 q 68 993 30 993 z "},"]":{"ha":458,"x_min":51,"x_max":342,"o":"m 57 998 q 114 1023 57 1023 l 164 1023 l 180 1022 q 322 1002 302 1022 q 342 857 342 982 l 342 790 l 341 773 l 340 689 q 340 637 340 663 l 339 621 q 339 587 339 604 l 338 484 l 338 433 l 337 399 q 337 121 337 399 q 329 -170 337 -140 q 299 -208 321 -201 q 167 -215 276 -215 l 84 -215 q 51 -197 51 -215 l 51 -184 q 117 -151 51 -159 q 196 -127 184 -142 q 221 37 221 -99 l 222 53 q 222 91 222 69 l 222 290 l 223 307 q 223 341 223 324 l 224 393 l 224 444 q 208 920 224 878 q 127 957 197 948 q 57 998 57 966 z "},"^":{"ha":713,"x_min":87,"x_max":628,"o":"m 359 806 q 254 657 358 806 q 125 507 151 507 q 87 526 87 507 q 306 884 87 549 q 360 926 334 926 l 369 926 q 460 814 393 926 q 628 529 628 534 q 583 509 628 509 q 460 658 553 509 q 359 806 368 806 z "},"_":{"ha":733,"x_min":33,"x_max":698,"o":"m 698 -97 l 698 -119 q 686 -151 698 -147 q 361 -154 673 -154 l 170 -154 l 147 -155 l 81 -155 q 33 -126 33 -155 l 33 -119 q 46 -80 33 -83 q 370 -77 58 -77 l 600 -76 l 650 -76 q 698 -97 698 -76 z "},"`":{"ha":484,"x_min":88,"x_max":346,"o":"m 88 960 l 88 966 q 139 1004 88 1004 l 154 1004 q 219 966 189 1004 q 346 781 346 803 l 346 774 q 326 758 346 758 l 315 758 q 190 848 292 758 q 88 960 88 938 z "},"a":{"ha":712,"x_min":57,"x_max":660,"o":"m 382 313 q 239 271 294 313 q 184 178 184 228 l 184 155 q 185 141 185 146 q 214 86 185 109 q 271 64 243 64 l 293 64 q 394 103 338 64 q 435 175 435 132 q 436 187 436 183 l 437 205 l 437 226 l 438 239 l 438 286 q 420 315 438 315 l 404 315 q 382 313 391 313 m 324 661 l 341 661 q 535 574 483 661 q 567 329 567 522 q 572 118 567 136 q 611 77 581 87 q 660 54 660 60 l 660 44 q 629 12 660 31 q 536 -6 597 -6 q 473 25 501 -6 q 435 56 444 56 q 360 21 435 56 q 243 -14 286 -14 l 211 -14 q 101 32 146 -14 q 57 132 57 78 l 57 149 q 121 286 57 234 q 248 344 165 321 q 323 360 258 347 q 402 381 388 374 q 439 461 439 399 q 406 558 439 522 q 315 593 373 593 q 215 530 258 593 q 126 467 172 467 q 100 482 116 467 q 85 529 85 497 q 138 610 85 578 q 324 661 224 661 z "},"b":{"ha":779,"x_min":31,"x_max":711,"o":"m 242 243 q 267 96 242 127 q 388 49 305 49 l 410 49 q 472 68 436 49 q 529 125 507 88 q 574 311 574 201 l 574 319 l 573 327 q 528 514 573 444 q 408 583 483 583 l 401 583 q 318 561 359 583 q 260 507 277 538 q 243 296 243 476 l 242 273 l 242 243 m 157 15 q 104 84 104 15 q 111 137 104 92 q 118 286 118 182 l 118 496 l 119 530 l 119 648 l 118 681 l 118 714 l 117 764 q 116 820 116 780 q 102 886 116 860 q 63 913 96 899 q 31 943 31 928 q 47 966 31 958 q 179 987 87 987 q 235 946 224 987 q 242 756 242 917 q 269 595 242 595 q 337 618 273 595 q 458 641 400 641 q 641 552 572 641 q 711 339 711 463 l 711 321 q 688 186 711 250 q 538 18 644 64 q 415 -9 478 -9 l 399 -9 q 311 7 368 -9 q 211 22 254 22 q 157 15 163 15 z "},"c":{"ha":660,"x_min":58,"x_max":602,"o":"m 602 545 q 582 477 601 498 q 551 463 568 463 q 536 465 544 463 q 488 513 509 474 q 361 593 443 593 q 236 517 279 593 q 192 323 192 442 q 248 134 192 204 q 407 63 303 63 q 532 104 468 63 q 586 128 570 128 q 602 115 602 128 l 602 104 q 531 29 602 70 q 386 -12 460 -12 l 370 -12 q 142 77 225 -12 q 58 311 58 167 q 138 549 58 455 q 244 627 179 597 q 379 656 309 656 l 395 656 q 562 616 498 656 q 602 545 602 592 z "},"d":{"ha":798,"x_min":61,"x_max":730,"o":"m 349 60 l 370 60 q 438 79 401 60 q 496 128 475 98 q 516 291 516 158 l 516 432 q 494 541 516 515 q 376 591 450 591 l 362 591 q 239 528 290 591 q 187 359 187 465 l 186 343 l 186 302 q 231 130 186 199 q 349 60 277 60 m 520 661 q 524 766 524 671 q 512 882 524 861 q 470 918 500 904 q 439 949 439 932 q 448 965 439 958 q 577 991 482 991 l 593 991 q 648 941 640 991 q 648 546 648 937 q 654 125 648 155 q 682 79 659 95 q 730 43 730 45 q 715 17 730 26 q 626 -5 678 -5 q 560 6 573 -5 q 534 36 547 17 q 519 55 522 55 q 480 37 510 55 q 412 3 450 19 q 318 -12 375 -12 l 301 -12 q 209 12 258 -12 q 83 159 119 56 q 61 300 61 225 q 148 553 61 458 q 387 648 235 648 l 403 646 l 434 642 q 477 638 471 638 q 520 661 513 638 z "},"e":{"ha":688,"x_min":52,"x_max":620,"o":"m 240 385 l 258 385 l 387 393 q 422 397 411 397 q 484 414 467 397 q 492 450 492 422 q 454 556 492 514 q 363 599 416 599 l 350 599 q 241 546 289 599 q 193 427 193 493 l 192 418 l 192 414 q 220 387 192 387 q 240 385 234 385 m 188 271 q 248 122 188 176 q 407 68 309 68 q 514 98 448 68 q 583 129 581 129 q 606 106 606 129 q 512 18 606 64 q 374 -13 448 -13 l 359 -13 q 134 77 215 -13 q 52 311 52 167 l 52 327 q 52 330 52 328 q 76 450 52 390 q 235 629 126 580 q 361 659 304 659 l 391 659 q 545 602 479 659 q 600 525 581 572 q 620 442 620 478 l 620 428 q 578 359 620 376 q 400 338 553 349 q 229 321 248 327 q 188 271 188 310 z "},"f":{"ha":500,"x_min":68,"x_max":562,"o":"m 300 -18 l 281 -18 l 264 -18 q 68 12 68 -18 q 104 45 68 26 q 148 100 140 65 q 156 312 156 134 q 148 515 156 490 q 115 560 140 540 q 90 594 90 581 q 114 642 90 608 q 149 713 138 676 q 227 906 193 861 q 432 1000 297 1000 q 528 977 493 1000 q 562 925 562 954 q 547 878 562 897 q 506 858 532 858 q 442 888 480 858 q 368 918 404 918 q 311 864 333 918 q 290 753 290 810 q 317 671 290 696 q 373 641 323 666 q 423 600 423 615 q 369 568 423 584 q 303 526 315 551 q 284 305 284 488 q 294 93 284 122 q 342 42 303 64 q 381 5 381 20 q 300 -18 381 -18 z "},"g":{"ha":736,"x_min":56,"x_max":688,"o":"m 465 418 l 464 446 q 419 578 464 518 q 342 621 387 621 l 319 621 q 242 572 278 621 q 205 452 205 524 l 205 422 l 206 416 q 235 309 206 354 q 326 264 264 264 l 342 264 q 427 297 391 264 q 464 380 464 331 l 465 385 l 465 391 l 466 412 l 465 418 m 274 19 q 194 -7 222 19 q 149 -100 149 -48 l 149 -112 l 150 -117 q 198 -206 150 -169 q 325 -243 247 -243 l 362 -243 q 381 -242 376 -242 q 516 -196 461 -242 q 571 -96 571 -149 l 571 -90 q 534 -18 571 -45 q 437 9 498 9 q 401 12 413 12 l 389 14 l 315 18 l 309 18 l 286 19 l 274 19 m 405 659 q 433 658 424 658 q 497 656 443 658 l 515 655 l 549 653 q 585 654 560 653 l 620 656 q 688 627 688 656 q 634 582 688 589 q 581 545 581 574 l 584 530 l 594 495 q 602 422 602 464 q 579 342 602 384 q 334 212 516 220 q 240 200 257 208 q 208 151 208 184 q 268 104 208 117 q 407 92 284 100 q 578 62 529 84 q 670 -82 670 20 q 574 -250 670 -184 q 343 -315 476 -315 q 84 -229 150 -315 q 56 -143 56 -192 q 103 -41 56 -94 q 150 22 150 11 l 146 34 l 122 60 q 104 115 104 84 q 134 186 104 145 q 163 241 163 228 q 146 278 164 254 q 90 433 90 357 q 113 524 90 479 q 386 659 181 659 l 405 659 z "},"h":{"ha":825,"x_min":62,"x_max":765,"o":"m 74 35 q 104 78 74 47 q 140 146 134 108 q 146 484 146 185 q 134 865 146 783 q 111 916 129 903 q 62 952 62 949 q 95 980 62 964 q 200 996 127 996 q 260 962 248 996 q 270 852 270 938 l 268 777 q 266 676 266 702 q 288 596 266 596 q 366 625 292 596 q 491 653 439 653 q 650 574 601 653 q 689 332 689 509 l 688 281 l 688 256 l 687 180 q 697 95 687 113 q 736 57 707 78 q 765 28 765 37 q 667 2 765 2 l 644 1 l 572 -2 q 511 21 511 -2 q 533 59 511 32 q 559 97 555 86 q 564 203 564 107 l 563 252 l 564 329 q 536 528 564 482 q 452 573 509 573 q 350 548 395 573 q 289 484 305 522 q 273 281 273 446 q 281 98 273 116 q 315 59 290 81 q 340 31 340 38 q 207 2 340 2 q 74 35 74 2 z "},"i":{"ha":426,"x_min":59,"x_max":370,"o":"m 125 865 l 125 884 q 126 900 126 890 q 149 933 126 911 q 194 956 171 956 l 208 958 l 218 958 q 270 938 246 958 q 294 893 294 918 l 296 877 l 296 871 l 294 855 q 269 814 294 835 q 224 794 244 794 l 208 792 l 205 792 l 202 793 l 197 793 q 189 794 191 794 q 147 816 169 794 q 125 865 125 838 m 110 -5 q 65 22 65 -5 q 100 56 65 40 q 144 102 136 72 q 153 313 153 132 l 153 334 l 153 355 l 154 376 l 154 418 l 152 481 q 140 549 152 535 q 94 573 128 564 q 59 600 59 583 q 74 623 59 614 q 229 652 121 652 q 275 624 269 652 q 279 366 279 610 q 286 95 279 121 q 332 54 294 69 q 370 26 370 39 l 370 19 q 311 -1 370 -1 q 281 -2 291 -2 l 251 -3 l 221 -3 l 151 -5 l 110 -5 z "},"j":{"ha":397,"x_min":-34,"x_max":300,"o":"m 129 869 l 129 886 q 157 941 129 920 q 214 961 186 961 l 220 961 q 240 959 228 959 q 275 940 252 959 q 298 897 298 920 l 300 880 l 300 878 q 276 821 300 846 q 214 797 252 797 l 209 797 q 152 820 174 797 q 129 869 129 842 m 286 531 l 286 292 q 257 -121 286 -48 q 169 -241 228 -195 q 34 -288 109 -288 l 23 -288 q -34 -244 -34 -288 q 2 -194 -34 -212 q 56 -187 16 -187 q 114 -166 95 -187 q 146 -85 134 -146 q 159 229 159 -24 q 151 518 159 483 q 117 568 144 553 q 66 605 66 597 q 77 627 66 620 q 224 654 118 654 l 237 654 q 277 633 269 654 q 286 531 286 612 z "},"k":{"ha":772,"x_min":57,"x_max":732,"o":"m 480 618 q 553 643 480 643 q 686 620 686 643 q 624 566 686 606 q 503 465 561 527 q 444 367 444 403 q 498 286 444 349 q 595 165 552 223 q 666 87 637 107 q 732 30 732 41 q 647 4 732 4 l 623 4 q 515 30 543 4 q 499 61 510 35 q 395 235 463 151 q 319 290 351 290 q 293 265 309 290 q 277 178 277 239 q 301 77 277 117 q 326 31 326 37 q 142 7 326 7 q 75 27 75 7 q 92 58 75 34 q 134 315 134 116 l 138 471 q 139 523 139 497 l 140 575 q 140 628 140 602 l 139 707 l 136 808 q 126 893 136 876 q 86 925 115 909 q 57 952 57 941 q 78 973 57 964 q 220 998 132 998 q 271 948 259 998 q 278 801 278 921 l 276 673 l 275 648 q 275 596 275 622 l 273 544 l 273 494 q 303 398 273 398 q 409 474 332 398 q 485 585 485 551 q 480 618 480 613 z "},"l":{"ha":415,"x_min":54,"x_max":369,"o":"m 131 109 q 142 507 142 178 q 135 871 142 836 q 98 920 128 906 q 54 952 54 939 q 71 975 54 966 q 231 1001 125 1001 q 277 960 271 1001 q 278 772 278 950 l 277 730 l 277 674 l 276 618 l 276 562 q 281 122 276 159 q 315 66 286 84 q 369 27 369 32 q 274 3 369 3 l 247 1 l 123 -1 l 94 -1 q 58 18 58 -1 q 92 54 58 34 q 131 109 125 73 z "},"m":{"ha":1220,"x_min":79,"x_max":1166,"o":"m 552 118 q 554 130 552 118 q 556 301 556 142 q 538 506 556 460 q 455 566 515 566 q 348 531 394 566 q 288 452 302 496 q 273 141 273 408 q 296 66 273 99 q 319 24 319 34 q 228 5 319 5 q 97 20 136 5 q 79 45 79 28 q 103 75 79 50 q 136 122 127 100 q 146 237 146 145 l 145 269 l 142 333 q 141 446 141 374 q 134 534 141 518 q 105 571 126 550 q 83 604 83 593 l 93 618 q 189 642 121 642 q 256 611 229 642 q 294 581 282 581 l 314 591 l 365 623 q 487 659 429 659 q 574 645 544 659 q 640 601 604 631 q 690 571 675 571 l 713 583 l 738 600 q 822 642 786 630 q 909 654 859 654 q 999 630 960 654 q 1060 564 1039 606 q 1093 245 1093 499 q 1099 115 1093 138 q 1136 67 1105 93 q 1166 31 1166 42 q 989 3 1166 3 q 928 20 928 3 q 946 62 928 28 q 964 142 964 96 q 943 488 964 436 q 888 557 923 540 q 828 567 866 567 q 750 539 790 567 q 699 473 711 512 q 688 272 688 435 q 699 90 688 109 q 731 64 702 83 q 760 25 760 44 q 560 -1 760 -1 q 485 19 485 -1 q 505 56 485 39 q 552 118 548 93 z "},"n":{"ha":836,"x_min":63,"x_max":793,"o":"m 337 30 q 250 5 337 5 l 187 7 q 126 7 167 7 q 63 40 63 7 q 97 67 63 51 q 140 103 132 83 q 149 212 149 123 l 149 331 l 147 373 l 147 450 q 139 530 147 505 q 102 571 132 555 q 72 593 72 587 q 94 624 72 614 q 212 644 137 644 q 265 614 251 644 q 291 567 288 567 q 320 586 293 567 q 490 654 414 654 l 511 654 q 681 549 632 654 q 705 238 705 496 q 714 94 705 112 q 759 60 724 77 q 793 32 793 44 q 608 3 793 3 l 587 3 q 528 22 528 3 q 549 60 528 40 q 574 91 570 79 q 578 146 578 102 q 578 212 578 191 l 576 254 l 576 341 q 548 529 576 481 q 447 576 520 576 q 370 555 410 576 q 304 498 329 534 q 279 319 279 463 l 275 192 q 284 102 275 127 q 315 58 294 77 q 337 30 337 38 z "},"o":{"ha":754,"x_min":56,"x_max":688,"o":"m 372 602 l 357 602 q 233 523 284 602 q 193 338 193 461 l 193 330 l 194 321 q 294 68 194 134 q 375 45 330 45 l 382 45 q 499 114 455 45 q 543 292 543 182 l 543 334 q 495 527 543 452 q 372 602 446 602 m 688 345 l 688 311 q 662 183 688 248 q 490 9 612 56 q 377 -14 431 -14 l 366 -14 l 355 -14 q 141 73 227 -14 q 79 178 102 112 q 56 301 56 243 l 56 334 q 82 463 56 398 q 147 569 107 527 q 247 635 186 610 q 363 660 307 660 l 397 660 q 601 573 514 660 q 663 473 638 536 q 688 345 688 410 z "},"p":{"ha":804,"x_min":55,"x_max":728,"o":"m 262 260 q 285 105 262 135 q 404 54 323 54 l 418 54 l 425 55 q 427 55 427 55 q 494 75 460 55 q 593 326 593 133 l 592 334 q 549 516 592 444 q 434 589 507 589 l 420 589 q 337 564 377 589 q 280 506 297 540 q 263 304 263 472 l 262 282 l 262 260 m 271 -15 q 265 -27 271 -15 q 260 -112 260 -39 q 272 -206 260 -185 q 317 -248 285 -227 q 349 -282 349 -269 q 243 -309 349 -309 l 208 -309 q 55 -277 55 -309 q 86 -242 55 -267 q 125 -185 118 -218 q 140 193 140 -109 q 131 525 140 494 q 90 576 122 555 q 57 611 57 597 q 68 626 57 618 q 191 652 105 652 q 231 639 218 652 q 252 609 243 626 q 270 591 262 591 q 302 608 274 591 q 373 644 331 625 q 467 663 414 663 l 485 663 q 572 643 525 662 q 703 497 664 605 q 728 372 728 431 l 728 334 q 701 197 728 264 q 534 22 650 68 q 414 1 481 1 l 305 9 q 271 -15 281 9 z "},"q":{"ha":787,"x_min":59,"x_max":732,"o":"m 193 344 l 193 318 q 240 132 193 203 q 363 61 288 61 l 370 61 q 490 113 439 61 q 519 212 519 142 l 519 286 l 519 293 q 519 308 519 300 l 518 315 l 518 331 q 504 535 518 505 q 455 585 489 566 q 382 604 420 604 l 368 604 q 295 583 331 604 q 235 521 259 562 q 193 344 193 450 m 553 622 l 626 640 q 677 569 677 640 q 667 498 677 555 q 657 380 657 442 l 656 328 l 656 190 l 656 155 l 656 121 l 655 86 l 655 16 l 658 -122 q 668 -210 658 -191 q 705 -247 679 -229 q 732 -276 732 -265 l 732 -286 q 559 -311 732 -311 l 526 -311 q 437 -290 437 -311 q 468 -253 437 -275 q 512 -197 500 -231 q 524 -59 524 -163 q 498 45 524 45 q 434 23 491 45 q 320 1 376 1 q 212 26 264 1 q 125 96 161 51 q 59 304 59 182 l 59 340 q 83 464 59 399 q 248 635 127 587 q 358 656 302 656 q 479 639 414 656 q 553 622 544 622 z "},"r":{"ha":595,"x_min":65,"x_max":565,"o":"m 352 67 q 370 58 352 67 q 389 24 389 48 q 288 -1 389 -1 l 216 -1 l 188 1 l 146 1 q 65 29 65 1 q 98 62 65 43 q 141 111 130 81 q 151 312 151 140 q 141 518 151 483 q 100 571 131 553 q 69 604 69 589 q 79 618 69 610 q 219 647 119 647 q 274 617 260 647 q 303 568 298 568 q 341 586 318 568 q 492 644 414 644 q 543 621 520 644 q 565 568 565 597 q 549 521 565 538 q 511 504 534 504 q 459 523 488 504 q 404 542 430 542 q 307 453 344 542 q 286 271 286 399 q 300 115 286 144 q 352 67 315 86 z "},"s":{"ha":606,"x_min":65,"x_max":547,"o":"m 547 185 l 547 167 q 529 97 547 134 q 475 36 511 61 q 310 -12 408 -12 l 292 -12 q 97 24 164 -12 q 65 105 65 41 l 65 121 q 102 191 65 191 q 149 143 120 191 q 197 79 177 96 q 304 47 238 47 q 400 75 370 47 q 431 146 431 104 q 389 221 431 189 q 263 284 363 241 q 121 369 162 327 q 80 485 80 412 q 143 608 80 558 q 303 659 206 659 l 321 659 q 497 627 448 659 q 519 557 519 612 q 479 477 519 477 q 439 519 466 477 q 385 580 413 560 q 303 600 357 600 q 221 575 250 600 q 191 509 191 551 q 239 434 191 467 q 356 379 266 416 q 490 304 447 342 q 547 185 547 255 z "},"t":{"ha":504,"x_min":56,"x_max":465,"o":"m 56 606 q 90 640 56 621 q 134 673 124 659 q 169 756 144 687 q 221 825 193 825 q 258 804 248 825 q 268 748 262 793 q 290 685 274 703 q 368 652 307 666 q 430 613 430 637 q 363 577 430 588 q 284 547 296 567 q 262 336 262 509 q 281 120 262 163 q 338 77 300 77 q 398 89 360 77 q 443 100 435 100 q 465 74 465 100 q 393 9 465 41 q 306 -9 352 -9 q 223 12 260 -9 q 165 71 185 33 q 136 303 136 125 l 136 359 l 135 414 q 122 532 135 500 q 92 574 109 564 q 56 606 56 597 z "},"u":{"ha":816,"x_min":38,"x_max":762,"o":"m 762 35 q 739 11 762 25 q 659 -4 715 -4 q 588 7 604 -4 q 561 46 572 18 q 541 75 550 75 q 502 53 532 75 q 336 -12 413 -12 q 334 -12 335 -12 l 314 -12 q 152 82 201 -12 q 126 333 126 131 q 118 552 126 535 q 74 582 109 570 q 38 614 38 594 l 45 625 q 193 650 74 650 q 249 606 241 650 q 261 357 261 538 q 279 138 261 176 q 382 72 310 72 q 465 93 422 72 q 529 151 508 115 q 549 354 549 188 q 543 545 549 521 q 512 587 537 568 q 486 621 486 605 q 629 648 486 648 q 675 635 663 648 q 687 587 687 623 l 686 567 l 684 528 l 680 346 q 690 122 680 160 q 731 68 699 85 q 762 35 762 52 z "},"v":{"ha":743,"x_min":20,"x_max":726,"o":"m 284 618 q 269 594 284 608 q 253 561 253 580 q 308 380 253 543 q 379 185 363 218 q 406 151 394 151 q 440 213 411 151 q 553 539 553 451 q 530 588 553 562 q 506 623 506 615 q 627 647 506 647 l 644 647 q 726 621 726 647 q 690 578 726 600 q 640 529 654 555 q 555 323 634 518 q 442 60 477 129 q 369 -8 407 -8 q 296 65 332 -8 q 204 299 260 138 q 113 526 148 460 q 57 582 94 562 q 20 621 20 602 q 171 646 20 646 l 236 644 q 284 618 284 644 z "},"w":{"ha":1093,"x_min":55,"x_max":1041,"o":"m 978 643 q 1041 621 1041 643 l 1041 609 q 1016 566 1041 608 q 973 482 991 524 q 900 270 955 440 q 820 56 844 100 q 754 13 795 13 q 697 66 726 13 q 614 261 668 120 q 547 401 560 401 q 474 249 540 401 q 396 72 409 96 q 338 19 367 19 q 267 91 300 19 q 227 198 248 132 q 77 560 153 439 q 55 606 55 595 q 137 645 55 645 q 242 630 220 645 q 264 575 264 615 l 264 557 l 262 538 q 309 328 262 458 q 383 198 355 198 q 439 296 406 198 q 473 460 473 394 q 466 518 473 482 q 458 570 458 554 q 487 609 458 585 q 566 632 515 632 q 650 593 616 632 q 667 536 667 573 l 665 516 l 665 496 q 732 266 665 444 q 777 206 754 206 q 849 330 806 206 q 892 525 892 454 l 876 596 q 978 643 876 643 z "},"x":{"ha":749,"x_min":37,"x_max":713,"o":"m 49 614 q 221 646 49 646 l 263 646 q 310 623 310 646 q 300 603 310 615 q 291 582 291 590 q 340 492 291 559 q 397 425 390 425 q 448 466 415 425 q 511 575 511 544 q 501 597 511 582 q 490 618 490 612 q 594 644 490 644 q 699 615 699 644 q 655 578 699 597 q 585 528 611 558 q 456 338 456 380 q 608 118 456 296 q 675 61 636 84 q 713 27 713 38 q 535 1 713 1 q 445 24 445 1 q 456 41 445 28 q 468 62 468 54 q 414 158 468 83 q 352 233 359 233 q 282 168 334 233 q 230 66 230 102 q 242 42 230 60 q 254 23 254 24 q 174 -3 254 -3 l 153 -3 q 37 24 37 -3 q 79 62 37 42 q 146 113 120 83 q 292 319 292 275 q 154 525 292 363 q 86 582 123 561 q 49 614 49 603 z "},"y":{"ha":749,"x_min":60,"x_max":707,"o":"m 60 595 q 213 638 60 638 q 273 614 273 638 q 263 590 273 608 q 254 564 254 572 q 374 216 254 518 q 408 165 394 165 q 448 230 416 165 q 513 402 479 295 q 547 539 547 509 q 524 594 547 569 q 501 629 501 619 q 581 648 501 648 l 625 648 q 707 621 707 648 q 675 573 707 607 q 633 515 644 538 q 575 360 622 491 q 514 192 528 229 q 381 -117 437 -19 q 180 -297 279 -297 q 119 -280 143 -297 q 95 -245 95 -262 q 140 -195 95 -195 l 219 -205 q 300 -135 261 -205 q 338 0 338 -65 q 211 306 338 32 q 166 408 184 365 q 137 473 148 450 q 93 539 126 496 q 60 595 60 582 z "},"z":{"ha":667,"x_min":66,"x_max":610,"o":"m 130 1 q 66 29 66 1 q 244 308 66 57 q 422 568 422 559 q 324 585 422 585 q 197 571 226 585 q 141 515 169 557 q 98 473 114 473 q 73 538 73 473 q 90 632 73 604 q 126 649 100 649 l 144 648 l 237 646 l 256 645 q 294 644 275 644 l 371 643 l 447 643 q 547 645 504 645 q 589 618 589 645 q 411 339 589 588 q 233 71 233 91 q 341 62 233 62 q 484 79 450 62 q 543 139 517 97 q 585 182 568 182 q 610 146 610 182 l 610 128 q 595 24 610 63 q 544 -2 584 -2 l 526 -2 l 507 -1 q 470 -1 489 -1 l 338 3 q 300 3 319 3 l 243 3 l 205 3 l 186 2 l 130 1 z "},"{":{"ha":495,"x_min":53,"x_max":436,"o":"m 53 408 q 102 445 53 419 q 169 504 151 471 q 186 642 186 537 l 184 711 q 182 779 182 745 q 229 963 182 907 q 294 1007 252 991 q 387 1024 337 1024 q 436 1005 436 1024 q 386 961 436 986 q 319 910 336 937 q 302 773 302 883 l 307 637 q 240 445 307 502 q 208 422 231 437 q 185 404 185 408 q 205 391 185 403 q 280 318 256 361 q 304 164 304 274 l 298 12 q 319 -106 298 -77 q 385 -154 340 -134 q 430 -189 430 -173 q 395 -216 430 -216 q 229 -161 279 -216 q 180 37 180 -107 l 184 208 q 165 315 184 282 q 99 368 145 348 q 53 408 53 389 z "},"|":{"ha":363,"x_min":138,"x_max":229,"o":"m 138 -172 l 138 94 l 139 107 l 139 241 l 140 254 l 140 402 q 143 1003 140 979 q 175 1027 146 1027 l 188 1027 q 222 1019 215 1027 q 229 944 229 1010 l 229 930 l 228 918 l 228 864 l 227 838 l 227 703 l 227 663 q 227 176 227 663 q 223 -203 227 -176 q 191 -229 219 -229 l 178 -229 q 145 -221 152 -229 q 138 -172 138 -213 z "},"}":{"ha":501,"x_min":62,"x_max":439,"o":"m 113 962 q 90 972 113 962 q 66 1003 66 981 q 113 1024 66 1024 q 202 1009 159 1024 q 268 964 244 994 q 313 780 313 908 l 307 610 q 327 494 307 524 q 378 448 347 464 q 439 410 439 418 q 391 364 439 387 q 325 303 342 342 q 307 142 307 264 l 309 22 q 260 -159 309 -103 q 98 -215 211 -215 q 62 -191 62 -215 q 113 -152 62 -176 q 180 -96 164 -127 q 195 43 195 -65 l 193 93 q 192 193 192 126 q 273 377 192 322 l 287 386 q 310 401 310 399 q 274 429 310 403 q 215 495 238 454 q 193 634 193 536 l 200 821 q 180 918 200 893 q 113 962 159 943 z "},"~":{"ha":764,"x_min":76,"x_max":694,"o":"m 534 369 l 512 369 q 371 412 457 369 q 233 455 285 455 q 135 402 180 455 q 102 380 115 380 q 76 410 76 380 q 132 504 76 458 q 243 550 187 550 l 265 550 q 400 507 310 550 q 532 464 490 464 q 609 490 574 464 q 675 536 669 536 q 694 513 694 536 l 694 507 q 642 416 694 463 q 534 369 589 369 z "},"":{"ha":352,"x_min":0,"x_max":0,"o":""},"":{"ha":406,"x_min":110,"x_max":289,"o":"m 210 782 q 264 758 240 782 q 289 706 289 733 l 289 699 q 262 646 289 665 q 208 627 235 627 l 201 627 l 199 627 l 193 627 q 184 629 187 629 q 135 653 159 629 q 111 694 111 677 l 110 699 l 110 714 q 112 730 112 722 q 133 759 112 738 q 177 780 154 780 l 191 782 l 210 782 m 231 389 q 232 369 232 373 q 233 349 232 364 l 238 292 q 243 220 243 227 l 246 189 q 248 157 248 165 l 250 133 q 254 77 254 92 q 256 49 255 61 q 256 29 256 37 l 260 -47 q 260 -62 260 -55 l 260 -84 l 260 -98 q 249 -169 260 -150 q 200 -187 237 -187 l 187 -187 q 149 -170 160 -187 q 138 -106 138 -153 l 138 -62 l 139 -54 l 139 -39 l 140 -1 l 141 7 l 143 54 q 144 71 144 62 l 145 87 q 146 103 146 95 l 148 127 q 149 151 149 144 l 151 176 q 153 208 153 200 l 172 437 q 193 501 172 501 l 205 501 q 227 445 227 501 q 229 413 229 420 l 231 389 z "},"":{"ha":688,"x_min":86,"x_max":574,"o":"m 361 618 q 355 625 361 625 l 351 625 q 243 521 305 625 q 204 359 204 456 l 204 345 q 241 220 204 294 q 329 107 298 107 l 332 107 q 336 135 336 107 l 332 175 q 328 219 332 189 q 323 304 323 250 l 324 344 l 326 384 l 330 435 q 345 516 330 452 q 359 599 359 579 l 361 614 l 361 618 m 333 -91 q 314 -52 323 -91 q 298 -5 304 -14 q 227 54 292 3 q 86 337 86 165 q 86 338 86 338 l 86 355 q 149 552 86 467 q 218 620 183 599 q 284 655 252 642 q 333 685 315 669 q 362 746 350 702 q 393 790 374 790 l 404 790 q 436 749 415 790 q 490 682 456 709 q 569 563 569 620 q 528 507 569 507 q 487 548 510 507 q 437 589 464 589 q 401 520 411 589 q 384 276 384 394 q 389 143 384 159 q 430 113 399 113 q 503 133 461 113 q 559 152 545 152 q 574 141 574 152 q 491 59 574 107 q 397 -4 408 11 q 333 -91 334 -91 z "},"":{"ha":793,"x_min":85,"x_max":713,"o":"m 369 911 q 401 928 369 911 q 521 945 433 945 q 651 918 609 945 q 693 810 693 890 q 657 759 693 759 q 618 781 635 759 q 569 840 574 836 q 487 859 541 859 q 392 805 434 859 q 350 662 350 751 q 370 541 350 572 q 452 494 390 509 q 513 450 513 480 q 451 412 513 433 q 370 358 389 391 q 336 244 360 340 q 312 141 312 147 q 351 90 312 104 q 464 76 389 76 q 575 96 539 76 q 634 148 611 117 q 682 179 657 179 q 713 128 713 179 q 673 13 713 52 q 528 -26 632 -26 l 505 -26 q 391 -16 481 -26 q 268 -6 300 -6 q 213 -8 236 -6 l 191 -11 q 150 -15 158 -15 q 85 13 85 -15 q 130 88 85 41 q 186 171 174 136 q 198 276 198 206 q 189 367 198 346 q 149 407 180 387 q 118 445 118 427 q 141 482 118 463 q 173 518 164 501 q 199 646 181 534 q 269 829 216 758 q 369 911 304 876 z "},"":{"ha":766,"x_min":97,"x_max":674,"o":"m 564 456 l 564 474 q 510 593 564 547 q 399 639 456 639 l 393 639 l 387 638 q 269 593 317 638 q 207 449 207 536 l 207 443 l 208 437 q 252 321 208 374 q 363 269 296 269 l 389 269 q 514 328 464 269 q 564 456 564 387 m 536 669 q 587 702 551 669 q 633 734 623 734 q 659 716 644 734 q 674 686 674 699 q 636 636 674 674 q 598 586 598 598 q 612 532 598 573 q 625 452 625 492 q 606 350 625 412 q 586 281 586 288 q 626 236 586 273 q 667 186 667 198 q 651 159 667 175 q 625 143 636 143 q 574 178 613 143 q 522 213 536 213 q 466 192 521 213 q 374 170 411 170 q 290 186 337 170 q 232 203 242 203 q 184 169 222 203 q 135 135 146 135 q 111 151 125 135 q 97 183 97 166 q 133 227 97 187 q 169 284 169 267 q 158 315 169 287 q 141 365 146 342 q 136 444 136 387 q 160 550 136 501 q 170 584 170 570 q 134 637 170 597 q 98 687 98 676 q 116 716 98 699 q 145 733 133 733 q 186 701 157 733 q 234 668 215 668 q 270 680 241 668 q 323 698 299 691 q 387 705 347 705 q 480 687 427 705 q 536 669 532 669 z "},"":{"ha":911,"x_min":69,"x_max":852,"o":"m 612 524 q 641 466 612 499 q 669 421 669 432 q 618 390 669 410 q 566 342 566 370 q 629 302 566 315 q 692 269 692 288 q 630 234 692 250 q 556 203 568 217 q 545 149 545 190 q 568 81 545 108 q 597 60 570 78 q 623 29 623 41 q 548 0 623 0 l 518 0 l 490 1 l 433 1 q 290 23 290 1 q 333 67 290 44 q 376 133 376 90 q 359 198 376 176 q 287 236 342 220 q 231 269 231 252 q 288 303 231 286 q 345 339 345 319 q 297 392 345 370 q 249 431 249 414 q 272 468 249 441 q 294 537 294 496 q 238 669 294 578 q 154 792 181 761 q 98 850 127 823 q 69 884 69 877 q 102 915 69 905 q 262 924 135 924 q 347 892 347 924 q 330 861 347 883 q 313 830 313 839 q 441 578 313 808 q 487 514 477 514 q 547 576 510 514 q 657 806 657 764 q 640 859 657 827 q 623 905 623 890 q 738 926 623 926 q 852 901 852 926 q 804 850 852 888 q 721 760 755 811 q 612 524 612 595 z "},"":{"ha":353,"x_min":132,"x_max":219,"o":"m 184 494 l 161 494 q 135 512 135 494 l 133 552 l 133 798 l 132 821 l 132 945 q 138 994 132 985 q 172 1003 144 1003 l 178 1003 q 213 995 208 1003 q 219 934 219 987 l 219 910 l 218 904 l 218 740 q 216 512 218 523 q 184 494 213 494 m 218 229 l 218 -186 q 190 -232 218 -232 l 166 -232 q 135 -219 139 -232 q 132 -150 132 -206 l 132 -114 l 132 -108 l 132 28 q 135 269 132 256 q 172 282 138 282 l 178 282 q 212 274 207 282 q 218 229 218 265 z "},"":{"ha":721,"x_min":109,"x_max":612,"o":"m 214 491 l 214 472 q 277 350 214 418 q 329 311 281 346 q 391 267 376 276 q 434 235 406 258 q 469 211 463 211 l 473 211 q 486 222 479 211 q 508 305 508 256 l 508 311 l 507 315 q 456 427 507 361 q 279 604 317 604 l 275 604 q 240 563 267 604 q 214 491 214 523 m 296 -174 q 109 -33 109 -174 q 151 18 109 18 q 205 -18 181 18 q 259 -88 245 -79 q 339 -104 285 -104 q 425 -73 393 -104 q 456 -1 456 -42 q 415 81 456 41 q 304 159 396 100 q 180 257 213 218 q 125 410 125 322 q 165 532 125 467 q 180 567 180 557 q 170 596 180 576 q 132 711 132 663 q 198 863 132 803 q 386 924 264 924 q 510 897 465 924 q 555 802 555 869 q 515 751 555 751 q 459 792 486 751 q 419 844 433 833 q 360 855 405 855 q 287 829 316 855 q 257 760 257 804 q 292 682 257 716 q 426 590 326 648 q 568 478 525 532 q 612 360 612 425 q 582 233 612 296 q 551 164 551 170 q 566 119 551 158 q 581 35 581 81 q 559 -51 581 -11 q 503 -118 537 -91 q 318 -174 429 -174 l 296 -174 z "},"":{"ha":581,"x_min":77,"x_max":491,"o":"m 158 781 l 146 781 q 100 800 123 781 q 77 848 77 818 l 77 863 q 98 911 77 890 q 152 932 119 932 l 155 932 q 208 912 188 932 q 229 858 229 892 l 229 855 l 226 836 q 206 801 226 821 q 158 781 186 781 m 491 852 l 488 836 q 469 801 488 821 q 418 781 449 781 l 410 781 l 408 782 l 403 782 q 389 783 399 783 q 359 803 379 783 q 340 849 340 823 l 340 864 q 342 881 342 870 q 360 911 342 892 q 396 930 379 930 q 403 931 400 931 l 412 932 l 422 932 q 471 912 450 932 q 491 863 491 892 l 491 852 z "},"":{"ha":1089,"x_min":53,"x_max":1014,"o":"m 930 448 l 930 475 q 901 627 930 551 q 703 840 844 775 q 555 874 628 874 l 541 874 q 375 840 454 874 q 154 617 214 772 q 126 463 126 545 q 237 176 126 286 q 377 79 301 112 q 526 47 454 47 l 552 47 q 693 77 621 47 q 899 292 840 140 q 930 448 930 372 m 424 621 q 387 460 387 564 q 434 294 387 356 q 566 232 482 232 q 648 258 611 232 q 685 286 656 263 q 720 309 713 309 q 740 288 740 309 q 683 202 740 234 q 542 170 627 170 l 528 170 q 416 196 467 170 q 332 262 365 221 q 269 451 269 340 l 269 466 q 345 664 269 580 q 433 728 382 707 q 532 749 484 749 l 545 749 q 703 726 650 749 q 734 653 734 712 q 711 593 734 593 q 647 651 702 593 q 549 691 608 691 q 424 621 469 691 m 1014 481 l 1014 450 q 975 269 1014 354 q 874 124 935 183 q 722 29 812 64 q 538 -6 631 -6 l 522 -6 q 342 28 430 -5 q 85 281 157 101 q 53 440 53 361 l 53 471 q 92 650 53 558 q 199 803 131 741 q 353 896 267 865 q 513 928 439 928 l 561 928 q 732 891 643 928 q 881 794 821 854 q 977 648 941 734 q 1014 481 1014 562 z "},"":{"ha":561,"x_min":63,"x_max":492,"o":"m 161 587 q 199 549 161 549 q 207 547 204 547 l 222 546 l 225 546 q 293 568 267 546 q 319 606 319 590 l 321 612 l 321 618 l 322 632 l 322 638 l 323 646 q 323 652 323 649 l 325 660 l 325 666 l 327 688 l 327 692 q 319 708 327 708 l 307 708 l 290 705 q 202 672 241 705 q 162 614 162 640 l 161 608 l 161 587 m 251 935 l 275 935 q 394 887 363 935 q 426 715 426 840 q 432 571 426 590 q 465 546 439 553 q 492 527 492 540 q 403 486 492 486 q 356 508 376 486 q 333 530 336 530 q 279 507 330 530 q 189 484 227 484 l 177 484 q 97 512 132 484 q 63 586 63 541 l 63 597 q 192 724 63 690 q 243 734 201 726 q 295 748 285 743 q 320 802 320 762 q 295 861 320 841 q 238 881 271 881 q 178 842 206 881 q 118 802 150 802 q 85 842 85 802 q 123 902 85 882 q 251 935 184 935 z "},"":{"ha":696,"x_min":46,"x_max":600,"o":"m 323 618 q 354 596 354 618 q 263 466 354 574 q 173 351 173 357 q 262 232 173 345 q 351 104 351 119 q 323 79 351 79 q 179 203 311 79 q 46 348 46 328 q 175 489 46 360 q 323 618 304 618 m 571 89 q 434 208 560 89 q 307 348 307 326 q 434 489 307 370 q 569 608 561 608 l 574 608 q 600 583 600 608 q 517 461 600 562 q 435 353 435 361 q 517 240 435 346 q 599 112 599 135 q 571 89 599 89 z "},"":{"ha":792,"x_min":73,"x_max":708,"o":"m 626 276 l 626 309 q 590 414 626 400 q 342 420 574 420 q 103 421 109 420 q 73 451 73 425 l 73 460 q 94 501 73 498 q 393 503 115 503 l 590 505 l 653 505 q 696 486 684 505 q 708 426 708 467 l 708 229 q 674 194 708 194 l 665 194 q 627 244 627 194 q 626 276 626 262 z "},"":{"ha":538,"x_min":78,"x_max":467,"o":"m 439 424 q 467 388 467 424 l 467 383 q 447 337 467 344 q 264 330 428 330 l 250 330 l 241 329 l 231 329 l 217 328 l 208 328 l 199 328 l 175 328 l 165 327 l 138 327 l 124 326 l 110 326 q 78 353 78 326 l 78 372 q 79 386 79 382 q 101 414 79 408 q 285 420 123 420 l 408 424 l 439 424 z "},"":{"ha":1017,"x_min":71,"x_max":938,"o":"m 443 749 q 433 658 433 749 l 432 638 l 432 625 l 433 622 q 433 605 433 614 l 433 598 q 433 585 433 591 l 435 569 q 449 553 435 553 q 456 551 454 551 l 468 551 l 471 551 l 486 552 l 498 553 q 560 577 532 553 q 587 636 587 601 l 587 640 l 585 667 q 556 725 585 701 q 497 749 528 749 l 491 751 l 456 751 q 443 749 444 749 m 486 178 l 523 178 q 526 178 524 178 q 651 205 589 178 q 841 389 788 262 q 870 522 870 458 l 870 545 q 840 684 869 614 q 652 869 783 814 q 502 899 580 899 l 489 899 l 477 899 q 345 871 411 898 q 155 679 212 815 q 128 555 128 616 l 128 520 q 159 389 129 453 q 347 209 218 262 q 486 178 422 178 m 515 793 q 629 760 584 793 q 675 681 675 727 q 627 569 675 609 q 580 524 580 530 q 626 447 580 517 q 698 357 671 377 q 724 325 724 338 q 665 304 724 304 q 617 319 634 304 q 559 405 600 334 q 513 484 519 477 q 459 507 494 507 q 432 417 432 507 q 450 351 432 379 q 469 318 469 332 q 432 304 469 304 l 359 304 q 282 326 282 304 q 304 347 282 337 q 330 371 326 357 q 334 536 334 384 q 331 715 334 689 q 309 753 328 741 q 291 770 291 764 q 427 793 291 793 l 452 793 l 515 793 m 938 557 l 938 515 q 907 377 938 452 q 677 151 840 218 q 516 117 592 117 l 488 117 q 326 150 408 117 q 189 240 243 183 q 71 534 71 362 l 71 549 l 71 562 q 104 708 72 629 q 335 931 171 868 q 495 961 412 961 l 509 961 q 677 927 594 961 q 907 701 840 861 q 938 557 938 626 z "},"":{"ha":574,"x_min":75,"x_max":510,"o":"m 510 869 l 510 859 l 509 854 l 509 849 q 499 819 509 821 q 290 816 488 816 l 153 816 l 137 815 l 107 815 q 75 841 75 815 l 75 857 q 83 890 75 886 q 121 895 91 895 l 127 895 l 132 895 l 402 895 l 477 895 q 510 869 510 895 z "},"":{"ha":503,"x_min":67,"x_max":429,"o":"m 235 898 q 174 864 203 898 q 144 787 144 831 l 144 767 q 172 691 144 728 q 242 654 200 654 l 256 654 q 321 686 292 654 q 349 753 349 719 l 351 761 l 351 777 q 325 858 351 820 q 264 897 299 897 l 257 898 l 235 898 m 243 949 l 261 949 q 377 901 326 949 q 429 788 429 854 l 429 777 l 429 771 q 372 650 429 698 q 247 603 316 603 l 241 603 q 121 649 175 603 q 67 764 67 694 l 67 787 q 121 899 67 850 q 243 949 175 949 z "},"":{"ha":751,"x_min":77,"x_max":675,"o":"m 621 129 q 675 100 675 129 l 675 86 q 656 48 675 52 q 366 45 638 45 l 178 45 l 157 45 l 131 45 q 77 74 77 45 l 77 81 l 77 88 q 98 125 77 122 q 385 127 106 127 l 601 129 l 621 129 m 362 750 l 385 750 q 412 730 408 750 q 415 622 415 717 q 429 517 415 526 q 543 514 434 514 q 662 510 651 514 q 673 474 673 505 q 657 437 673 443 q 536 432 641 432 q 424 423 432 432 q 415 315 415 414 q 411 207 415 216 q 377 197 406 197 l 366 197 q 337 213 340 197 q 334 324 334 229 q 319 427 334 418 q 208 430 313 430 q 97 431 102 430 q 77 458 77 436 l 77 470 q 98 509 77 504 q 213 512 109 512 q 325 522 317 512 q 333 631 333 532 q 338 741 333 731 q 362 750 343 750 z "},"":{"ha":547,"x_min":80,"x_max":460,"o":"m 253 970 l 267 970 q 392 931 346 970 q 437 828 437 892 q 391 709 437 765 q 281 609 363 675 q 199 524 199 542 q 264 513 199 513 q 352 520 329 513 q 405 547 375 527 q 439 567 434 567 q 460 520 460 567 q 441 454 460 474 q 380 435 422 435 l 283 435 l 270 435 l 215 435 l 174 435 q 80 471 80 435 q 174 601 80 513 q 297 731 268 689 q 326 814 326 772 q 304 880 326 855 q 240 904 281 904 q 169 857 199 904 q 107 809 138 809 q 81 856 81 809 q 132 936 81 902 q 253 970 182 970 z "},"":{"ha":540,"x_min":77,"x_max":454,"o":"m 269 970 q 381 937 340 970 q 422 857 422 905 q 389 770 422 808 q 357 739 378 758 q 336 718 336 720 l 374 698 q 454 577 454 654 q 394 456 454 500 q 254 412 334 412 q 125 437 174 412 q 77 498 77 462 l 77 510 q 111 540 77 540 q 169 507 134 540 q 246 473 203 473 q 314 500 289 473 q 339 572 339 528 q 248 672 339 650 q 194 699 194 685 q 229 734 194 720 q 288 771 264 749 q 311 833 311 793 q 292 885 311 867 q 240 903 271 903 q 174 869 209 903 q 117 834 140 834 q 90 875 90 834 q 139 943 90 916 q 254 970 188 970 l 269 970 z "},"":{"ha":489,"x_min":138,"x_max":399,"o":"m 172 762 l 161 762 q 138 782 138 762 l 139 785 l 139 788 q 265 971 139 827 q 338 1010 300 1010 l 342 1010 q 399 973 399 1010 l 399 962 q 313 867 399 935 q 172 762 178 762 z "},"":{"ha":855,"x_min":103,"x_max":762,"o":"m 267 228 q 380 80 267 80 q 486 116 439 80 q 547 191 532 151 q 581 600 581 273 q 603 628 581 628 q 677 574 648 628 q 698 440 698 536 q 720 258 698 344 q 762 83 762 96 l 762 70 q 684 11 762 11 q 604 33 677 11 q 514 54 531 54 q 443 29 498 54 q 344 0 387 4 q 286 -16 300 -5 q 253 -146 253 -43 q 229 -230 253 -197 q 169 -262 205 -262 q 127 -207 143 -262 q 112 -61 112 -152 q 120 168 112 30 q 127 385 127 307 q 115 516 127 463 q 103 570 103 568 q 133 631 103 606 q 206 657 162 657 q 264 632 250 657 q 278 556 278 606 l 267 228 z "},"":{"ha":803,"x_min":78,"x_max":706,"o":"m 448 89 q 374 -52 448 -52 q 326 14 326 -52 l 340 92 q 286 399 340 292 q 200 487 268 435 q 117 559 132 538 q 78 688 78 617 q 171 900 78 837 q 288 946 218 932 q 501 960 358 960 l 527 960 l 579 960 q 706 926 706 960 q 696 899 706 914 l 686 886 q 639 726 639 821 l 637 648 q 635 515 635 595 l 635 328 l 636 300 q 636 140 636 300 q 640 36 636 60 l 649 -9 q 654 -55 654 -37 q 611 -103 654 -103 q 558 -32 567 -103 q 552 71 556 -14 q 533 338 549 156 q 515 618 517 521 q 510 725 513 715 q 470 752 504 752 q 431 730 436 752 l 430 708 l 431 661 q 439 498 431 591 q 447 331 447 404 l 449 264 l 448 131 q 448 89 448 109 z "},"":{"ha":352,"x_min":87,"x_max":266,"o":"m 184 336 l 167 336 q 113 357 138 336 q 88 408 88 378 l 87 414 l 87 435 q 113 492 87 470 q 168 514 138 514 l 186 514 q 241 493 216 514 q 266 437 266 472 l 266 416 q 238 356 266 376 q 184 336 210 336 z "},"":{"ha":480,"x_min":132,"x_max":389,"o":"m 189 -91 q 214 -11 189 -52 q 250 5 223 5 q 271 -27 271 5 q 308 -75 271 -60 q 389 -173 389 -106 l 389 -179 l 389 -184 q 327 -277 389 -238 q 217 -305 283 -305 l 211 -305 l 205 -304 q 132 -277 132 -304 l 132 -271 q 181 -245 132 -245 q 279 -182 279 -245 q 234 -134 279 -152 q 189 -91 189 -116 z "},"":{"ha":458,"x_min":83,"x_max":366,"o":"m 307 432 l 271 432 l 262 433 l 218 433 q 95 458 95 433 q 130 488 95 475 q 174 530 165 501 q 180 684 180 547 q 171 842 180 821 q 123 866 163 863 q 83 888 83 870 q 110 918 83 905 q 258 967 219 967 l 267 967 q 292 912 292 967 l 288 843 l 286 825 l 286 807 l 286 789 l 286 717 l 286 690 q 294 528 286 551 q 333 487 301 505 q 366 458 366 469 q 307 432 366 432 z "},"":{"ha":578,"x_min":59,"x_max":498,"o":"m 166 706 l 168 680 q 197 583 168 630 q 269 536 227 536 l 288 536 q 357 579 330 536 q 385 705 385 622 l 385 711 l 384 717 l 384 722 l 383 739 l 381 764 q 351 857 381 815 q 275 898 321 898 l 270 898 q 200 863 232 898 q 169 772 169 828 l 167 751 l 165 723 l 165 712 l 166 706 m 498 725 l 498 709 q 437 551 498 612 q 277 490 376 490 l 269 490 q 116 552 174 490 q 59 709 59 613 l 59 724 q 60 747 60 741 q 123 885 60 827 q 263 943 185 943 l 294 943 q 441 882 383 943 q 498 725 498 820 z "},"":{"ha":695,"x_min":73,"x_max":626,"o":"m 96 608 l 108 608 q 243 486 121 608 q 365 349 365 364 q 242 212 365 334 q 105 90 120 90 q 76 118 76 90 q 158 237 76 138 q 239 349 239 336 q 156 458 239 351 q 73 580 73 565 l 73 586 q 96 608 73 608 m 626 349 q 498 209 626 336 q 347 81 370 81 q 323 104 323 81 q 413 234 323 127 q 502 349 502 340 q 411 466 502 357 q 320 589 320 575 l 320 594 q 351 618 320 618 q 493 494 361 618 q 626 349 626 369 z "},"":{"ha":1107,"x_min":66,"x_max":991,"o":"m 656 208 l 720 208 q 797 219 791 208 q 800 286 800 224 l 800 357 l 800 361 q 800 368 800 364 l 801 378 l 801 388 l 802 391 q 802 398 802 395 l 802 408 q 802 415 802 412 l 803 425 l 803 431 q 802 439 803 439 l 801 439 q 760 383 795 439 q 684 274 724 327 q 644 213 644 220 l 644 211 q 656 208 644 208 m 243 385 l 146 385 q 73 414 73 385 q 107 439 73 424 q 148 483 140 454 q 156 654 156 512 q 147 816 156 795 q 102 840 138 837 q 66 863 66 844 q 90 888 66 876 q 237 935 180 935 q 269 871 269 935 l 267 819 q 265 792 265 801 l 264 774 q 264 739 264 757 l 263 720 l 263 667 l 262 648 q 270 483 262 506 q 307 438 278 460 q 336 414 336 416 l 336 408 q 243 385 336 385 m 325 49 q 249 -20 282 -20 q 215 -1 215 -20 q 734 870 215 35 q 803 927 769 927 q 837 909 837 927 q 325 49 837 873 m 583 174 l 583 189 q 604 231 583 200 q 802 495 704 381 q 873 543 843 543 q 910 518 904 543 q 913 391 913 508 q 922 250 913 274 q 961 213 931 227 q 991 186 991 199 l 991 181 q 954 142 991 177 q 934 91 934 124 q 945 68 934 81 q 956 39 956 55 q 829 -9 956 -9 q 762 35 762 -9 q 777 60 762 42 q 793 102 793 79 q 775 135 793 126 q 700 143 757 143 q 583 174 583 143 z "},"":{"ha":1164,"x_min":75,"x_max":1059,"o":"m 122 388 q 79 412 79 388 q 114 442 79 427 q 158 482 149 458 q 167 648 167 507 q 159 809 167 789 q 113 834 151 829 q 75 857 75 840 q 102 885 75 873 q 250 936 219 936 q 280 878 280 936 l 279 861 q 277 835 277 843 l 276 817 q 275 791 275 800 l 273 745 l 273 681 l 273 654 q 280 488 273 511 q 317 446 288 465 q 347 418 347 427 q 326 394 347 399 q 184 389 304 389 l 157 388 l 122 388 m 259 -36 l 248 -36 q 223 -22 223 -36 q 258 51 223 -5 q 509 480 292 106 q 729 858 726 854 q 812 938 780 938 l 824 938 q 848 923 848 938 q 814 850 848 908 q 771 777 779 793 q 709 673 762 761 q 627 532 656 585 q 579 450 597 479 q 488 295 562 421 q 403 149 415 169 q 372 95 391 130 q 342 43 353 60 q 259 -36 293 -36 m 708 378 q 679 424 679 378 q 729 506 679 469 q 861 543 779 543 q 990 505 943 543 q 1038 405 1038 467 q 992 283 1038 342 q 882 178 964 247 q 800 94 800 109 q 877 79 800 79 q 971 89 954 79 q 1009 115 989 99 q 1036 132 1030 132 q 1059 109 1059 132 l 1059 96 q 1029 8 1059 30 q 966 -1 1017 -1 l 884 -1 l 870 -1 l 857 -1 q 704 4 731 -1 q 677 34 677 9 q 767 159 677 75 q 892 291 858 243 q 926 382 926 338 q 903 450 926 425 q 840 474 881 474 q 770 434 798 474 q 708 378 732 378 z "},"":{"ha":1162,"x_min":61,"x_max":1048,"o":"m 858 431 q 855 440 858 440 q 840 418 852 440 q 761 311 827 397 q 694 211 694 225 q 702 208 694 208 l 705 208 l 708 209 l 770 210 q 849 216 841 210 q 858 275 858 223 l 857 292 q 857 298 857 295 l 856 302 q 856 309 856 305 l 855 315 q 855 324 855 319 l 854 331 l 854 385 l 857 408 q 857 415 857 412 l 858 431 m 260 936 q 365 903 325 936 q 406 825 406 869 q 385 752 406 780 q 340 704 363 725 q 317 681 317 682 q 353 660 317 680 q 411 609 388 640 q 435 520 435 578 q 374 414 435 463 q 222 366 313 366 l 208 366 q 106 389 151 366 q 61 441 61 412 l 61 452 q 101 489 61 489 q 156 448 108 489 q 224 425 182 425 q 291 456 267 425 q 315 530 315 487 q 226 634 315 605 q 180 664 180 650 q 215 695 180 679 q 292 793 292 731 q 274 848 292 825 q 225 870 255 870 q 159 837 196 870 q 109 803 123 803 q 81 840 81 803 q 122 906 81 876 q 233 936 163 936 l 260 936 m 806 886 q 864 925 831 925 q 897 909 897 925 q 374 39 897 882 q 303 -20 337 -20 q 269 -4 269 -20 q 291 45 269 8 q 806 886 554 494 m 638 180 l 638 188 q 840 472 638 228 q 933 542 897 542 l 942 542 q 968 517 962 542 q 970 390 970 509 q 979 247 970 271 q 1018 211 987 223 q 1048 185 1048 199 q 1020 150 1048 175 q 991 90 991 124 q 1001 67 991 82 q 1012 38 1012 53 q 999 13 1012 23 q 894 -11 969 -11 l 884 -11 q 816 33 816 -11 q 831 61 816 43 q 847 94 847 79 q 794 141 847 141 l 775 142 l 746 143 q 638 180 638 143 z "},"":{"ha":637,"x_min":71,"x_max":553,"o":"m 264 722 l 266 734 q 293 777 266 754 q 345 799 319 799 l 361 799 q 421 772 397 799 q 444 714 444 745 l 444 709 q 422 651 444 683 q 359 620 399 620 l 353 620 q 289 650 314 620 q 264 713 264 680 l 264 719 l 264 722 m 359 -170 l 333 -170 q 134 -102 214 -170 q 71 38 71 -49 l 71 51 q 197 279 71 171 q 294 366 288 358 q 317 453 317 395 q 352 511 317 511 q 397 385 397 511 q 362 286 397 340 q 303 216 351 267 q 237 129 256 165 q 217 40 217 92 q 249 -42 217 -11 q 338 -73 281 -73 q 426 -38 395 -73 q 506 23 481 23 q 553 -38 553 23 q 512 -128 553 -99 q 359 -170 453 -170 z "},"":{"ha":970,"x_min":7,"x_max":932,"o":"m 512 393 q 575 402 575 393 l 575 406 q 455 735 575 435 q 435 781 437 781 q 420 752 429 781 q 388 668 410 723 q 358 586 366 612 q 346 551 350 559 q 338 528 342 542 q 318 472 334 513 q 302 407 302 430 q 318 397 302 397 l 329 396 l 412 393 l 512 393 m 336 1223 q 408 1185 365 1223 q 541 1029 541 1067 l 541 1023 q 516 1004 541 1004 q 505 1005 509 1005 q 336 1101 480 1005 q 266 1175 266 1148 l 266 1185 q 318 1222 266 1222 l 325 1223 l 336 1223 m 7 32 q 46 72 7 50 q 102 131 85 94 q 141 231 110 147 q 238 474 172 315 q 318 676 304 633 q 352 787 333 720 q 382 875 372 853 q 468 932 410 932 q 600 737 534 932 q 708 443 650 590 q 791 228 767 295 q 832 124 814 161 q 880 70 850 87 q 932 22 932 40 q 863 -1 932 -1 l 762 -1 q 642 7 663 -1 q 621 31 621 15 q 647 68 621 47 q 673 112 673 90 q 641 212 673 134 q 590 306 608 290 q 435 321 572 321 q 272 298 298 321 q 229 218 256 283 q 201 116 201 153 q 234 59 201 80 q 266 30 266 39 q 191 5 266 5 q 7 32 7 5 z "},"":{"ha":970,"x_min":19,"x_max":916,"o":"m 572 394 l 572 406 q 460 747 572 412 q 444 783 448 783 q 418 736 439 783 q 298 395 298 460 q 317 386 298 386 l 321 386 l 327 387 l 370 389 l 376 390 l 381 391 l 475 393 q 572 394 572 393 m 394 1019 l 394 1025 q 409 1056 394 1040 q 428 1076 425 1072 q 441 1092 432 1081 q 455 1108 450 1102 q 471 1127 459 1114 q 495 1157 483 1140 q 518 1183 508 1174 q 601 1227 568 1227 l 616 1227 q 657 1211 637 1227 q 677 1179 677 1196 l 677 1168 q 644 1118 677 1141 q 422 996 470 996 l 418 997 q 394 1019 394 997 m 35 31 q 19 49 19 37 q 60 88 19 61 q 119 157 100 115 q 150 235 137 199 l 182 328 q 260 530 194 360 q 352 779 327 701 q 387 880 376 858 q 469 935 412 935 q 568 815 512 935 q 693 480 574 804 q 824 131 812 155 q 865 88 836 106 q 916 39 916 58 q 791 14 916 14 l 751 12 l 711 12 q 615 32 615 12 q 640 72 615 51 q 665 116 665 92 q 634 210 665 139 q 584 299 603 281 q 434 316 565 316 q 279 294 303 316 q 236 209 262 279 q 209 112 209 140 q 239 64 209 85 q 270 35 270 43 q 217 15 270 15 q 35 31 73 15 z "},"":{"ha":972,"x_min":12,"x_max":924,"o":"m 395 397 l 406 397 l 412 397 l 440 397 q 574 409 574 397 q 460 728 574 444 q 438 779 440 779 q 411 724 435 779 q 297 409 297 463 l 297 405 q 395 397 297 397 m 654 996 l 644 996 q 544 1053 619 996 q 468 1111 469 1111 q 392 1053 460 1111 q 293 996 324 996 q 262 1015 262 996 l 262 1019 q 298 1064 262 1021 q 337 1109 334 1106 q 361 1137 340 1113 q 464 1223 432 1223 l 475 1223 q 589 1127 500 1223 q 677 1016 677 1031 q 654 996 677 996 m 38 15 q 25 20 38 15 q 12 37 12 25 q 63 83 12 50 q 117 155 94 104 q 184 340 119 161 l 260 536 q 352 787 319 686 q 393 899 385 887 q 469 939 419 939 q 578 800 518 939 q 625 674 594 764 q 708 449 656 585 q 784 239 760 313 q 826 129 808 166 q 871 77 844 92 q 924 28 924 47 q 755 1 924 1 l 735 1 q 614 23 614 1 q 641 63 614 42 q 667 109 667 84 q 637 207 667 133 q 587 298 606 280 q 434 315 567 315 q 276 292 300 315 q 234 208 262 277 q 206 108 206 138 q 238 56 206 78 q 270 25 270 35 q 195 4 270 4 q 38 15 64 4 z "},"":{"ha":968,"x_min":7,"x_max":932,"o":"m 352 396 l 430 396 l 436 397 l 447 397 q 576 409 576 397 q 459 733 576 441 q 438 778 441 778 q 366 608 434 778 q 298 409 298 437 q 352 396 298 396 m 383 1179 l 393 1179 q 485 1149 420 1179 q 574 1118 550 1118 q 612 1128 599 1118 q 645 1155 626 1137 q 669 1172 664 1172 q 695 1153 695 1172 l 695 1147 q 651 1066 695 1107 q 570 1026 607 1026 l 549 1026 q 456 1056 517 1026 q 367 1086 396 1086 q 305 1060 337 1086 q 267 1033 273 1033 q 245 1052 245 1033 l 245 1057 q 307 1152 245 1100 q 383 1179 339 1179 m 7 35 q 58 79 7 47 q 105 139 86 96 q 150 253 124 182 q 242 489 175 324 q 347 767 310 653 q 392 892 385 880 q 469 932 417 932 q 572 810 517 932 q 624 671 581 790 q 752 333 667 552 q 842 106 837 114 q 895 64 857 81 q 932 23 932 47 q 844 -1 932 -1 l 762 -1 q 621 25 621 -1 q 647 68 621 46 q 673 113 673 90 q 642 211 673 136 q 591 304 612 286 q 434 323 570 323 q 276 302 298 323 q 228 213 255 282 q 201 113 201 143 q 233 60 201 83 q 266 29 266 37 q 191 5 266 5 q 7 35 7 5 z "},"":{"ha":970,"x_min":5,"x_max":930,"o":"m 297 404 l 297 400 q 399 391 297 391 l 404 391 l 410 391 l 437 391 q 567 401 567 391 l 567 405 q 454 734 567 452 q 434 780 435 780 q 419 753 428 780 q 382 651 410 727 q 345 547 353 576 q 316 470 336 518 q 297 404 297 422 m 332 1032 q 289 1050 311 1032 q 267 1090 267 1067 l 264 1105 l 264 1110 q 286 1162 264 1141 q 334 1183 307 1183 l 349 1183 q 396 1163 376 1183 q 416 1113 416 1143 l 416 1105 q 396 1055 416 1075 q 357 1034 376 1034 l 342 1032 l 332 1032 m 671 1093 q 669 1081 671 1093 q 649 1044 669 1064 q 597 1024 629 1024 l 595 1024 q 545 1042 568 1024 q 522 1094 522 1061 l 522 1104 q 544 1155 522 1133 q 589 1176 565 1176 l 604 1176 q 649 1157 630 1176 q 669 1120 669 1137 q 670 1114 670 1116 l 671 1103 l 671 1096 l 671 1093 m 5 33 q 43 70 5 49 q 98 124 81 90 q 146 248 114 158 q 243 492 179 337 q 320 688 307 648 q 357 801 334 728 q 389 890 379 874 q 467 930 414 930 q 578 791 520 930 q 615 689 583 779 q 732 376 647 600 q 833 119 817 152 q 890 62 849 85 q 930 22 930 39 q 803 -3 930 -3 l 783 -3 q 620 23 620 -3 q 646 66 620 45 q 671 111 671 88 q 641 209 671 134 q 590 302 610 283 q 432 321 569 321 q 274 300 295 321 q 226 209 252 280 q 199 109 199 138 q 232 59 199 81 q 264 27 264 37 q 189 4 264 4 q 5 33 5 4 z "},"":{"ha":971,"x_min":9,"x_max":911,"o":"m 380 1108 l 380 1103 l 380 1101 q 380 1095 380 1098 l 382 1086 q 401 1050 382 1069 q 439 1031 420 1031 l 451 1029 l 464 1029 q 507 1047 485 1029 q 529 1087 529 1065 l 531 1101 l 531 1106 q 510 1156 531 1135 q 454 1177 488 1177 l 452 1177 q 402 1159 425 1177 q 380 1108 380 1141 m 542 376 q 560 382 560 376 l 560 387 q 548 426 560 391 l 533 473 l 522 511 q 504 571 519 522 q 473 656 490 621 q 446 730 457 690 q 432 769 435 769 q 363 585 429 769 q 298 382 298 400 q 311 376 298 376 l 342 376 l 348 376 l 465 378 l 477 378 l 526 376 l 542 376 m 460 977 l 447 977 q 357 1014 393 977 q 321 1102 321 1050 l 321 1106 q 360 1194 321 1158 q 450 1229 400 1229 l 464 1229 q 551 1195 513 1229 q 589 1113 589 1160 l 589 1096 q 548 1011 589 1044 q 460 977 506 977 m 210 -1 q 9 34 9 -1 q 49 76 9 45 q 109 150 90 106 q 149 257 111 153 q 252 528 186 361 q 341 774 317 694 q 374 871 366 854 q 460 924 401 924 q 570 789 509 924 q 691 458 583 761 q 814 121 798 155 q 860 71 830 87 q 911 22 911 41 q 762 -5 911 -5 l 721 -5 l 646 -3 q 605 17 605 -3 q 632 57 605 37 q 659 107 659 77 q 626 210 659 138 q 578 297 593 282 q 437 313 563 313 q 288 301 311 313 q 243 239 266 290 q 198 98 198 140 q 229 51 198 75 q 260 20 260 26 q 210 -1 260 -1 z "},"":{"ha":1317,"x_min":26,"x_max":1215,"o":"m 618 542 l 616 593 l 616 627 l 625 758 q 625 768 625 763 l 625 779 l 625 784 q 618 824 625 824 l 615 824 q 550 740 592 824 q 545 729 548 736 q 538 716 542 722 q 533 707 535 711 q 519 684 531 703 q 469 590 507 666 q 424 503 431 513 q 376 426 376 432 q 413 420 376 420 l 437 420 q 463 420 443 420 l 508 419 l 542 416 l 547 416 l 553 417 l 563 417 q 610 432 603 417 q 618 486 618 448 l 618 530 l 618 542 m 627 211 q 520 360 627 360 q 332 313 382 360 q 263 213 296 281 q 230 113 230 144 q 244 75 230 104 q 258 33 258 45 q 142 5 258 5 q 26 35 26 5 q 48 73 26 53 l 73 92 q 129 150 104 115 q 271 398 155 184 q 406 644 387 612 l 425 676 q 460 737 450 720 l 477 768 q 498 861 498 809 q 543 924 498 912 q 711 936 587 936 l 852 935 l 926 937 l 964 937 q 1124 909 1077 937 q 1172 818 1172 881 q 1160 775 1172 775 q 1118 798 1154 775 q 892 861 1017 861 q 794 816 820 861 q 769 639 769 770 q 799 561 769 587 q 877 534 829 534 q 967 561 926 534 q 1020 587 1009 587 l 1038 578 q 1061 480 1061 555 q 1040 385 1061 404 l 1022 375 q 966 402 1010 375 q 881 430 923 430 q 786 384 813 430 q 771 306 771 359 q 787 196 771 253 q 826 112 802 140 q 930 83 849 83 q 1160 154 1063 83 q 1200 178 1193 178 q 1215 161 1215 178 l 1215 140 q 1143 19 1215 56 q 985 3 1110 3 l 948 3 l 911 3 l 874 3 q 641 14 698 3 q 584 62 584 25 l 589 81 l 613 124 q 627 211 627 155 z "},"":{"ha":920,"x_min":65,"x_max":824,"o":"m 94 247 q 79 291 94 247 q 65 422 65 335 q 94 599 65 510 q 296 844 149 771 q 466 886 381 886 l 488 886 q 620 863 557 886 q 690 840 682 840 q 769 829 760 832 q 817 732 817 809 q 780 654 817 654 q 695 706 749 654 q 619 770 641 758 q 483 805 556 805 q 272 700 346 805 q 197 422 197 594 q 281 147 197 250 q 480 60 355 60 q 739 148 636 60 q 803 184 781 184 q 824 170 824 184 l 824 153 q 801 88 824 125 q 745 33 777 51 q 515 -34 625 -33 q 538 -59 520 -42 q 572 -93 564 -82 q 612 -189 612 -149 l 612 -199 l 611 -203 q 554 -269 611 -235 q 438 -303 498 -303 l 431 -302 q 380 -285 380 -302 l 380 -281 q 408 -234 380 -234 q 418 -235 414 -235 q 420 -235 419 -235 q 494 -168 494 -235 q 465 -104 494 -132 q 435 -66 435 -77 q 451 -31 435 -59 q 319 -2 377 -24 q 180 94 237 30 q 94 247 122 159 z "},"":{"ha":863,"x_min":73,"x_max":785,"o":"m 238 1183 l 238 1196 q 254 1222 238 1208 q 300 1236 270 1236 l 303 1236 q 385 1193 337 1236 q 515 1040 515 1077 l 515 1036 q 495 1016 515 1016 l 484 1016 q 303 1117 448 1016 q 238 1183 238 1162 m 572 593 q 616 510 616 593 q 607 396 616 427 q 566 365 597 365 q 524 400 564 365 q 452 435 484 435 q 321 396 352 435 q 304 294 304 374 q 345 96 304 161 q 462 66 362 66 q 727 148 646 66 q 768 184 764 184 q 785 128 785 184 q 749 26 785 71 q 662 -3 726 -3 l 633 -2 l 278 0 l 249 -1 q 163 -1 220 -1 q 78 35 78 -1 q 124 72 78 36 q 159 134 150 92 q 168 481 168 176 q 157 819 168 787 q 110 867 147 851 q 73 908 73 884 q 155 932 73 932 l 184 931 q 242 930 213 930 l 448 931 l 565 932 l 623 934 q 719 909 689 934 q 748 804 748 885 q 734 763 748 763 q 689 792 720 763 q 634 831 657 822 q 463 863 555 863 q 347 825 372 863 q 308 634 308 765 q 343 551 308 574 q 425 528 379 528 q 493 541 471 528 q 539 573 516 553 q 572 593 562 593 z "},"":{"ha":863,"x_min":71,"x_max":779,"o":"m 629 1198 l 629 1192 l 629 1188 q 549 1102 629 1158 q 390 1003 408 1003 l 387 1003 q 356 1028 356 1003 l 356 1031 q 497 1200 356 1075 q 564 1232 533 1232 l 568 1232 q 629 1198 629 1232 m 576 600 q 621 488 621 600 q 591 376 621 376 q 531 411 566 376 q 456 447 496 447 q 330 409 359 447 q 315 310 315 389 q 351 115 315 168 q 473 85 372 85 q 722 161 654 85 q 766 200 758 200 q 779 149 779 200 q 762 66 779 98 q 725 21 745 34 q 537 7 704 7 l 478 7 l 448 8 l 389 8 q 131 10 151 8 q 71 47 71 16 q 120 83 71 49 q 155 141 147 102 q 163 488 163 180 q 153 825 163 795 q 107 872 142 854 q 71 909 71 890 q 263 938 71 938 l 526 940 l 585 941 q 709 914 675 941 q 743 812 743 887 q 730 773 743 773 q 688 801 722 773 q 459 862 614 862 q 357 823 382 862 q 319 639 319 762 q 339 574 319 599 q 441 536 371 536 q 497 547 479 536 q 539 578 515 557 q 576 600 563 600 z "},"":{"ha":863,"x_min":68,"x_max":784,"o":"m 261 1015 l 252 1015 q 229 1035 229 1015 q 276 1093 229 1042 q 330 1152 323 1144 q 430 1232 397 1232 l 441 1232 q 541 1152 473 1232 q 640 1034 640 1034 q 612 1015 640 1015 l 607 1015 q 513 1071 587 1015 q 434 1127 440 1127 q 355 1071 429 1127 q 261 1015 282 1015 m 351 101 q 476 72 371 72 q 654 101 581 72 q 726 152 692 116 q 772 188 760 188 q 784 165 784 188 l 784 143 q 754 29 784 64 q 658 -6 724 -6 l 629 -5 l 570 -6 l 390 -6 q 128 -4 149 -6 q 70 34 70 2 q 120 71 70 37 q 153 130 144 87 q 161 467 161 174 q 154 802 161 760 q 121 861 146 844 q 68 908 68 896 q 120 935 68 929 q 381 937 146 937 l 499 938 l 587 938 q 711 913 685 938 q 747 805 747 878 q 732 767 747 767 q 694 793 723 768 q 470 857 624 857 q 356 819 381 857 q 316 631 316 757 q 337 567 316 590 q 441 529 372 529 q 505 543 481 529 l 523 557 l 539 574 q 577 593 561 593 q 609 567 594 593 q 623 475 623 541 q 593 366 623 366 q 531 402 566 366 q 456 438 496 438 q 328 400 355 438 q 313 299 313 379 q 351 101 313 154 z "},"":{"ha":863,"x_min":68,"x_max":780,"o":"m 307 1036 l 288 1036 q 270 1038 279 1038 q 242 1056 260 1038 q 224 1091 224 1074 l 222 1103 l 222 1118 q 242 1165 222 1145 q 281 1185 262 1185 l 296 1187 l 304 1187 q 324 1185 312 1185 q 354 1167 336 1185 q 372 1131 372 1149 l 374 1118 l 374 1101 q 372 1094 372 1097 q 352 1056 372 1076 q 307 1036 332 1036 m 553 1036 q 536 1038 545 1038 q 507 1057 526 1038 q 487 1110 487 1077 l 487 1113 q 507 1165 487 1145 q 546 1185 527 1185 l 558 1187 l 573 1187 q 585 1185 581 1185 q 622 1163 605 1185 q 640 1112 640 1141 l 639 1109 q 619 1057 639 1077 q 581 1038 600 1038 l 568 1036 l 553 1036 m 566 591 q 612 508 612 591 q 602 394 612 425 q 562 363 592 363 q 509 406 559 363 q 413 433 479 433 q 317 394 347 433 q 300 292 300 372 q 340 94 300 160 q 427 64 358 64 q 720 144 642 64 q 764 183 758 183 q 780 141 780 183 q 745 24 780 67 q 656 -5 721 -5 l 627 -4 l 302 -1 l 159 -3 q 73 33 73 -3 q 119 70 73 34 q 154 131 145 90 q 163 479 163 173 q 153 818 163 786 q 105 865 143 849 q 68 905 68 882 q 384 929 68 929 l 589 931 l 618 932 q 714 907 684 932 q 743 802 743 883 q 729 762 743 762 q 683 793 714 762 q 446 861 614 861 q 342 823 366 861 q 303 632 303 762 q 339 549 303 572 q 420 526 376 526 q 487 538 465 526 q 533 570 509 549 q 566 591 557 591 z "},"":{"ha":512,"x_min":53,"x_max":429,"o":"m 53 1186 l 53 1196 q 70 1223 53 1209 q 111 1236 87 1236 l 122 1236 q 201 1194 153 1236 q 332 1044 332 1077 l 332 1034 q 312 1017 332 1017 l 302 1017 q 122 1116 271 1017 q 53 1186 53 1162 m 424 914 q 382 875 424 894 q 331 818 340 856 q 321 458 321 781 q 331 103 321 136 q 373 58 340 70 q 429 22 429 37 q 375 -7 429 -7 l 360 -7 l 345 -6 l 301 -5 l 214 -5 l 156 -7 l 126 -7 q 77 16 77 -7 q 119 56 77 39 q 170 111 161 73 q 180 465 180 150 q 172 820 180 780 q 129 873 163 860 q 73 909 73 893 q 100 935 73 931 q 273 937 113 937 l 332 938 l 390 938 q 424 914 424 938 z "},"":{"ha":512,"x_min":68,"x_max":445,"o":"m 174 1023 l 174 1032 q 220 1100 174 1042 q 383 1235 325 1235 l 384 1235 l 387 1234 q 427 1220 408 1234 q 445 1187 445 1206 l 445 1181 q 372 1104 445 1156 q 203 1002 225 1002 l 193 1002 q 174 1023 174 1002 m 326 477 q 326 448 326 463 l 325 417 l 325 311 l 326 281 q 326 251 326 266 l 326 236 q 327 174 327 221 q 340 102 327 126 q 392 66 353 79 q 432 37 432 54 q 376 7 432 7 l 361 7 l 345 8 l 300 9 l 241 9 l 151 7 l 121 7 q 69 39 69 7 q 106 67 69 52 q 151 97 142 83 q 170 230 170 128 l 172 260 l 172 289 l 172 319 l 173 334 l 173 424 l 174 498 q 164 819 174 774 q 121 877 155 863 q 68 913 68 899 q 96 939 68 934 q 258 940 105 940 l 348 941 l 378 941 q 429 908 429 941 q 388 880 429 898 q 339 829 347 861 q 326 477 326 776 z "},"":{"ha":513,"x_min":46,"x_max":455,"o":"m 77 1016 l 68 1016 q 46 1036 46 1016 q 78 1078 46 1046 q 140 1145 110 1110 q 247 1233 214 1233 l 257 1233 q 369 1139 282 1233 q 455 1034 455 1045 q 427 1016 455 1016 l 422 1016 q 329 1072 401 1016 q 251 1128 256 1128 q 173 1072 246 1128 q 77 1016 100 1016 m 431 914 q 390 876 431 894 q 338 815 349 859 q 327 456 327 772 q 337 105 327 139 q 381 58 348 71 q 435 23 435 39 q 378 -6 435 -6 l 347 -6 l 332 -5 l 302 -5 l 242 -5 l 167 -6 l 121 -6 q 69 17 69 -6 q 107 54 69 39 q 154 85 144 69 q 172 235 172 115 l 174 265 q 174 295 174 280 l 174 326 l 174 492 q 163 825 174 789 q 121 873 153 861 q 67 909 67 896 q 96 936 67 931 q 260 937 105 937 l 335 939 l 381 939 q 431 914 431 939 z "},"":{"ha":511,"x_min":41,"x_max":456,"o":"m 123 1036 l 106 1036 q 61 1056 81 1036 q 41 1105 41 1076 l 41 1116 q 62 1165 41 1144 q 107 1186 83 1186 l 127 1186 l 142 1183 q 173 1166 155 1183 q 190 1131 190 1149 q 191 1124 191 1126 l 193 1111 l 193 1109 q 172 1057 193 1078 q 123 1036 151 1036 m 373 1036 q 325 1056 345 1036 q 304 1105 304 1076 l 304 1116 l 307 1133 q 325 1165 307 1147 q 358 1183 343 1183 l 378 1187 l 385 1187 q 436 1166 416 1187 q 456 1117 456 1146 l 456 1107 l 454 1090 q 435 1056 454 1075 q 398 1038 416 1038 l 383 1036 l 373 1036 m 372 937 q 420 913 420 937 q 378 873 420 890 q 327 808 335 855 q 318 454 318 761 q 326 109 318 148 q 370 56 334 69 q 426 21 426 36 q 372 -8 426 -8 l 342 -8 l 328 -7 l 298 -7 l 240 -7 l 168 -8 l 123 -8 q 74 14 74 -8 q 112 53 74 37 q 157 83 149 70 q 174 217 174 110 l 175 248 q 175 277 175 262 l 176 323 l 176 505 q 168 818 176 779 q 125 871 160 858 q 71 907 71 891 q 97 934 71 930 q 256 935 105 935 l 328 937 l 372 937 z "},"":{"ha":1035,"x_min":73,"x_max":945,"o":"m 436 878 l 397 878 q 332 854 342 878 q 322 699 322 831 q 331 547 322 567 q 419 516 344 516 q 510 509 494 516 q 526 469 526 502 q 439 437 526 444 q 336 407 352 431 q 319 233 319 384 l 319 192 l 319 166 q 337 77 319 98 q 412 57 355 57 l 438 57 q 669 147 587 57 q 773 425 773 259 l 773 483 q 688 766 773 663 q 582 850 642 822 q 436 878 522 878 m 176 1 q 77 24 77 1 q 118 63 77 47 q 170 110 159 80 q 181 245 181 140 l 183 301 q 184 370 184 320 q 173 429 184 420 q 117 444 161 438 q 73 480 73 450 q 112 517 73 511 q 172 529 168 525 q 184 607 184 538 l 182 644 l 182 680 q 169 828 182 793 q 127 875 157 863 q 79 910 79 895 q 154 933 79 933 l 243 935 l 296 937 q 351 939 332 939 l 388 940 l 444 940 q 910 677 804 940 q 945 484 945 591 q 809 123 945 248 q 449 -3 673 -3 l 372 -3 l 354 -2 l 176 1 z "},"":{"ha":1072,"x_min":64,"x_max":996,"o":"m 438 1190 l 454 1190 q 547 1160 487 1190 q 636 1131 606 1131 q 701 1157 667 1131 q 740 1184 736 1184 q 762 1166 762 1184 l 762 1160 q 718 1079 762 1120 q 635 1039 674 1039 l 613 1039 q 519 1069 579 1039 q 429 1099 458 1099 q 366 1072 399 1099 q 327 1044 333 1044 q 304 1063 304 1044 l 304 1074 q 361 1160 304 1112 q 438 1190 397 1190 m 330 28 q 216 -1 330 -1 l 152 -1 q 64 26 64 -1 q 117 68 64 35 q 159 142 151 89 q 168 472 168 196 q 158 788 168 747 q 107 860 148 829 q 67 905 67 890 q 141 930 67 930 q 253 919 214 930 q 324 873 292 907 q 429 739 356 838 q 654 442 501 639 q 810 245 808 245 q 825 498 825 245 q 815 797 825 752 q 765 867 805 841 q 725 903 725 894 q 815 931 725 931 l 848 930 l 880 930 q 996 901 996 930 q 947 852 996 890 q 908 783 917 829 q 899 460 899 738 l 898 427 q 897 361 897 394 l 897 327 q 897 194 897 260 l 897 129 l 899 96 q 864 9 899 9 q 745 88 808 9 q 491 439 701 142 q 261 736 281 736 q 242 557 242 736 l 244 391 q 257 179 244 240 q 288 90 270 117 l 302 73 l 317 58 q 330 28 330 43 z "},"":{"ha":1040,"x_min":64,"x_max":949,"o":"m 214 516 l 214 492 q 237 321 214 401 q 386 103 283 159 q 505 71 444 71 l 530 71 q 717 170 642 71 q 772 289 751 216 q 793 438 793 363 l 793 475 q 770 648 793 567 q 631 857 728 798 q 501 894 569 894 l 477 894 q 370 865 421 894 q 236 679 269 809 q 214 516 214 592 m 559 989 l 552 989 q 374 1084 509 989 q 298 1171 298 1137 l 298 1175 q 318 1210 298 1194 q 361 1225 338 1225 l 373 1225 q 441 1194 401 1225 q 560 1062 481 1162 q 583 1022 583 1032 l 583 1012 q 559 989 583 989 m 949 461 q 916 267 949 359 q 674 8 846 78 q 513 -23 596 -23 l 481 -23 q 319 11 396 -23 q 101 245 163 79 q 64 437 64 347 l 64 469 q 96 658 64 564 q 311 908 156 833 q 497 950 400 950 l 529 950 q 697 916 614 950 q 920 657 861 848 q 949 477 949 563 l 949 461 z "},"":{"ha":1038,"x_min":65,"x_max":948,"o":"m 214 511 l 214 461 q 236 304 214 382 q 389 95 280 147 q 498 70 441 70 l 510 70 q 719 182 637 70 q 771 298 749 224 q 794 456 794 373 l 794 506 q 772 665 794 585 q 639 860 732 804 q 522 895 581 895 l 486 895 q 380 865 434 894 q 238 673 281 812 q 214 511 214 595 m 419 1015 l 419 1022 q 454 1081 419 1031 q 543 1179 490 1132 q 631 1227 597 1227 l 638 1227 l 642 1226 q 683 1212 665 1226 q 701 1181 701 1198 l 701 1173 l 701 1170 q 595 1062 701 1136 q 449 989 490 989 l 446 989 q 419 1015 419 989 m 948 473 l 948 457 q 914 265 948 358 q 684 14 848 84 q 509 -22 601 -22 l 477 -22 q 318 12 395 -22 q 96 263 158 83 q 65 441 65 355 l 65 473 q 98 662 65 571 q 328 914 165 843 q 501 949 408 949 l 517 949 q 831 817 713 949 q 915 671 881 763 q 948 473 948 578 z "},"":{"ha":1041,"x_min":63,"x_max":950,"o":"m 800 452 l 800 501 q 774 657 800 577 q 626 863 724 810 q 506 895 565 895 l 494 895 q 380 868 433 895 q 229 663 271 812 q 208 513 208 585 l 208 500 q 292 188 208 304 q 385 106 330 136 q 501 77 439 77 l 513 77 q 717 176 638 77 q 778 303 756 225 q 800 452 800 380 m 680 996 l 670 996 q 579 1046 652 996 q 502 1097 505 1097 q 469 1077 498 1097 q 324 996 353 996 q 294 1019 294 996 q 379 1124 294 1024 q 498 1224 463 1224 l 510 1224 q 623 1125 539 1224 q 706 1017 706 1027 l 706 1013 q 680 996 706 996 m 950 462 q 950 458 950 462 q 917 269 950 359 q 688 15 852 90 q 506 -22 608 -22 q 182 109 306 -22 q 94 267 124 171 q 63 453 63 363 l 63 469 q 63 473 63 471 q 96 665 63 574 q 321 915 163 846 q 494 952 407 952 l 525 952 q 699 916 620 952 q 916 672 853 844 q 950 477 950 579 l 950 462 z "},"":{"ha":1040,"x_min":64,"x_max":949,"o":"m 209 514 l 209 477 q 233 313 209 392 q 382 106 281 161 q 502 75 440 75 l 514 75 q 723 185 642 75 q 778 308 758 233 q 799 466 799 383 l 799 478 q 776 648 799 566 q 626 861 732 804 q 506 892 569 892 l 494 892 q 290 792 366 892 q 230 666 252 743 q 209 514 209 589 m 412 1181 l 429 1181 q 523 1151 463 1181 q 612 1121 583 1121 q 672 1144 641 1121 q 705 1168 703 1168 q 731 1147 731 1168 l 731 1141 q 683 1050 731 1091 q 590 1010 635 1010 l 585 1010 q 485 1041 549 1010 q 393 1071 420 1071 q 332 1047 366 1071 q 293 1024 298 1024 q 271 1050 271 1024 q 329 1146 271 1093 q 412 1181 367 1181 m 949 463 q 917 272 949 368 q 688 16 854 89 q 513 -22 602 -22 l 497 -22 q 192 99 309 -22 q 98 255 133 160 q 64 439 64 349 l 64 471 q 98 665 64 573 q 324 916 164 845 q 497 951 407 951 l 529 951 q 696 918 618 951 q 828 826 774 885 q 915 673 881 767 q 949 479 949 580 l 949 463 z "},"":{"ha":1040,"x_min":61,"x_max":947,"o":"m 212 525 l 212 475 q 233 315 212 389 q 368 105 276 163 q 484 68 427 68 l 507 68 q 709 176 635 68 q 783 463 783 283 l 782 476 q 782 479 782 476 q 711 773 782 654 q 624 860 681 825 q 499 895 568 895 l 488 895 q 290 793 362 895 q 233 670 254 745 q 212 525 212 596 m 304 1104 l 304 1119 l 307 1133 q 326 1167 307 1147 q 373 1187 346 1187 l 388 1187 q 434 1168 415 1187 q 452 1133 452 1149 q 455 1121 455 1124 l 455 1103 q 435 1058 455 1078 q 398 1038 416 1038 q 391 1037 394 1037 l 378 1036 l 376 1036 l 357 1038 q 321 1059 338 1038 q 304 1104 304 1080 m 707 1076 q 685 1029 707 1051 q 639 1008 663 1008 l 623 1008 q 603 1010 614 1010 q 568 1032 591 1010 q 546 1087 546 1055 l 546 1099 q 571 1157 546 1137 q 613 1178 596 1178 l 627 1180 l 638 1180 q 686 1159 665 1180 q 707 1112 707 1138 l 708 1107 l 708 1084 q 707 1076 707 1078 m 947 460 q 917 277 947 372 q 827 115 887 182 q 683 13 766 49 q 511 -24 600 -24 l 495 -24 q 180 107 298 -24 q 95 256 129 163 q 61 453 61 349 l 62 469 l 62 485 q 95 663 62 572 q 322 913 161 843 q 495 949 405 949 l 527 949 q 700 914 623 949 q 828 822 777 878 q 913 671 879 765 q 947 476 947 578 l 947 460 z "},"":{"ha":726,"x_min":102,"x_max":617,"o":"m 197 507 q 149 553 197 507 q 102 611 102 599 q 120 641 102 623 q 152 659 138 659 q 259 565 165 659 q 361 471 353 471 q 460 565 369 471 q 564 660 551 660 q 595 643 577 660 q 613 612 613 625 q 519 507 613 598 q 425 407 425 416 q 521 305 425 398 q 617 201 617 212 q 598 172 617 190 q 569 154 580 154 q 460 248 557 154 q 360 342 363 342 q 257 248 351 342 q 152 154 163 154 q 122 171 140 154 q 104 201 104 188 q 198 304 104 214 q 292 405 292 395 q 197 507 292 415 z "},"":{"ha":1046,"x_min":80,"x_max":933,"o":"m 220 437 q 247 261 220 348 q 301 175 275 175 q 495 453 321 175 q 669 797 669 730 l 669 805 q 623 863 669 837 q 513 888 577 888 l 504 888 q 304 785 380 888 q 243 655 266 730 q 221 508 221 579 l 220 488 l 220 437 m 766 549 l 766 586 q 741 744 766 688 q 731 757 735 757 l 726 757 q 633 587 722 757 q 505 354 545 418 q 367 108 367 133 q 397 64 367 83 q 480 46 427 46 q 589 81 534 46 q 742 346 691 149 q 766 549 766 437 m 753 949 q 773 958 753 949 q 811 967 792 967 q 841 943 831 967 q 844 889 844 936 q 889 732 844 843 q 933 506 933 621 l 933 488 q 899 288 933 386 q 800 124 864 190 q 458 -12 666 -12 l 331 -3 q 261 -25 304 -3 q 205 -46 217 -46 q 172 -9 172 -46 l 176 39 q 128 192 176 62 q 80 434 80 322 q 115 644 80 546 q 362 908 184 834 q 565 943 446 943 l 690 932 q 753 949 714 932 z "},"":{"ha":1037,"x_min":43,"x_max":975,"o":"m 321 1185 l 321 1195 q 339 1221 321 1208 q 380 1235 357 1235 l 391 1235 q 472 1190 422 1235 q 601 1040 601 1076 l 600 1036 l 600 1033 q 577 1015 600 1015 l 570 1015 q 391 1114 539 1015 q 321 1185 321 1160 m 793 573 q 782 780 793 734 q 759 843 771 825 q 727 879 747 861 q 708 902 708 897 q 809 935 708 935 l 862 935 q 956 926 937 935 q 975 897 975 918 q 933 860 975 884 q 882 807 891 836 q 873 548 873 778 q 865 253 873 318 q 827 134 857 187 q 520 -16 743 -16 q 205 111 298 -16 q 156 224 168 162 q 144 535 144 287 q 129 825 144 783 q 82 868 121 847 q 43 905 43 888 q 138 935 43 935 l 216 935 l 241 935 q 367 909 367 935 q 336 875 367 897 q 296 823 305 854 q 287 649 287 792 l 288 567 l 289 540 l 289 485 l 288 431 q 299 252 288 316 q 550 58 332 58 q 761 191 702 58 q 793 573 793 264 z "},"":{"ha":1037,"x_min":44,"x_max":972,"o":"m 450 1032 l 450 1041 q 550 1143 450 1055 q 669 1232 649 1232 l 676 1232 l 692 1230 q 730 1190 730 1230 l 730 1179 q 663 1102 730 1149 q 478 1013 536 1013 l 474 1013 q 450 1032 450 1013 m 760 214 q 789 511 789 282 q 777 787 789 741 q 755 849 766 833 q 724 884 745 864 q 704 909 704 905 q 780 939 704 939 l 833 939 q 953 929 933 939 q 972 902 972 920 q 933 862 972 885 q 884 809 893 840 q 874 560 874 778 q 866 270 874 342 q 720 39 848 109 q 540 -5 639 -5 l 511 -5 q 190 140 278 -5 q 148 268 156 195 q 140 565 140 340 q 130 818 140 790 q 82 867 119 846 q 44 905 44 888 q 82 933 44 929 q 245 938 121 938 l 298 939 q 371 914 371 939 q 341 883 371 903 q 304 834 312 862 q 296 607 296 806 l 296 527 q 295 420 295 500 q 347 163 295 235 q 556 77 410 77 q 760 214 701 77 z "},"":{"ha":1037,"x_min":39,"x_max":977,"o":"m 524 1232 l 534 1232 q 646 1138 559 1232 q 732 1034 732 1044 q 704 1015 732 1015 l 699 1016 l 694 1016 q 605 1072 677 1016 q 528 1128 532 1128 q 488 1101 524 1128 q 355 1015 377 1015 l 350 1015 q 323 1031 323 1015 l 323 1036 q 410 1138 323 1043 q 524 1232 497 1232 m 748 172 q 790 490 790 249 q 777 784 790 731 q 734 873 764 838 q 704 918 704 909 q 818 937 704 937 q 955 927 932 937 q 977 899 977 918 q 936 858 977 880 q 886 807 895 836 q 878 664 878 779 l 878 507 l 877 479 q 876 373 876 452 q 817 111 876 197 q 702 16 776 50 q 545 -18 629 -18 l 515 -18 q 188 124 277 -18 q 147 241 156 175 q 138 547 138 307 q 127 816 138 787 q 78 866 117 845 q 39 902 39 886 q 83 933 39 928 q 239 937 109 937 l 319 937 q 369 914 369 937 q 339 881 369 902 q 301 833 309 860 q 293 730 293 806 l 293 627 l 294 600 q 294 546 294 573 l 293 492 l 292 410 q 344 149 292 223 q 433 81 379 99 q 556 62 486 62 q 748 172 688 62 z "},"":{"ha":1037,"x_min":37,"x_max":968,"o":"m 377 1036 q 362 1038 372 1038 q 334 1056 353 1038 q 316 1094 316 1074 l 314 1109 l 314 1114 q 333 1164 314 1141 q 383 1187 353 1187 l 398 1187 q 448 1164 429 1187 q 466 1114 466 1141 l 466 1109 q 446 1058 466 1078 q 406 1038 426 1038 l 392 1036 l 384 1036 l 382 1036 l 377 1036 m 730 1120 l 730 1105 q 709 1057 730 1078 q 658 1036 688 1036 l 650 1036 l 648 1036 l 643 1036 q 635 1038 637 1038 q 599 1057 618 1038 q 579 1103 579 1077 l 579 1118 q 599 1165 579 1145 q 640 1185 619 1185 q 647 1187 645 1187 l 657 1187 l 660 1187 l 662 1187 q 710 1167 690 1187 q 730 1120 730 1147 m 532 56 q 781 296 758 56 q 787 554 787 366 q 775 785 787 743 q 732 866 764 828 q 701 905 701 904 q 812 933 701 933 l 839 933 q 968 906 968 933 q 926 858 968 878 q 876 798 884 838 q 867 549 867 759 q 867 512 867 530 q 861 263 867 332 q 709 23 847 96 q 519 -18 631 -18 q 326 12 408 -18 q 195 115 245 43 q 148 230 159 168 q 138 526 138 293 q 130 799 138 760 q 90 857 121 839 q 37 910 37 886 q 138 933 37 933 l 216 933 q 357 903 357 933 q 329 875 357 895 q 291 833 301 855 q 280 663 280 810 l 281 581 l 282 554 l 282 445 q 328 153 282 226 q 407 83 355 110 q 532 56 460 56 z "},"":{"ha":900,"x_min":9,"x_max":871,"o":"m 389 1019 l 389 1029 q 443 1103 389 1034 q 537 1204 498 1173 q 602 1235 577 1235 q 645 1219 626 1235 q 663 1190 663 1202 l 663 1183 l 663 1179 q 590 1113 663 1159 q 412 1002 416 1002 q 389 1019 389 1002 m 212 939 q 321 907 321 939 q 302 880 321 900 q 283 853 283 861 q 411 584 283 808 q 470 505 456 505 q 571 644 492 505 q 650 829 650 783 q 630 878 650 852 q 611 910 611 904 q 765 941 611 941 l 810 941 q 871 919 871 941 q 826 870 871 897 q 750 802 780 844 q 557 463 650 661 q 525 260 525 395 q 537 103 525 125 q 586 63 549 80 q 623 29 623 46 q 561 5 623 5 l 538 5 l 471 7 l 383 6 q 266 32 266 6 q 302 67 266 45 q 350 117 338 88 q 363 268 363 145 q 297 505 363 390 q 122 803 151 764 q 52 865 94 842 q 9 908 9 888 q 32 933 9 928 q 212 939 55 939 z "},"":{"ha":871,"x_min":90,"x_max":798,"o":"m 627 480 l 627 511 q 572 664 627 608 q 433 719 517 719 l 420 719 q 332 686 340 719 q 330 583 330 681 l 330 478 l 328 443 q 328 429 328 436 l 325 355 l 325 328 q 341 285 325 294 q 412 269 370 269 l 424 269 l 429 270 q 572 330 516 270 q 627 480 627 389 m 798 494 q 798 492 798 493 q 773 385 798 438 q 471 227 707 243 q 368 214 378 220 q 342 161 342 201 q 352 105 342 121 q 394 73 363 90 q 425 41 425 56 q 344 12 425 12 l 256 12 l 239 13 l 204 13 l 170 12 q 92 36 92 12 q 129 79 92 60 q 174 129 165 98 q 189 480 189 185 q 174 829 189 776 q 139 869 166 857 q 90 905 90 891 q 113 931 90 926 q 281 937 136 937 l 316 937 l 350 937 q 419 909 419 937 q 391 877 419 894 q 355 845 362 860 q 349 817 349 829 q 360 789 349 800 q 501 767 368 781 q 689 717 635 753 q 798 515 798 644 l 798 514 l 798 494 z "},"":{"ha":851,"x_min":68,"x_max":798,"o":"m 562 -3 q 408 91 408 -3 q 454 144 408 144 q 496 115 465 144 q 551 85 528 85 q 631 117 601 85 q 662 199 662 149 q 616 298 662 249 q 543 359 594 321 q 436 512 437 435 q 498 656 436 574 q 560 792 560 739 q 527 880 560 846 q 445 914 494 914 q 302 800 340 914 q 281 471 281 737 q 281 349 281 410 l 280 290 q 279 201 279 231 q 281 120 279 172 l 283 94 q 287 47 287 59 q 253 -1 287 12 q 151 -8 233 -8 q 68 19 68 -8 q 98 60 68 28 q 136 125 128 92 q 143 281 143 158 q 139 448 143 404 q 121 532 134 492 q 107 591 107 573 q 153 767 107 610 q 448 994 218 994 q 611 941 545 994 q 665 874 646 914 q 685 800 685 835 q 635 677 685 737 q 559 547 559 585 q 630 452 559 509 q 759 334 737 366 q 798 193 798 277 q 729 53 798 109 q 562 -3 661 -3 z "},"":{"ha":712,"x_min":56,"x_max":659,"o":"m 374 317 q 234 277 286 317 q 182 186 182 237 l 182 168 q 209 99 182 129 q 281 69 235 69 l 294 69 q 406 114 356 69 q 437 193 437 142 l 437 275 q 414 319 437 319 l 397 319 q 374 317 385 317 m 391 730 l 383 730 q 259 821 360 730 q 157 937 157 911 l 158 940 q 209 977 158 977 l 224 977 q 288 943 261 977 q 415 754 415 779 l 415 748 q 391 730 415 730 m 659 50 l 659 39 q 629 7 659 26 q 536 -11 599 -11 q 472 20 502 -11 q 436 51 443 51 q 403 37 430 51 q 330 3 376 24 q 214 -18 285 -18 q 100 28 144 -18 q 56 151 56 75 q 113 274 56 227 q 262 344 170 321 q 412 383 405 378 q 438 460 438 401 q 405 553 438 518 q 326 589 372 589 q 257 572 280 589 q 206 509 235 556 q 145 463 178 463 q 83 524 83 463 q 150 613 83 579 q 323 656 233 656 l 340 656 q 526 583 469 656 q 568 368 568 528 l 565 222 q 576 104 565 126 q 610 73 587 81 q 659 50 659 56 z "},"":{"ha":712,"x_min":53,"x_max":661,"o":"m 383 323 q 231 273 295 323 q 184 168 184 236 l 184 158 q 206 96 184 125 q 272 67 229 67 l 286 67 q 395 105 352 67 q 437 189 437 144 q 439 203 439 199 l 439 212 l 439 220 l 440 233 l 440 260 l 441 277 l 441 281 q 418 325 441 325 l 405 325 q 383 323 393 323 m 262 750 l 262 757 q 387 948 262 787 q 458 984 415 984 l 465 984 q 507 970 490 984 q 524 945 524 957 l 524 938 q 449 841 524 916 q 292 730 338 730 l 286 730 q 262 750 262 730 m 324 648 l 342 648 q 530 564 475 648 q 566 317 566 509 q 577 102 566 126 q 625 70 589 79 q 661 41 661 60 q 649 22 661 32 q 538 -7 615 -7 q 473 23 504 -7 q 438 54 442 54 q 361 20 435 54 q 243 -14 287 -14 l 212 -14 q 99 32 144 -14 q 53 144 53 77 l 53 161 q 127 288 53 235 q 287 347 182 327 l 319 352 q 393 370 377 363 q 431 448 431 387 q 401 543 431 508 q 314 578 370 578 q 218 517 257 578 q 132 455 178 455 q 105 469 120 455 q 90 515 90 484 q 161 608 90 567 q 324 648 231 648 z "},"":{"ha":712,"x_min":51,"x_max":663,"o":"m 180 171 l 180 162 q 181 149 181 153 q 209 96 181 120 q 273 71 236 71 l 286 71 q 415 128 364 71 q 439 241 439 156 l 439 254 l 440 267 q 418 319 440 319 l 401 319 l 397 318 l 361 315 q 220 264 277 315 q 180 171 180 228 m 328 979 l 338 979 q 397 941 366 979 q 530 751 530 784 q 500 732 530 732 l 496 732 q 406 796 475 732 q 333 860 336 860 q 257 798 330 860 q 171 736 184 736 q 143 755 143 736 q 191 827 143 760 q 250 911 239 895 q 328 979 294 979 m 323 654 l 340 654 q 532 569 478 654 q 567 321 567 514 q 579 102 567 127 q 627 70 591 77 q 663 41 663 62 q 632 9 663 27 q 540 -8 601 -8 q 476 23 508 -8 q 438 54 444 54 q 359 19 433 54 q 219 -15 286 -15 q 102 27 153 -15 q 51 149 51 68 q 257 343 51 293 q 408 380 404 378 q 435 455 435 398 q 402 548 435 513 q 313 584 370 584 q 216 521 256 584 q 129 458 175 458 q 102 473 117 458 q 87 520 87 488 q 158 614 87 574 q 323 654 230 654 z "},"":{"ha":712,"x_min":56,"x_max":659,"o":"m 179 174 l 179 170 q 205 101 179 130 q 273 71 231 71 l 290 71 q 388 106 338 71 q 437 183 437 140 q 438 196 438 193 l 439 204 l 439 213 l 439 217 q 439 233 439 225 l 440 246 q 418 321 440 321 l 401 321 l 374 318 q 234 275 289 318 q 179 174 179 233 m 244 916 l 260 916 q 350 886 287 916 q 439 857 414 857 q 501 883 465 857 q 539 910 536 910 q 559 891 559 910 l 559 886 q 515 806 559 846 q 430 766 471 766 l 414 766 q 322 795 382 766 q 235 825 262 825 q 173 798 208 825 q 134 771 138 771 q 113 790 113 771 l 113 795 q 159 874 113 833 q 244 916 204 916 m 339 659 q 534 573 479 659 q 566 326 566 524 q 576 105 566 128 q 623 73 587 81 q 659 43 659 64 q 637 15 659 28 q 536 -9 596 -9 q 473 22 503 -9 q 438 53 443 53 q 359 18 433 53 q 215 -16 284 -16 q 100 30 145 -16 q 56 150 56 76 q 104 270 56 224 q 245 341 152 315 q 328 360 262 346 q 411 385 395 374 q 438 461 438 403 q 405 555 438 519 q 314 591 371 591 q 215 528 256 591 q 125 465 174 465 q 98 480 114 465 q 83 526 83 494 q 156 619 83 579 q 339 659 230 659 z "},"":{"ha":712,"x_min":56,"x_max":659,"o":"m 387 319 q 237 275 294 319 q 180 174 180 231 l 180 161 q 204 96 180 123 q 270 68 229 68 l 283 68 q 382 103 333 68 q 431 179 431 138 l 433 187 l 434 204 l 434 213 l 435 221 l 435 238 l 435 251 l 435 289 q 420 320 435 320 l 399 320 q 387 319 390 319 m 220 925 q 237 923 227 923 q 267 904 248 923 q 286 861 286 885 l 286 840 q 265 795 286 816 q 218 774 244 774 l 201 774 q 183 777 193 777 q 156 794 174 777 q 138 829 138 812 q 136 836 136 833 l 135 849 l 135 854 l 138 871 q 156 904 138 886 q 193 923 175 923 l 205 925 l 220 925 m 536 835 q 534 823 536 835 q 515 786 534 806 q 463 766 495 766 l 460 766 l 458 767 l 452 767 l 443 768 q 407 787 426 768 q 388 833 388 806 l 388 848 q 407 894 388 875 q 445 913 427 913 l 457 916 l 469 916 q 488 913 477 913 q 517 896 499 913 q 534 859 534 878 l 536 844 l 536 837 l 536 835 m 339 656 q 534 571 481 656 q 566 323 566 519 q 577 103 566 127 q 623 71 587 79 q 659 41 659 62 q 629 8 659 26 q 553 -11 599 -11 q 486 7 507 -11 q 464 32 480 12 q 438 52 447 52 q 400 37 429 52 q 349 12 370 22 q 215 -18 285 -18 q 101 28 146 -18 q 56 153 56 74 q 262 344 56 290 q 412 383 411 382 q 439 459 439 401 q 405 553 439 517 q 314 589 372 589 q 216 526 257 589 q 126 463 174 463 q 99 478 115 463 q 83 524 83 492 q 157 617 83 578 q 339 656 230 656 z "},"":{"ha":712,"x_min":52,"x_max":664,"o":"m 410 865 l 410 882 q 408 900 408 890 q 387 928 408 911 q 354 945 365 945 l 342 947 l 326 947 q 310 945 320 945 q 282 927 300 945 q 264 894 264 909 l 262 882 l 262 865 q 264 845 264 857 q 285 818 264 834 q 318 801 306 801 l 320 800 l 323 800 l 340 799 q 390 819 370 799 q 410 865 410 840 m 435 295 q 406 319 435 319 l 401 319 l 397 318 q 252 287 315 318 q 190 201 190 256 l 189 197 l 189 192 l 188 174 q 212 95 188 129 q 277 61 235 61 l 298 61 q 412 119 367 61 q 433 236 433 146 l 433 245 l 435 275 l 435 295 m 471 884 l 471 862 q 434 783 471 820 q 355 746 397 746 l 346 745 l 323 745 q 240 780 279 745 q 201 867 201 814 l 201 880 q 238 964 201 926 q 330 1002 276 1002 l 348 1002 q 361 1000 356 1000 q 437 962 404 1000 q 471 884 471 924 m 323 657 l 341 657 q 532 572 479 657 q 568 322 568 515 q 579 106 568 130 q 628 74 591 81 q 664 45 664 66 q 632 13 664 31 q 541 -5 601 -5 q 476 26 508 -5 q 439 57 444 57 q 361 23 435 57 q 220 -12 288 -12 q 102 30 153 -12 q 52 154 52 72 q 109 280 52 235 q 258 347 167 325 q 408 384 404 382 q 435 459 435 402 q 402 552 435 516 q 313 587 370 587 q 216 525 256 587 q 130 462 177 462 q 103 476 118 462 q 87 523 87 491 q 161 618 87 578 q 323 657 234 657 z "},"":{"ha":1062,"x_min":56,"x_max":985,"o":"m 418 325 q 379 321 389 321 l 360 318 q 342 316 346 316 q 228 275 290 316 q 193 206 193 252 l 193 180 q 214 113 193 137 q 290 89 235 89 l 300 89 q 405 119 350 89 q 460 183 460 149 l 460 199 l 459 203 l 458 220 l 457 224 l 457 257 l 458 266 q 439 325 458 325 l 418 325 m 553 405 l 553 396 q 600 368 553 368 l 629 368 l 633 369 l 715 374 l 720 374 l 746 376 q 767 378 758 378 q 836 422 836 378 l 836 435 q 833 456 833 447 q 798 541 833 501 q 712 581 762 581 l 699 581 q 593 529 634 581 q 553 405 553 476 m 574 275 q 623 131 574 186 q 755 75 671 75 q 879 106 808 75 q 951 137 951 137 q 970 117 970 137 q 892 34 970 74 q 741 -6 814 -6 q 537 56 619 -6 q 478 92 490 92 q 425 61 466 92 q 245 -5 336 -5 q 105 38 155 -5 q 56 161 56 81 q 245 345 56 296 q 326 361 271 351 q 399 380 380 370 q 437 439 437 399 q 409 550 437 509 q 331 591 381 591 q 257 573 281 591 q 208 512 232 555 q 152 469 184 469 q 98 524 98 469 q 167 617 98 579 q 312 654 236 654 q 436 635 388 654 q 474 616 439 634 q 520 597 510 597 q 603 627 530 597 q 729 657 676 657 l 753 657 q 917 589 849 657 q 985 427 985 522 q 958 361 985 376 q 786 338 931 347 q 620 325 642 330 q 574 275 574 315 z "},"":{"ha":667,"x_min":66,"x_max":566,"o":"m 323 -292 l 296 -292 q 246 -259 246 -292 q 271 -215 246 -215 q 321 -191 300 -215 q 343 -129 343 -166 l 345 -119 q 326 -79 345 -107 q 307 -45 307 -51 q 311 -35 307 -41 q 91 135 153 -18 q 66 254 66 195 l 66 269 q 84 389 66 327 q 142 495 102 450 q 235 564 181 541 q 342 588 288 588 l 356 588 q 529 549 465 588 q 564 477 564 528 q 525 402 564 402 q 467 445 494 402 q 412 501 439 487 q 338 515 385 515 q 226 453 267 515 q 185 284 185 392 q 236 113 185 176 q 378 50 286 50 q 483 77 436 50 q 533 104 529 104 q 566 76 566 104 q 494 0 566 37 q 379 -36 435 -30 q 420 -81 395 -53 q 484 -162 484 -151 l 484 -168 q 441 -243 484 -209 q 323 -292 378 -292 z "},"":{"ha":697,"x_min":56,"x_max":626,"o":"m 258 389 l 285 389 l 290 389 l 439 396 q 447 397 444 397 q 495 429 495 397 l 495 451 q 493 473 493 465 q 451 565 493 528 q 360 603 408 603 l 351 603 q 243 552 288 603 q 198 437 198 502 l 197 428 l 197 419 q 228 393 197 393 q 258 389 252 389 m 176 938 l 176 945 q 231 983 176 983 l 239 983 q 309 945 275 983 q 433 759 433 805 l 433 753 q 409 735 433 735 l 406 735 q 278 826 380 735 q 176 938 176 916 m 311 332 q 194 283 194 332 q 251 126 194 187 q 401 66 307 66 q 546 109 465 66 q 591 129 583 129 q 614 104 614 129 q 538 27 614 67 q 380 -14 462 -14 l 364 -14 q 140 75 224 -14 q 56 311 56 163 q 81 453 56 387 q 268 637 134 589 q 384 655 317 655 q 553 595 486 655 q 607 517 587 564 q 626 433 626 471 l 626 419 q 583 351 626 363 q 311 332 519 332 z "},"":{"ha":697,"x_min":56,"x_max":626,"o":"m 195 422 l 195 410 q 246 387 195 387 l 264 387 l 269 388 l 338 391 l 382 395 l 429 397 l 449 399 q 492 427 492 399 l 492 455 q 459 560 492 517 q 372 603 426 603 l 353 603 q 246 552 297 603 q 195 422 195 500 m 545 947 l 545 937 q 442 821 545 913 q 312 729 338 729 q 286 752 286 729 l 287 755 q 328 832 287 764 q 406 942 370 901 q 478 983 442 983 l 490 983 q 528 969 510 983 q 545 947 545 956 m 268 332 q 198 271 198 332 q 218 190 198 236 q 401 72 269 72 q 545 114 465 72 q 588 133 580 133 q 610 108 610 133 q 513 20 610 68 q 374 -12 447 -12 l 359 -12 q 227 16 284 -12 q 73 197 111 73 q 56 315 56 256 l 56 330 q 79 456 56 393 q 250 634 125 586 q 364 655 305 655 l 380 655 q 550 592 480 655 q 606 511 587 559 q 626 431 626 463 l 626 416 q 585 349 626 361 q 430 336 545 336 l 372 334 l 358 334 q 330 333 344 333 l 315 332 q 268 332 300 332 z "},"":{"ha":697,"x_min":55,"x_max":629,"o":"m 498 435 l 498 452 l 498 457 q 457 562 498 521 q 368 602 416 602 l 345 602 q 244 548 292 602 q 196 428 196 494 l 196 419 q 223 397 196 397 q 235 395 231 395 l 243 394 l 260 394 l 264 395 l 448 404 l 463 406 q 498 435 498 406 m 357 980 l 368 980 q 450 907 399 980 q 551 757 551 766 l 551 753 q 515 735 551 735 q 433 799 497 735 q 367 863 370 863 q 343 845 363 863 q 313 819 322 827 q 259 771 304 810 q 196 732 213 732 l 191 732 q 165 752 165 732 q 269 905 165 772 q 357 980 328 980 m 195 269 q 252 127 195 186 q 404 68 309 68 q 549 113 465 68 q 592 132 585 132 q 615 106 615 132 q 535 26 615 68 q 377 -15 454 -15 l 362 -15 q 151 63 231 -15 q 55 313 55 156 l 55 328 q 79 460 55 395 q 237 631 125 582 q 365 657 297 657 l 380 657 q 559 588 490 657 q 629 416 629 518 q 584 347 629 360 q 386 333 540 333 l 372 332 q 342 332 357 332 l 328 331 q 274 330 314 330 q 214 316 233 330 q 195 269 195 301 z "},"":{"ha":697,"x_min":55,"x_max":629,"o":"m 195 427 l 195 414 q 230 395 195 395 l 250 393 l 254 393 l 433 402 q 460 406 453 406 q 496 436 496 406 l 496 449 l 495 454 q 458 558 495 517 q 362 600 421 600 l 357 600 q 243 547 290 600 q 195 427 195 493 m 227 774 q 209 777 218 777 q 181 794 199 777 q 163 829 163 812 l 161 839 l 161 844 l 161 851 q 179 901 161 879 q 216 922 197 922 q 224 924 222 924 l 233 925 l 243 925 q 289 907 267 925 q 311 858 311 889 l 311 843 q 292 796 311 816 q 254 777 272 777 l 241 774 l 227 774 m 486 919 l 493 919 q 543 899 523 919 q 562 852 562 880 l 562 838 q 542 791 562 811 q 496 770 522 770 l 479 770 q 461 772 471 772 q 433 791 452 772 q 414 841 414 810 l 414 846 l 416 865 q 436 900 416 880 q 486 919 455 919 m 193 266 q 251 122 193 182 q 404 62 309 62 q 481 76 448 62 q 552 107 515 89 q 595 125 588 125 q 618 100 618 125 q 593 60 618 87 q 512 7 568 33 q 382 -18 456 -18 l 366 -18 q 152 58 233 -18 q 55 309 55 148 l 55 325 q 55 328 55 326 q 77 446 55 383 q 255 634 125 582 q 370 656 309 656 l 385 656 q 555 595 488 656 q 611 517 592 563 q 629 433 629 471 l 629 418 q 586 349 629 362 q 407 334 559 341 q 241 323 255 327 q 193 266 193 311 z "},"":{"ha":428,"x_min":22,"x_max":374,"o":"m 22 944 l 22 954 q 68 987 22 987 l 83 987 q 94 985 90 985 q 151 949 123 985 q 279 755 279 785 l 279 749 q 255 732 279 732 l 252 732 l 248 732 q 127 825 231 732 q 22 944 22 918 m 151 485 q 150 519 150 496 q 139 558 150 543 q 94 583 127 574 q 60 609 60 591 q 76 632 60 623 q 232 658 123 658 q 277 632 272 658 q 282 495 282 606 l 282 374 l 283 342 l 283 311 l 283 279 q 283 248 283 264 l 286 177 q 286 136 286 167 q 296 90 286 105 q 340 59 307 74 q 374 30 374 45 q 212 5 374 5 l 182 4 l 162 4 l 132 3 l 121 3 q 66 30 66 3 q 99 63 66 49 q 141 93 132 77 q 150 152 150 108 l 151 172 l 152 192 l 152 213 l 153 234 l 153 433 l 151 485 z "},"":{"ha":428,"x_min":59,"x_max":387,"o":"m 387 950 l 387 937 q 283 823 387 915 q 161 732 180 732 l 158 732 q 135 749 135 732 l 135 753 l 136 755 q 255 945 136 792 q 322 989 289 989 l 340 989 q 387 950 387 989 m 106 3 q 60 28 60 3 q 96 63 60 47 q 141 109 132 78 q 150 326 150 140 q 142 539 150 511 q 97 580 135 568 q 59 608 59 592 q 76 631 59 623 q 237 656 128 656 l 247 656 q 283 633 278 656 q 288 479 288 610 l 288 291 l 288 270 q 288 239 288 254 l 290 178 q 302 90 290 107 q 345 60 313 72 q 377 31 377 48 q 200 5 377 5 l 127 3 l 106 3 z "},"":{"ha":429,"x_min":13,"x_max":399,"o":"m 153 957 q 207 987 178 987 q 263 957 236 987 q 320 880 273 946 q 383 793 367 814 q 399 766 399 772 l 399 762 q 369 744 399 744 l 364 744 q 285 803 349 744 l 206 876 q 133 810 204 876 q 38 745 62 745 q 13 763 13 745 q 153 957 13 792 m 96 -5 q 60 20 60 -5 q 96 54 60 39 q 138 87 131 68 q 151 235 151 121 l 151 416 l 149 458 q 137 551 149 534 q 91 577 124 568 q 58 605 58 587 q 74 629 58 620 q 237 654 123 654 l 247 654 q 283 631 278 654 q 288 486 288 608 l 288 337 l 288 305 l 288 253 l 290 180 q 291 136 291 170 q 306 77 291 101 q 347 52 313 64 q 380 22 380 39 q 201 -4 380 -4 l 138 -5 l 96 -5 z "},"":{"ha":430,"x_min":7,"x_max":412,"o":"m 90 777 l 73 777 q 55 779 64 779 q 27 797 45 779 q 8 838 8 816 l 7 853 q 26 904 7 882 q 79 927 45 927 l 87 927 q 108 925 94 925 q 140 903 123 925 q 158 852 158 881 l 157 850 l 157 845 l 155 828 q 135 796 155 815 q 90 777 116 777 m 412 860 l 412 845 q 392 798 412 818 q 354 779 372 779 l 339 777 l 329 777 q 281 797 302 777 q 261 844 261 817 l 261 859 q 263 877 263 867 q 282 906 263 888 q 319 925 300 925 l 332 927 l 344 927 l 361 924 q 395 903 378 924 q 412 860 412 882 m 111 -7 q 66 20 66 -7 q 100 53 66 39 q 143 82 134 67 q 153 153 153 98 l 154 173 l 155 194 l 155 215 l 155 237 l 155 300 l 156 332 q 148 538 156 512 q 101 576 140 565 q 62 603 62 587 q 77 627 62 619 q 235 653 124 653 l 244 653 q 281 616 277 653 q 284 360 284 591 q 293 97 284 130 q 339 51 302 64 q 376 20 376 37 q 203 -5 376 -5 l 132 -7 l 111 -7 z "},"":{"ha":781,"x_min":72,"x_max":694,"o":"m 555 319 l 555 335 q 515 507 555 446 q 459 556 499 532 q 379 580 420 580 l 372 580 q 303 559 338 580 q 247 500 269 539 q 212 309 212 438 l 212 292 q 257 104 212 174 q 368 35 302 35 l 390 35 q 503 105 459 35 q 555 319 555 191 m 283 743 q 256 761 256 743 q 279 803 256 778 q 302 845 302 827 q 255 896 302 862 q 209 946 209 930 q 238 966 209 966 q 330 944 268 966 q 415 922 393 922 q 472 932 437 922 q 526 943 507 943 q 559 915 559 943 q 547 875 559 901 q 535 827 535 849 q 582 731 535 806 q 694 362 693 552 l 694 342 q 520 12 694 96 q 391 -20 456 -20 l 370 -20 q 162 56 242 -20 q 97 154 121 95 q 72 275 72 213 l 72 315 q 102 444 72 378 q 273 597 157 562 q 397 611 321 611 l 454 609 q 488 638 488 609 q 433 736 488 691 q 352 753 413 753 l 283 743 z "},"":{"ha":841,"x_min":51,"x_max":791,"o":"m 320 926 l 341 926 q 430 897 368 926 q 522 867 492 867 q 583 894 551 867 q 623 920 614 920 q 644 901 644 920 l 644 896 q 600 815 644 855 q 513 776 557 776 l 496 776 q 405 805 464 776 q 316 835 346 835 q 254 808 286 835 q 214 781 222 781 q 193 800 193 781 l 193 806 q 237 885 193 844 q 320 926 281 926 m 336 27 q 180 1 336 1 q 77 3 85 1 q 51 31 51 7 q 85 58 51 42 q 128 94 119 73 q 137 313 137 115 q 130 531 137 511 q 91 566 123 551 q 58 589 58 581 q 79 621 58 611 q 179 644 126 644 q 244 632 233 644 q 264 595 255 621 q 283 570 273 570 q 313 587 288 570 q 485 654 407 654 l 506 654 q 606 628 561 654 q 671 553 650 602 q 702 211 702 485 q 712 90 702 109 q 756 56 722 72 q 791 26 791 40 q 705 -1 791 -1 l 684 -1 l 662 0 l 599 -1 l 578 -1 q 517 31 517 -1 q 540 58 517 37 q 568 91 563 80 q 573 189 573 102 l 570 340 q 542 529 570 481 q 438 576 513 576 q 359 553 401 576 q 293 498 316 530 q 271 317 271 465 l 267 168 q 276 99 267 121 q 310 57 285 77 q 336 27 336 36 z "},"":{"ha":764,"x_min":59,"x_max":694,"o":"m 193 339 q 195 298 193 339 q 253 124 195 205 q 378 58 300 58 l 401 58 q 512 121 468 58 q 557 284 557 184 l 557 334 q 555 359 555 351 q 502 533 555 459 q 372 606 449 606 l 356 606 q 238 542 283 606 q 193 365 193 478 l 193 348 l 193 339 m 189 929 l 189 939 q 242 979 189 979 l 261 979 q 329 940 298 979 q 452 747 452 782 l 452 740 q 428 721 452 721 l 417 721 q 290 811 392 721 q 189 929 189 901 m 368 655 l 390 655 q 509 632 450 655 q 666 474 623 587 q 694 328 694 401 l 694 304 q 671 185 694 248 q 515 11 627 60 q 382 -18 450 -18 l 349 -18 q 241 4 296 -18 q 148 65 186 26 q 84 168 109 104 q 59 297 59 232 l 59 331 q 59 334 59 332 q 84 461 59 398 q 254 633 132 585 q 368 655 308 655 z "},"":{"ha":764,"x_min":58,"x_max":694,"o":"m 193 311 q 241 127 193 201 q 297 77 262 95 q 368 58 332 58 l 376 58 l 384 59 q 460 81 423 59 q 557 329 557 140 l 557 346 q 515 526 557 458 q 457 586 492 566 q 389 606 423 606 l 366 606 q 245 541 295 606 q 195 378 195 475 l 194 361 l 193 336 l 193 311 m 335 722 l 320 722 q 298 744 298 722 l 298 747 q 341 828 298 758 q 419 940 383 899 q 492 981 456 981 l 504 981 q 559 941 559 981 l 559 933 q 457 812 559 902 q 335 722 356 722 m 356 655 l 401 655 q 515 629 457 655 q 676 445 635 576 q 694 328 694 388 l 694 305 q 694 302 694 304 q 671 182 694 245 q 496 3 627 54 q 371 -19 441 -19 l 360 -18 q 146 68 229 -18 q 83 171 108 108 q 58 309 58 234 l 58 331 q 83 456 58 392 q 227 621 127 574 q 356 655 297 655 z "},"":{"ha":764,"x_min":57,"x_max":695,"o":"m 189 363 l 189 331 l 190 323 l 191 307 q 191 292 191 299 q 252 125 191 203 q 371 66 297 66 l 387 66 q 461 85 427 66 q 514 133 495 104 q 560 299 560 204 l 560 355 q 507 530 560 455 q 379 605 454 605 l 371 605 l 363 604 q 238 535 287 604 q 189 363 189 465 m 371 975 l 382 975 q 463 904 412 975 q 566 750 566 759 l 566 746 q 536 726 566 726 l 532 726 q 446 787 512 726 q 375 848 379 848 q 299 788 371 848 q 203 728 228 728 q 178 746 178 728 q 277 890 178 765 q 371 975 343 975 m 695 340 l 695 306 q 671 178 695 242 q 497 3 623 50 q 371 -19 440 -19 l 360 -18 q 241 4 298 -18 q 145 67 184 26 q 82 171 107 107 q 57 309 57 235 l 57 332 q 82 460 57 393 q 245 632 130 585 q 367 658 308 658 l 389 658 q 511 634 450 658 q 671 466 628 589 q 695 340 695 397 z "},"":{"ha":764,"x_min":57,"x_max":695,"o":"m 189 326 q 241 139 189 213 q 371 65 293 65 l 387 65 q 513 132 466 65 q 561 302 561 199 l 561 342 q 503 538 561 456 q 371 604 456 604 l 363 604 q 240 541 291 604 q 190 374 190 479 l 189 358 l 189 326 m 313 916 q 393 887 338 916 q 482 858 448 858 q 549 892 515 858 q 574 907 565 907 q 599 886 599 907 l 599 881 q 552 794 599 834 q 469 755 505 755 l 454 755 q 358 785 421 755 q 264 814 294 814 q 207 789 234 814 q 174 764 179 764 q 148 785 148 764 l 148 791 q 205 884 148 831 q 291 918 242 918 l 296 918 q 313 916 307 916 m 367 659 l 389 659 q 510 635 449 659 q 671 467 623 591 q 695 330 695 403 l 695 307 q 670 179 694 241 q 496 4 619 51 q 371 -18 439 -18 l 359 -17 q 81 174 157 -17 q 57 311 57 236 l 57 334 q 81 460 57 395 q 145 566 106 525 q 243 633 184 607 q 367 659 302 659 z "},"":{"ha":764,"x_min":58,"x_max":696,"o":"m 547 335 l 546 375 q 488 547 546 472 q 380 606 444 606 l 357 606 q 239 538 283 606 q 195 362 195 470 l 195 321 l 195 312 l 196 296 q 197 281 197 288 q 250 122 197 187 q 378 58 302 58 l 385 58 q 458 80 426 58 q 548 310 548 138 l 548 327 l 547 335 m 258 774 l 250 774 q 200 794 220 774 q 180 838 180 814 l 180 858 q 199 903 180 883 q 237 922 219 922 l 250 924 l 264 924 q 281 922 271 922 q 311 903 292 922 q 330 850 330 884 l 330 848 l 327 826 q 308 793 327 812 q 258 774 288 774 m 577 833 q 555 777 577 799 q 510 755 533 755 l 491 755 q 472 757 483 757 q 442 777 462 757 q 422 818 422 797 l 420 834 l 420 842 q 441 894 420 873 q 483 916 463 916 l 496 918 l 512 918 l 522 916 q 556 897 537 916 q 575 854 575 878 l 577 838 l 577 833 m 357 656 l 401 656 q 525 627 467 656 q 671 465 635 572 q 696 328 696 395 l 696 305 q 671 179 696 243 q 507 5 623 52 q 383 -20 444 -20 l 360 -20 q 240 3 297 -20 q 82 172 129 49 q 58 309 58 236 l 58 332 q 83 460 58 396 q 227 623 128 576 q 357 656 297 656 z "},"":{"ha":753,"x_min":72,"x_max":681,"o":"m 395 705 q 436 683 418 705 q 455 632 455 661 l 455 629 q 432 574 455 597 q 374 551 410 551 l 371 551 q 319 570 341 551 q 296 609 296 589 q 295 616 295 614 l 294 627 l 294 632 l 294 635 l 294 640 q 296 647 296 645 q 319 688 296 668 q 367 707 342 707 l 382 707 q 395 705 391 705 m 681 418 l 681 397 q 665 362 681 366 q 372 359 649 359 l 352 359 l 324 358 l 119 358 q 72 382 72 358 l 72 395 l 73 402 q 89 437 73 433 q 380 441 106 441 l 414 442 l 634 442 q 681 418 681 442 m 380 102 l 368 102 q 318 121 340 102 q 296 159 296 140 l 294 172 l 294 184 q 314 228 294 203 q 370 253 335 253 l 383 253 q 434 234 410 253 q 457 184 457 214 l 457 174 q 435 125 457 147 q 380 102 412 102 z "},"":{"ha":774,"x_min":67,"x_max":688,"o":"m 195 307 q 225 163 195 222 q 237 150 232 150 q 319 251 252 150 q 476 539 476 487 l 476 555 q 454 586 476 568 q 395 605 431 605 l 370 605 q 245 536 293 605 q 197 379 197 467 l 197 372 l 196 366 l 195 347 l 195 307 m 545 433 q 530 503 545 503 q 500 451 526 503 q 383 239 474 400 q 292 77 292 77 q 350 42 292 42 l 360 42 q 474 112 429 42 q 541 339 541 215 q 543 364 543 358 l 545 400 l 545 433 m 612 705 q 638 675 638 705 q 631 638 638 669 q 624 589 624 608 q 642 535 624 571 q 688 357 688 439 l 688 329 q 660 183 688 254 q 577 67 631 113 q 466 5 524 21 q 328 -11 409 -11 l 269 -8 q 205 -33 238 -8 q 153 -58 172 -58 l 144 -58 q 121 -33 121 -58 q 129 5 121 -22 q 136 47 136 32 q 115 111 136 62 q 92 166 94 160 q 67 306 67 230 l 68 320 l 68 334 q 96 464 68 400 q 416 661 182 661 q 452 659 429 661 l 497 656 q 554 681 514 656 q 612 705 594 705 z "},"":{"ha":819,"x_min":28,"x_max":749,"o":"m 204 937 l 204 947 q 255 986 204 986 l 262 986 l 265 985 q 332 946 297 985 q 466 755 466 795 l 466 753 q 444 736 466 736 l 437 736 q 286 845 426 736 q 204 937 204 908 m 382 76 q 468 102 426 76 q 526 162 509 129 q 543 357 543 196 q 536 539 543 519 q 503 580 530 560 q 475 608 475 600 q 642 646 475 646 q 678 584 678 646 l 677 565 q 675 468 675 510 l 675 448 q 675 409 675 429 l 674 369 l 674 330 q 682 120 674 144 q 705 85 689 96 l 730 71 q 749 54 749 59 l 749 43 q 724 20 749 34 q 643 6 698 6 q 574 16 587 6 q 550 52 560 25 q 526 79 540 79 q 491 56 524 79 q 418 15 458 33 q 321 -3 379 -3 q 156 76 201 -3 q 119 349 119 141 l 118 369 q 118 408 118 389 l 117 428 q 117 493 117 448 q 105 556 117 538 q 61 585 94 574 q 28 610 28 596 q 173 647 28 647 l 191 647 q 234 628 223 647 q 245 484 245 610 l 247 405 l 248 366 l 250 244 q 281 117 250 157 q 382 76 312 76 z "},"":{"ha":815,"x_min":29,"x_max":754,"o":"m 312 751 l 312 758 q 450 952 312 775 q 511 987 477 987 l 526 987 q 572 951 572 987 l 572 940 q 480 836 572 907 q 339 736 352 736 l 332 736 q 312 751 312 736 m 677 168 q 722 71 677 94 q 754 48 754 54 l 754 37 q 728 15 754 28 q 646 1 703 1 q 575 10 590 1 q 551 47 561 20 q 526 74 541 74 q 491 53 522 74 q 419 12 460 31 q 316 -8 378 -8 q 145 85 191 -8 q 116 333 116 146 q 109 542 116 520 q 79 575 102 564 q 29 608 29 599 q 56 637 29 631 q 193 650 111 650 q 241 618 233 650 q 253 374 253 572 q 275 134 253 176 q 383 77 305 77 q 470 104 429 77 q 525 162 511 131 q 540 358 540 194 q 533 545 540 522 q 499 586 526 568 q 473 614 473 604 q 623 651 473 651 l 642 651 q 679 587 679 651 l 676 508 l 675 448 q 675 328 675 388 l 676 249 l 677 229 q 677 168 677 210 z "},"":{"ha":815,"x_min":26,"x_max":758,"o":"m 386 985 l 391 985 q 446 956 421 985 q 583 765 583 793 l 583 760 q 552 743 583 743 l 547 743 q 461 808 532 743 q 388 873 390 873 q 316 808 387 873 q 226 743 245 743 q 196 762 196 743 l 196 766 q 236 824 196 773 q 301 910 277 876 q 386 985 355 985 m 382 67 q 471 95 430 67 q 527 154 513 123 q 541 351 541 185 q 533 541 541 517 q 499 583 526 564 q 472 612 472 602 q 625 648 472 648 l 644 648 q 681 583 681 648 q 680 543 681 583 l 677 483 l 677 422 q 677 361 677 391 l 677 320 l 677 280 l 679 241 q 680 170 680 221 q 691 97 680 119 q 730 59 702 75 q 758 38 758 44 l 758 28 q 732 5 758 18 q 649 -9 706 -9 q 577 1 592 -9 q 552 39 562 12 q 528 66 541 66 q 491 44 526 66 q 416 2 456 21 q 313 -17 376 -17 q 207 8 250 -17 q 139 86 163 34 q 115 327 115 138 q 107 539 115 516 q 77 574 100 563 q 26 607 26 597 q 53 636 26 629 q 191 648 102 648 q 237 629 224 648 q 249 485 249 610 l 250 446 q 251 406 251 426 l 252 366 q 252 326 252 346 q 274 125 252 168 q 382 67 304 67 z "},"":{"ha":818,"x_min":23,"x_max":750,"o":"m 266 775 l 248 775 q 204 794 223 775 q 186 827 186 812 q 183 840 183 837 l 183 859 q 184 867 184 865 q 205 905 184 885 q 253 926 225 926 l 263 926 q 315 903 297 926 q 333 859 333 880 l 333 841 q 332 825 332 836 q 312 795 332 814 q 266 775 292 775 m 525 926 q 544 924 533 924 q 574 905 555 924 q 593 859 593 886 l 593 844 q 573 797 593 817 q 535 777 553 777 l 523 775 l 508 775 q 490 777 500 777 q 461 797 481 777 q 442 845 442 816 l 442 854 l 445 871 q 463 905 445 887 q 500 924 481 924 l 513 926 l 525 926 m 673 239 q 681 111 673 134 q 705 76 688 88 l 718 68 l 732 62 q 750 44 750 51 l 750 33 q 724 10 750 24 q 642 -4 698 -4 q 573 5 587 -4 q 549 41 560 14 q 534 68 537 68 q 494 49 522 68 q 316 -14 407 -14 q 314 -14 315 -14 q 216 7 260 -14 q 151 68 173 28 q 114 384 114 133 q 105 538 114 513 q 73 574 97 563 q 23 606 23 598 q 171 643 23 643 l 189 643 q 232 624 220 643 q 243 476 243 605 l 243 436 l 244 416 l 246 296 q 247 254 247 275 q 279 106 247 148 q 381 64 311 64 q 467 92 424 64 q 526 153 511 119 q 542 351 542 187 q 535 535 542 514 q 500 575 528 556 q 471 604 471 595 q 623 643 471 643 l 642 643 q 677 580 677 643 l 674 463 q 674 403 674 433 l 673 363 l 673 239 z "},"":{"ha":748,"x_min":39,"x_max":707,"o":"m 319 753 l 319 760 q 450 956 319 787 q 509 987 475 987 l 512 987 q 557 972 539 987 q 574 943 574 957 l 574 940 q 468 825 574 919 q 349 730 361 730 l 346 730 q 319 753 319 730 m 265 -251 q 241 -268 265 -251 q 173 -286 218 -286 q 106 -268 128 -286 q 84 -226 84 -250 q 138 -181 84 -181 q 161 -186 139 -181 q 197 -191 183 -191 q 278 -133 236 -191 q 319 -1 319 -74 q 186 329 319 42 q 142 430 170 363 q 77 546 115 497 q 39 618 39 595 q 53 631 39 624 q 191 649 86 649 q 262 617 262 649 q 254 597 262 614 q 245 563 245 581 q 367 230 245 503 q 404 174 392 174 q 440 229 415 174 q 540 546 540 445 q 518 597 540 574 q 496 629 496 621 q 594 651 496 651 l 638 651 q 707 630 707 651 l 707 618 q 672 568 707 608 q 629 511 637 528 q 598 435 621 494 q 557 329 576 376 q 528 250 539 283 l 496 168 q 362 -129 413 -43 q 265 -251 312 -215 z "},"":{"ha":810,"x_min":47,"x_max":733,"o":"m 583 376 q 536 534 583 468 q 430 600 490 600 l 423 600 q 336 573 379 600 q 280 519 294 547 q 266 296 266 492 l 266 280 l 265 257 l 265 241 l 264 211 l 264 165 q 303 76 264 107 q 416 45 341 45 q 538 120 492 45 q 584 309 584 195 l 584 351 q 583 376 583 368 m 280 -25 q 274 -40 280 -25 q 268 -113 268 -54 q 277 -193 268 -172 q 316 -235 286 -213 q 346 -269 346 -258 q 233 -303 346 -303 l 152 -303 q 60 -279 60 -303 q 85 -244 60 -264 q 118 -196 111 -224 q 125 -116 125 -168 q 127 -23 125 -64 l 133 186 q 133 314 133 250 l 132 335 l 132 462 q 125 831 132 787 q 93 893 118 875 q 47 939 47 927 l 54 948 q 201 978 92 978 q 250 945 237 978 q 263 791 263 913 l 264 709 q 289 610 264 610 q 361 633 301 610 q 471 656 419 656 q 650 586 581 656 q 711 483 689 547 q 733 355 733 418 l 733 333 q 709 200 733 268 q 536 20 661 67 q 414 -1 482 -1 l 338 3 q 280 -25 293 3 z "},"":{"ha":755,"x_min":62,"x_max":706,"o":"m 259 777 l 252 777 q 201 797 221 777 q 181 844 181 817 l 181 862 q 182 869 182 866 q 202 908 182 888 q 248 928 222 928 l 266 928 q 311 909 292 928 q 330 869 330 890 l 331 863 l 331 844 q 310 798 331 819 q 259 777 290 777 m 510 778 q 464 797 483 778 q 445 833 445 816 q 444 840 444 837 l 442 852 l 442 855 q 462 906 442 886 q 498 926 481 926 q 505 927 503 927 l 515 928 l 523 928 q 575 906 557 928 q 593 863 593 883 l 593 846 q 573 799 593 819 q 532 779 553 779 q 526 778 528 778 l 515 777 l 513 778 l 510 778 m 62 604 q 212 646 62 646 q 274 621 274 646 q 265 594 274 612 q 256 556 256 576 q 377 222 256 502 q 413 171 399 171 q 449 229 422 171 q 547 545 547 439 q 524 594 547 570 q 500 627 500 618 q 601 648 500 648 l 623 648 q 706 624 706 648 q 673 571 706 608 q 631 516 640 535 q 574 366 622 498 l 544 282 q 387 -102 441 -7 q 188 -289 281 -289 q 96 -224 96 -289 q 159 -185 96 -185 l 190 -192 q 220 -195 203 -195 q 296 -134 258 -195 q 334 2 334 -74 q 208 305 334 34 q 162 415 190 345 q 98 535 134 486 q 62 604 62 585 z "},"":{"ha":443,"x_min":66,"x_max":390,"o":"m 116 -2 q 68 23 68 -2 q 104 58 68 41 q 146 90 140 75 q 159 315 159 121 q 159 346 159 330 l 160 367 l 160 388 l 159 398 q 159 420 159 409 l 158 461 q 145 554 158 538 q 99 580 132 571 q 66 609 66 589 q 85 632 66 623 q 248 659 136 659 q 296 623 290 659 q 298 394 298 609 l 298 373 l 298 319 l 299 288 q 299 235 299 262 l 300 194 q 301 174 301 184 q 317 81 301 104 q 357 56 323 71 q 390 24 390 41 q 211 -1 390 -1 l 138 -2 l 116 -2 z "},"":{"ha":849,"x_min":92,"x_max":805,"o":"m 419 899 q 388 854 419 883 q 347 793 356 826 q 338 656 338 760 q 374 552 338 552 q 450 576 392 552 q 528 600 508 600 q 547 588 547 600 q 473 500 547 548 q 366 405 399 452 q 334 247 334 357 q 367 103 334 136 q 502 71 401 71 q 645 99 602 71 q 726 181 688 127 q 785 234 764 234 q 805 182 805 234 q 771 40 805 77 q 628 3 737 3 l 581 2 l 221 0 l 173 -1 q 92 21 92 -1 q 125 58 92 30 q 171 120 159 87 q 183 228 183 154 q 168 323 183 301 q 127 340 163 329 q 92 370 92 351 q 128 426 92 385 q 174 504 165 467 q 184 661 184 540 q 174 810 184 783 q 129 862 164 838 q 94 899 94 886 q 174 930 94 930 l 295 930 q 419 899 419 930 z "},"":{"ha":464,"x_min":56,"x_max":418,"o":"m 94 391 q 56 413 56 391 q 101 469 56 435 q 156 534 145 504 q 167 713 167 564 q 155 881 167 862 q 111 911 142 900 q 79 930 79 922 q 109 962 79 952 q 239 985 178 985 l 254 985 q 294 963 283 985 q 306 868 305 940 l 306 739 q 336 600 306 600 q 362 608 343 600 q 396 616 381 616 q 418 592 418 616 q 372 534 418 568 q 313 459 326 501 q 300 272 300 417 q 315 89 300 126 q 356 54 323 70 q 390 24 390 37 q 270 3 390 3 l 253 3 q 220 2 236 2 l 188 1 l 156 1 l 140 1 q 83 30 83 1 q 111 55 83 37 q 150 103 138 73 q 161 232 161 134 q 149 369 161 330 q 115 392 141 392 l 94 391 z "},"":{"ha":1080,"x_min":56,"x_max":992,"o":"m 682 1227 l 690 1227 q 739 1189 739 1227 l 739 1173 q 701 1117 739 1146 q 610 1078 688 1106 q 522 1013 601 1075 q 469 991 493 991 l 465 990 q 457 1001 457 990 l 457 1007 l 458 1010 l 459 1025 q 510 1108 459 1063 q 682 1227 646 1227 m 893 242 q 889 73 893 99 q 843 31 882 31 q 736 121 812 31 q 468 474 661 212 q 250 736 275 736 q 237 517 237 736 q 250 226 237 298 q 294 107 264 154 q 324 56 324 60 l 316 44 q 127 22 285 22 l 95 22 q 56 40 56 22 q 100 79 56 58 q 153 134 144 101 q 173 621 173 204 q 153 807 173 760 q 104 861 144 829 q 64 898 64 893 q 135 928 64 928 q 246 916 205 928 q 328 863 287 904 q 460 701 369 822 q 582 543 551 580 q 707 383 612 505 q 806 261 802 261 q 827 497 827 261 q 816 786 827 733 q 777 863 805 838 q 730 905 730 903 q 835 939 730 939 l 899 939 q 992 905 992 939 q 956 871 992 898 q 907 809 919 844 q 895 629 895 774 l 893 469 l 893 242 z "},"":{"ha":846,"x_min":59,"x_max":787,"o":"m 619 946 l 619 937 q 505 825 619 928 q 374 723 391 723 l 370 723 q 350 736 350 723 l 350 739 q 386 806 350 741 q 468 924 421 871 q 550 977 514 977 l 563 977 q 619 946 619 977 m 439 574 q 355 548 399 574 q 295 481 311 521 q 269 157 269 416 q 279 102 269 118 q 305 69 289 85 q 321 43 321 53 q 273 22 321 22 l 255 22 l 137 25 q 59 53 59 25 q 91 79 59 62 q 132 116 123 96 q 140 256 140 136 l 137 394 q 130 524 137 500 q 100 564 123 547 q 77 590 77 581 q 90 609 77 599 q 218 637 128 637 q 265 601 252 637 q 291 564 278 564 q 328 588 294 564 q 500 654 420 654 q 667 559 619 654 q 699 310 699 496 q 707 105 699 124 q 751 68 715 85 q 787 33 787 52 q 707 23 787 23 l 586 18 l 566 18 q 526 51 526 18 q 542 67 526 54 q 563 90 557 81 q 569 157 569 100 l 566 343 q 537 527 566 480 q 439 574 507 574 z "},"":{"ha":1381,"x_min":61,"x_max":1265,"o":"m 218 523 l 218 447 q 219 410 219 422 q 244 273 219 345 q 315 151 270 201 q 517 52 402 52 q 534 52 526 52 q 657 110 637 52 q 667 478 667 137 l 668 513 l 668 537 l 669 573 l 669 734 q 650 842 669 819 q 522 886 614 886 l 500 886 q 290 767 380 886 q 239 661 260 728 q 218 523 218 593 m 1236 812 q 1221 778 1236 778 q 1183 799 1213 778 q 1089 840 1154 821 q 955 859 1024 859 q 862 823 885 859 q 828 648 828 768 q 846 572 828 595 q 957 536 876 536 q 1030 563 991 536 q 1078 589 1068 589 l 1097 583 q 1122 486 1122 563 q 1102 389 1122 408 l 1085 380 q 1031 409 1071 380 q 936 437 991 437 q 821 309 821 437 q 842 140 821 180 q 885 89 862 100 q 975 77 909 77 q 1100 98 1042 77 q 1199 147 1158 118 q 1251 176 1240 176 q 1265 133 1265 175 q 1183 18 1265 50 q 986 0 1138 0 q 779 5 833 0 q 713 11 725 11 l 500 -6 q 96 257 195 -6 q 61 444 61 349 l 61 477 q 94 661 61 570 q 191 818 127 753 q 520 943 313 943 l 522 943 l 554 942 l 585 940 l 646 933 q 761 932 661 932 l 970 937 q 1171 923 1133 937 q 1236 812 1236 900 z "},"":{"ha":1185,"x_min":50,"x_max":1111,"o":"m 195 379 l 195 346 l 196 337 l 197 320 q 197 304 197 311 q 244 122 197 195 q 360 49 292 49 l 384 49 q 493 100 449 49 q 537 245 537 151 l 538 260 l 539 294 l 539 302 q 486 529 539 441 q 429 586 464 565 q 361 608 394 608 l 338 608 q 236 545 277 608 q 195 379 195 481 m 844 607 l 826 607 q 721 550 766 607 q 677 424 677 492 l 677 420 l 677 415 q 729 390 677 390 l 751 390 l 755 391 l 902 399 q 926 401 921 401 q 971 438 971 401 l 971 456 l 970 460 q 933 565 970 524 q 844 607 897 607 m 985 23 q 954 9 985 23 q 849 -5 924 -5 q 731 15 774 -5 q 655 60 689 35 q 608 86 621 86 q 607 86 608 86 q 553 57 594 86 q 363 -8 463 -8 q 143 72 224 -8 q 50 328 50 163 q 50 332 50 330 q 71 456 50 393 q 138 571 92 522 q 367 667 226 667 l 369 667 q 491 646 448 667 q 574 596 535 626 q 618 566 614 566 q 662 596 623 566 q 862 665 752 665 q 1041 600 972 665 q 1092 519 1074 569 q 1111 420 1111 470 q 1065 355 1111 370 q 898 341 1041 348 q 732 329 755 334 q 684 273 684 319 q 739 135 684 193 q 871 77 793 77 q 1023 120 949 77 q 1070 142 1062 142 q 1095 120 1095 142 q 1080 92 1095 109 q 985 23 1046 51 z "},"":{"ha":747,"x_min":79,"x_max":677,"o":"m 214 1223 l 223 1223 q 308 1165 239 1223 q 384 1107 376 1107 q 455 1165 392 1107 q 542 1223 518 1223 l 547 1223 q 568 1206 568 1223 q 489 1106 568 1202 q 386 1010 409 1010 l 372 1010 q 269 1104 347 1010 q 191 1202 191 1198 l 191 1206 q 214 1223 191 1223 m 496 834 q 363 876 441 876 q 242 836 286 876 q 199 730 199 796 q 262 614 199 665 q 427 526 306 578 q 612 406 547 474 q 677 233 677 338 q 593 57 677 127 q 372 -14 509 -14 q 113 29 234 -14 q 79 113 79 41 l 79 136 q 104 252 79 252 q 162 188 136 252 q 220 100 189 124 q 379 50 290 50 q 515 95 468 50 q 562 201 562 141 q 493 339 562 285 q 333 425 472 356 q 142 553 194 493 q 90 705 90 612 q 159 862 90 797 q 245 913 192 892 q 353 935 298 935 l 377 935 q 479 920 423 935 q 556 906 536 906 l 574 908 l 592 909 q 633 878 625 909 q 638 777 638 857 q 611 697 638 697 q 557 753 583 697 q 496 834 530 808 z "},"":{"ha":588,"x_min":75,"x_max":532,"o":"m 463 958 l 472 958 q 490 947 490 958 q 448 886 490 936 q 384 802 406 836 q 309 726 335 726 l 294 726 q 216 795 266 726 q 153 877 187 836 q 119 930 119 918 q 144 949 119 949 q 210 915 169 949 q 276 856 250 881 q 305 830 301 830 q 332 854 309 830 q 463 958 428 958 l 463 958 m 482 301 q 507 279 482 301 q 532 181 532 257 q 471 54 532 104 q 300 3 410 3 l 283 3 q 100 35 151 3 q 75 100 75 50 l 75 133 q 110 201 75 201 q 150 152 123 201 q 209 81 176 103 q 299 58 242 58 q 390 84 357 58 q 424 155 424 109 q 388 229 424 200 q 260 295 352 257 q 126 376 168 334 q 84 489 84 418 q 145 606 84 561 q 312 652 206 652 q 475 629 418 652 q 504 545 504 617 q 479 473 504 473 q 429 517 454 473 q 375 579 403 561 q 295 597 347 597 q 216 572 243 597 q 189 507 189 547 q 235 433 189 467 q 345 381 258 416 q 482 301 432 346 z "},"":{"ha":880,"x_min":37,"x_max":841,"o":"m 326 1031 l 317 1031 l 296 1035 q 267 1053 281 1035 q 253 1084 253 1070 l 251 1095 l 251 1112 q 271 1158 251 1138 q 317 1178 291 1178 l 332 1178 l 351 1175 q 375 1161 358 1175 q 393 1129 393 1147 q 394 1122 394 1124 l 395 1112 l 395 1100 l 393 1083 q 374 1050 393 1069 q 326 1031 355 1031 m 584 1031 l 574 1031 q 525 1053 542 1031 q 508 1101 508 1074 l 508 1108 l 511 1129 q 530 1160 511 1141 q 572 1178 548 1178 l 592 1178 q 634 1161 617 1178 q 650 1129 650 1145 q 652 1122 652 1125 l 653 1112 l 653 1100 l 650 1084 q 629 1049 650 1066 q 584 1031 607 1031 m 83 836 q 60 851 83 836 q 37 893 37 866 q 244 921 37 921 q 315 894 315 921 q 295 865 315 886 q 274 825 274 844 q 398 566 274 774 q 456 493 441 493 q 499 551 470 493 q 627 840 627 802 q 610 880 627 859 q 593 903 593 902 q 655 927 593 927 l 675 928 l 696 929 q 740 930 739 930 q 841 895 841 930 q 793 854 841 882 q 711 774 745 826 q 530 435 640 663 q 491 173 491 355 q 504 85 491 100 q 559 52 517 70 q 600 22 600 35 q 553 -11 600 -11 l 511 -11 l 449 -9 q 364 -7 386 -7 q 271 23 271 -7 q 308 60 271 40 q 359 109 345 80 q 372 254 372 138 q 317 474 372 370 q 164 753 199 700 q 83 836 130 806 z "},"":{"ha":846,"x_min":73,"x_max":766,"o":"m 264 1222 l 273 1222 q 357 1171 293 1222 q 396 1135 367 1164 q 432 1105 425 1105 q 503 1158 439 1105 q 596 1211 567 1211 q 625 1190 625 1211 q 539 1090 625 1175 q 430 1004 454 1004 q 345 1084 406 1004 q 285 1148 332 1101 q 238 1206 238 1195 q 264 1222 238 1222 m 208 19 q 128 18 183 18 q 73 59 73 18 q 320 458 73 107 q 566 848 566 808 q 453 869 566 869 q 208 843 257 869 q 150 771 176 826 q 103 717 124 717 q 76 793 76 717 q 89 902 76 869 q 159 935 102 935 l 183 934 l 208 933 l 259 932 l 390 931 l 547 928 l 572 930 q 625 932 597 931 l 702 935 q 751 886 751 935 q 631 694 751 863 q 421 369 593 638 q 250 94 250 100 q 425 77 250 77 q 638 102 600 77 q 692 176 664 119 q 740 232 720 232 q 766 194 766 232 l 766 171 q 738 37 766 75 q 659 14 720 14 l 610 14 l 585 14 l 459 16 l 283 22 l 258 21 l 208 19 z "},"":{"ha":650,"x_min":63,"x_max":591,"o":"m 334 734 l 330 734 q 245 815 308 734 q 185 889 227 840 q 144 946 144 938 l 144 950 q 174 967 144 967 q 292 871 205 967 q 330 836 326 836 q 356 856 335 836 q 424 917 376 877 q 495 958 472 958 q 519 941 519 958 l 519 937 l 422 811 q 334 734 362 734 m 63 44 q 237 310 63 64 q 412 572 412 555 q 307 587 412 587 q 180 572 203 587 q 135 516 157 557 q 99 475 113 475 q 73 538 73 475 q 87 631 73 601 q 122 648 96 648 l 138 647 l 155 646 q 191 645 191 645 l 340 642 l 359 642 l 396 641 l 526 646 q 574 626 574 646 q 400 355 574 605 q 227 85 227 104 q 335 75 227 75 q 474 90 443 75 q 527 150 505 105 q 576 194 549 194 q 591 157 591 194 q 576 37 591 77 q 528 9 565 9 l 510 9 l 492 10 l 346 16 l 218 18 l 199 17 l 180 16 l 125 15 q 63 44 63 15 z "},"":{"ha":600,"x_min":-48,"x_max":631,"o":"m 193 342 q 198 374 193 342 q 203 460 203 406 q 178 547 203 514 q 155 568 176 550 q 134 597 134 586 q 174 633 134 603 q 230 690 214 663 q 257 751 245 717 q 287 828 269 786 q 344 906 306 869 q 522 975 415 975 q 602 954 573 975 q 631 911 631 932 q 581 851 631 851 q 536 874 568 851 q 487 898 504 898 q 408 842 445 898 q 371 701 371 787 q 390 646 371 663 q 416 631 396 640 l 444 618 q 485 579 485 595 q 432 547 485 563 q 363 479 380 531 q 300 152 329 374 q 227 -142 271 -71 q 150 -218 199 -189 q 49 -248 100 -248 q -48 -194 -48 -248 q -1 -148 -48 -148 q 22 -153 4 -148 q 52 -159 40 -159 q 107 -123 83 -159 q 174 167 159 -47 q 193 342 182 278 z "},"":{"ha":547,"x_min":85,"x_max":475,"o":"m 277 1011 l 288 1011 q 372 937 319 1011 q 475 792 475 793 l 475 788 q 444 770 475 770 l 439 770 q 353 835 424 770 q 280 901 282 901 q 245 873 273 901 q 173 807 217 845 q 116 770 128 770 l 111 770 q 85 788 85 770 q 187 931 85 798 q 277 1011 249 1011 z "},"":{"ha":567,"x_min":89,"x_max":481,"o":"m 286 763 l 280 763 q 188 844 250 763 q 89 983 89 973 q 123 1001 89 1001 q 211 936 140 1001 q 285 870 282 870 q 360 936 288 870 q 456 1002 432 1002 q 481 983 481 1002 q 372 838 481 976 q 286 763 314 763 z "},"":{"ha":587,"x_min":110,"x_max":497,"o":"m 110 933 l 110 944 q 140 959 110 959 q 175 924 151 959 q 229 872 199 890 q 304 854 258 854 q 377 870 351 854 q 431 924 403 886 q 466 962 460 962 l 476 962 q 497 947 497 962 l 497 941 q 441 825 497 882 q 314 769 385 769 l 291 769 q 166 820 222 769 q 110 933 110 871 z "},"":{"ha":446,"x_min":152,"x_max":314,"o":"m 228 760 q 173 782 195 760 q 152 832 152 803 l 152 848 q 177 902 152 882 q 227 923 201 923 l 243 923 q 293 902 272 923 q 314 852 314 881 l 314 838 q 294 786 314 810 q 252 763 275 763 q 244 761 245 761 l 236 760 l 228 760 z "},"":{"ha":510,"x_min":117,"x_max":386,"o":"m 176 891 q 177 878 177 887 q 197 849 177 869 q 243 829 217 829 l 264 829 q 305 847 283 829 q 326 881 326 864 q 328 888 328 885 l 329 897 l 329 904 q 308 951 329 930 q 260 972 286 972 l 242 972 q 199 955 220 972 q 177 919 177 938 l 175 905 l 175 898 l 176 896 l 176 891 m 117 895 l 117 903 q 157 990 117 954 q 246 1025 197 1025 l 260 1025 q 346 994 305 1025 q 386 916 386 963 l 386 891 q 348 814 386 852 q 257 777 311 777 l 239 777 q 227 778 231 778 q 150 815 183 778 q 117 895 117 852 z "},"":{"ha":489,"x_min":129,"x_max":385,"o":"m 297 26 l 308 26 q 323 16 323 26 q 300 -14 324 11 q 230 -143 231 -83 q 248 -193 230 -173 q 300 -213 267 -213 l 370 -203 q 385 -223 385 -203 l 385 -228 q 353 -262 385 -240 q 269 -284 321 -284 l 252 -284 q 165 -254 201 -284 q 129 -176 129 -223 l 129 -160 q 180 -54 129 -111 q 297 26 254 26 z "},"":{"ha":629,"x_min":90,"x_max":547,"o":"m 224 952 l 239 952 q 331 922 267 952 q 424 892 394 892 q 487 920 454 892 q 526 947 520 947 q 547 929 547 947 l 547 924 q 490 831 547 880 q 414 802 454 802 l 403 802 l 397 802 q 303 832 366 802 q 212 861 241 861 q 148 833 184 861 q 111 806 112 806 q 90 825 90 806 l 90 830 q 147 922 90 873 q 224 952 183 952 z "},"":{"ha":644,"x_min":106,"x_max":570,"o":"m 286 1002 l 297 1002 q 351 965 351 1002 l 351 962 q 259 853 351 956 q 132 750 168 750 l 128 751 l 125 751 q 106 769 106 751 l 106 772 q 127 812 106 781 q 181 898 149 844 q 227 968 214 952 q 286 1002 258 1002 m 570 963 l 570 957 q 466 843 570 935 q 341 750 362 750 q 319 770 319 750 q 448 967 319 802 q 504 1000 473 1000 l 515 1000 q 554 986 538 1000 q 570 963 570 972 z "},"":{"ha":748,"x_min":66,"x_max":683,"o":"m 651 411 q 683 385 683 411 l 683 378 l 682 370 q 664 332 682 335 q 366 329 646 329 l 207 329 l 193 328 l 165 328 l 144 328 l 104 328 q 66 347 66 328 l 66 375 q 86 407 66 404 q 381 410 106 410 l 583 411 l 651 411 z "},"":{"ha":1194,"x_min":59,"x_max":1135,"o":"m 1070 411 q 1135 382 1135 411 l 1135 370 q 1104 331 1135 334 q 585 328 1072 328 l 262 328 l 227 328 l 124 328 q 59 356 59 328 l 59 368 q 104 408 59 404 q 608 410 118 410 l 1025 411 l 1070 411 z "},"":{"ha":345,"x_min":75,"x_max":260,"o":"m 75 777 q 77 802 75 777 q 130 927 77 862 q 227 991 182 991 q 248 966 248 991 q 231 940 248 958 q 177 838 178 887 q 219 785 177 819 q 260 722 260 752 l 260 712 q 235 661 260 682 q 182 641 210 641 l 172 641 q 101 673 128 641 q 75 766 75 706 l 75 771 l 75 777 z "},"":{"ha":340,"x_min":94,"x_max":277,"o":"m 276 866 q 275 840 276 866 q 220 710 275 783 q 119 637 165 637 l 115 637 q 96 660 96 637 q 115 688 96 670 q 152 732 133 707 q 171 791 171 758 q 133 842 171 811 q 94 908 94 872 q 118 966 94 945 q 170 988 142 988 l 185 988 q 252 958 228 988 q 277 871 277 928 l 276 866 z "},"":{"ha":343,"x_min":85,"x_max":267,"o":"m 85 81 l 85 96 q 110 143 85 122 q 169 164 136 164 l 174 164 q 241 135 215 164 q 267 48 267 106 l 267 43 q 222 -100 267 -39 q 111 -190 154 -190 l 107 -190 q 86 -164 86 -190 q 110 -134 86 -159 q 136 -104 133 -108 q 163 -38 163 -63 q 124 16 163 -12 q 85 81 85 45 z "},"":{"ha":595,"x_min":65,"x_max":510,"o":"m 175 635 l 160 635 q 91 670 116 635 q 65 762 65 705 l 66 767 q 115 914 66 843 q 210 985 163 985 l 222 985 q 237 962 237 985 q 192 901 237 956 q 168 829 168 871 q 209 780 168 810 q 250 713 250 749 l 250 703 q 228 657 250 680 q 175 635 205 635 m 326 756 l 326 771 q 374 913 326 840 q 474 985 422 985 l 478 985 l 482 985 q 497 958 497 985 q 480 935 496 951 q 428 831 428 882 q 469 780 428 810 q 510 714 510 750 l 510 700 q 487 656 510 677 q 436 635 463 635 l 421 635 q 351 670 376 635 q 326 756 326 704 z "},"":{"ha":593,"x_min":81,"x_max":524,"o":"m 262 873 l 262 848 q 208 701 262 774 q 105 628 153 628 q 85 654 85 628 q 100 677 85 662 q 158 781 158 734 q 120 831 158 801 q 81 898 81 862 l 81 903 l 82 907 q 106 959 82 939 q 160 979 131 979 l 170 979 q 236 950 210 979 q 262 873 262 921 m 524 873 l 524 847 q 469 701 524 774 q 369 628 414 628 l 365 628 q 346 651 346 628 q 366 682 346 659 q 419 782 419 741 q 381 833 419 802 q 342 899 342 863 l 342 909 q 367 959 342 939 q 427 979 391 979 l 432 979 q 499 948 475 979 q 524 873 524 918 z "},"":{"ha":598,"x_min":76,"x_max":522,"o":"m 258 57 l 258 37 l 257 32 q 201 -117 257 -43 q 100 -191 146 -191 q 79 -166 79 -191 q 116 -120 79 -165 q 153 -38 153 -75 q 114 15 153 -20 q 76 79 76 49 l 76 84 l 77 90 q 102 141 77 121 q 160 162 127 162 l 165 162 q 235 131 212 162 q 258 57 258 100 m 520 17 q 467 -115 520 -38 q 363 -191 414 -191 q 343 -166 343 -191 q 359 -142 343 -158 q 416 -38 416 -85 q 378 15 416 -16 q 340 80 340 45 l 340 90 q 364 141 340 119 q 418 163 388 163 l 434 163 q 496 134 472 163 q 520 68 520 104 l 522 58 l 522 32 q 520 17 520 22 z "},"":{"ha":669,"x_min":66,"x_max":600,"o":"m 119 680 l 246 669 q 283 680 273 669 q 294 733 294 691 l 275 901 q 330 957 275 957 l 347 957 q 392 895 392 957 l 376 723 q 384 684 376 698 q 428 671 392 671 l 526 680 q 600 642 600 680 l 600 630 q 579 601 600 614 q 514 587 559 587 l 481 590 l 450 591 q 397 571 412 591 q 382 506 382 551 l 382 490 l 385 458 l 386 424 q 386 390 386 407 l 382 254 l 382 220 l 382 186 l 381 153 l 381 102 q 376 -98 381 -74 q 341 -137 368 -137 q 294 -95 301 -137 q 291 106 291 -79 l 283 413 l 288 511 q 231 591 288 591 l 151 586 q 66 631 66 586 q 81 663 66 647 q 119 680 96 680 z "},"":{"ha":684,"x_min":74,"x_max":606,"o":"m 299 740 l 283 892 q 297 947 283 934 q 335 960 311 960 l 357 960 q 388 946 380 960 q 397 903 397 932 q 390 821 397 873 q 384 733 384 769 q 444 688 384 688 l 550 695 q 606 648 606 695 q 525 606 606 606 l 504 607 q 460 610 461 610 q 402 592 415 610 q 389 521 389 574 l 395 456 q 397 371 397 438 l 400 270 q 417 229 400 239 q 464 218 433 218 l 555 222 q 596 172 596 222 q 564 135 596 149 q 479 128 548 128 q 397 116 410 128 q 383 66 383 104 l 399 -87 q 349 -156 399 -156 l 326 -156 q 288 -98 288 -156 l 303 76 q 282 117 303 107 q 197 126 260 126 q 112 140 134 126 q 91 179 91 153 q 105 212 91 205 q 173 219 120 219 l 192 218 q 236 217 205 217 q 276 241 267 217 q 286 359 286 266 l 296 549 q 236 609 296 609 l 129 602 q 74 652 74 602 q 92 679 74 665 q 161 694 110 694 l 205 688 q 248 685 237 685 q 299 740 299 685 z "},"":{"ha":541,"x_min":101,"x_max":434,"o":"m 434 448 l 434 426 q 386 313 434 357 q 277 270 338 270 l 250 270 q 145 314 189 270 q 101 425 101 357 l 101 441 q 152 547 101 501 q 264 593 203 593 l 269 593 l 275 593 q 387 550 339 593 q 434 448 434 507 z "},"":{"ha":1054,"x_min":79,"x_max":966,"o":"m 173 -9 l 156 -9 q 101 18 123 -9 q 79 73 79 44 l 79 78 q 101 136 79 109 q 151 162 123 162 l 165 164 l 170 164 l 173 163 q 227 142 201 163 q 252 85 252 120 l 252 74 q 229 19 252 46 q 173 -9 206 -9 m 530 -9 l 513 -9 q 461 14 484 -9 q 438 59 438 37 l 436 73 l 436 81 q 460 138 436 113 q 507 162 485 162 l 524 164 l 527 164 q 547 162 535 162 q 583 142 558 162 q 607 96 607 121 l 609 79 l 609 74 q 607 60 607 66 q 581 13 607 35 q 530 -9 554 -9 m 965 74 l 964 60 q 940 15 964 39 q 886 -9 916 -9 l 869 -9 q 818 14 841 -9 q 795 59 795 37 l 793 75 l 793 81 q 816 136 793 109 q 876 164 839 164 l 886 164 q 938 143 913 164 q 963 99 963 123 q 965 91 965 93 l 966 80 l 966 77 l 965 74 z "},"":{"ha":1510,"x_min":77,"x_max":1407,"o":"m 314 756 q 289 839 314 802 q 233 875 263 875 l 224 875 l 220 874 q 157 822 181 874 q 134 686 134 770 l 134 681 q 157 561 134 612 q 219 509 180 509 l 235 509 q 291 554 267 509 q 315 653 315 598 l 317 664 l 317 681 l 317 715 l 317 720 l 316 736 q 314 756 314 751 m 815 303 q 789 394 815 352 q 730 435 762 435 l 715 435 q 650 386 679 435 q 621 277 621 336 l 620 271 l 619 266 l 618 243 l 618 215 q 650 95 618 149 q 712 59 671 59 q 784 108 753 59 q 815 218 815 157 l 817 241 l 817 277 q 815 303 815 293 m 1278 242 l 1278 281 q 1276 307 1276 298 q 1253 390 1276 355 q 1202 426 1230 426 l 1189 426 q 1116 375 1148 426 q 1084 235 1084 325 l 1084 197 q 1108 89 1084 127 q 1160 51 1132 51 l 1173 51 q 1244 98 1218 51 q 1278 242 1278 161 m 274 907 l 296 907 q 427 845 373 907 q 480 682 480 783 l 480 674 q 424 506 480 575 q 279 437 368 437 l 272 437 q 134 498 191 437 q 77 648 77 559 l 77 686 q 137 842 77 778 q 274 907 197 907 m 697 863 q 770 920 737 920 q 803 905 803 920 q 249 41 803 858 q 189 2 222 2 q 156 18 156 2 q 184 74 156 27 q 697 863 454 517 m 935 249 l 935 234 q 882 71 935 137 q 752 4 829 4 l 732 4 q 606 67 656 4 q 555 225 555 130 q 603 385 555 320 q 667 440 629 420 q 743 460 705 460 l 764 460 q 889 397 842 460 q 935 249 935 334 m 1407 248 l 1407 234 q 1353 72 1407 139 q 1213 4 1299 4 l 1200 4 q 1080 63 1131 4 q 1029 210 1029 121 l 1029 239 q 1082 395 1029 329 q 1211 461 1135 461 l 1224 461 l 1232 460 q 1353 403 1299 460 q 1407 248 1407 345 z "},"":{"ha":458,"x_min":68,"x_max":374,"o":"m 351 625 q 374 599 374 625 q 284 472 374 574 q 195 356 195 371 q 282 240 195 352 q 369 109 369 128 q 342 83 369 83 q 196 211 324 83 q 68 354 68 339 q 190 487 68 380 q 232 527 208 503 q 345 625 330 625 l 351 625 z "},"":{"ha":458,"x_min":89,"x_max":391,"o":"m 265 348 q 265 355 265 348 q 227 408 265 361 q 138 522 188 454 q 89 597 89 589 q 116 623 89 623 q 263 495 136 623 q 391 355 391 368 q 258 209 391 335 q 117 83 124 83 q 90 107 90 83 q 177 235 90 136 q 265 348 265 335 z "},"":{"ha":526,"x_min":-66,"x_max":565,"o":"m -24 -42 l -36 -42 q -66 -24 -66 -42 q 433 841 -66 26 q 495 931 483 922 q 536 940 508 940 q 565 922 565 940 q 540 868 565 913 q 58 43 242 339 q -24 -42 5 -42 z "},"":{"ha":899,"x_min":58,"x_max":802,"o":"m 130 450 q 97 502 130 480 q 63 534 63 524 q 105 578 63 539 q 192 703 146 617 q 283 829 237 789 q 392 896 329 869 q 523 923 456 923 l 552 923 q 743 886 666 923 q 785 846 768 874 q 802 787 802 817 q 764 736 802 736 q 689 779 749 736 q 555 821 628 821 q 422 774 483 821 q 362 656 362 727 q 418 598 362 623 q 523 576 437 591 q 609 538 609 562 l 603 529 q 412 504 574 504 q 330 494 358 504 q 302 449 302 484 l 311 432 q 454 407 334 407 q 575 373 575 407 q 493 331 575 350 q 396 302 411 311 q 365 253 365 283 q 385 190 365 222 q 452 127 404 157 q 583 96 500 96 q 682 123 600 96 q 765 150 764 150 q 789 126 789 150 q 766 84 789 114 q 710 35 744 54 q 547 -7 637 -7 l 517 -7 q 382 17 446 -7 q 276 78 319 41 q 185 206 233 116 q 112 320 137 296 l 79 347 q 58 371 58 366 q 94 413 58 389 q 130 450 130 437 z "},"":{"ha":1250,"x_min":41,"x_max":1160,"o":"m 456 927 q 485 835 485 927 q 471 806 485 806 q 434 840 467 806 q 362 873 402 873 q 313 846 323 873 q 308 682 308 830 q 313 517 308 534 q 344 487 317 500 q 370 457 370 473 q 270 441 370 441 l 223 441 q 153 462 153 441 q 179 486 153 473 q 210 517 205 498 q 216 683 216 536 q 211 844 216 829 q 164 873 201 873 q 93 840 126 873 q 54 806 60 806 q 41 833 41 806 q 70 928 41 928 q 115 926 100 926 l 411 925 l 434 926 q 456 927 446 927 m 549 903 q 617 926 549 926 q 718 876 686 926 q 791 721 737 844 q 851 597 846 597 q 917 727 861 597 q 994 886 973 857 q 1085 928 1022 928 q 1148 907 1148 928 q 1131 889 1148 904 q 1109 858 1114 874 q 1105 703 1105 841 q 1111 534 1105 564 q 1129 495 1117 505 q 1160 464 1160 471 q 1084 442 1160 442 l 1064 443 l 1044 443 q 991 469 991 443 q 1008 509 1005 498 q 1014 576 1010 520 q 1018 713 1018 633 q 1010 794 1018 794 q 928 629 1002 794 q 833 465 854 465 q 742 626 812 465 q 658 787 671 787 q 651 674 651 787 q 664 520 651 561 q 677 469 677 479 q 585 444 677 444 q 548 460 548 444 l 548 470 q 567 499 548 474 q 590 544 586 524 q 594 646 594 564 l 596 711 q 597 797 597 754 q 592 854 597 840 q 568 884 587 869 q 549 903 549 899 z "},"":{"ha":766,"x_min":78,"x_max":688,"o":"m 646 438 q 688 416 688 438 l 688 395 q 670 356 688 359 q 367 353 652 353 l 250 353 l 236 353 l 154 353 l 133 352 q 78 374 78 352 l 78 395 q 95 434 78 431 q 392 437 113 437 l 606 438 l 646 438 z "}}}
